<svg xmlns="http://www.w3.org/2000/svg" width="662" height="441" style="
        width:662px;
        height:441px;
        background: #FFF;
        fill: none;
">
        <svg xmlns="http://www.w3.org/2000/svg"/>
        <svg xmlns="http://www.w3.org/2000/svg" class="role-diagram-draw-area"><g class="shapes-region" style="stroke: black; fill: none;"><g class="composite-shape" data-amt="diagram/shapes/plot" style="transform: matrix(1, 0, 0, 1, 13, 36);"><defs><clipPath id="dp19976853108670767"><rect x="1" y="1" width="646" height="391"/></clipPath></defs><g><g clip-path="url(#dp19976853108670767)"><g style="font-family: Asana-Math, Asana;"><line x1="0" y1="370.8649618518992" x2="647.5" y2="370.8649618518992" fill="none" stroke="#000" stroke-width="0.5"/><line x1="120.77990922459931" y1="366.8649618518992" x2="120.77990922459931" y2="374.8649618518992" fill="none" stroke="#000" stroke-width="0.5"/><line x1="202.8799092245993" y1="366.8649618518992" x2="202.8799092245993" y2="374.8649618518992" fill="none" stroke="#000" stroke-width="0.5"/><line x1="284.9799092245993" y1="366.8649618518992" x2="284.9799092245993" y2="374.8649618518992" fill="none" stroke="#000" stroke-width="0.5"/><line x1="367.0799092245993" y1="366.8649618518992" x2="367.0799092245993" y2="374.8649618518992" fill="none" stroke="#000" stroke-width="0.5"/><line x1="449.1799092245993" y1="366.8649618518992" x2="449.1799092245993" y2="374.8649618518992" fill="none" stroke="#000" stroke-width="0.5"/><line x1="531.2799092245992" y1="366.8649618518992" x2="531.2799092245992" y2="374.8649618518992" fill="none" stroke="#000" stroke-width="0.5"/><line x1="613.3799092245993" y1="366.8649618518992" x2="613.3799092245993" y2="374.8649618518992" fill="none" stroke="#000" stroke-width="0.5"/><path d="M642.5,366.8649618518992 L646.5,370.8649618518992 L642.5,374.8649618518992" stroke="#000" stroke-width="0.5"/></g><g style="font-family: Asana-Math, Asana;"><line x1="38.67990922459933" y1="0.5" x2="38.67990922459933" y2="393" fill="none" stroke="#000" stroke-width="0.5"/><line x1="34.67990922459933" y1="310.8649618518992" x2="42.67990922459933" y2="310.8649618518992" fill="none" stroke="#000" stroke-width="0.5"/><line x1="34.67990922459933" y1="250.8649618518992" x2="42.67990922459933" y2="250.8649618518992" fill="none" stroke="#000" stroke-width="0.5"/><line x1="34.67990922459933" y1="190.86496185189918" x2="42.67990922459933" y2="190.86496185189918" fill="none" stroke="#000" stroke-width="0.5"/><line x1="34.67990922459933" y1="130.86496185189918" x2="42.67990922459933" y2="130.86496185189918" fill="none" stroke="#000" stroke-width="0.5"/><line x1="34.67990922459933" y1="70.86496185189918" x2="42.67990922459933" y2="70.86496185189918" fill="none" stroke="#000" stroke-width="0.5"/><line x1="34.67990922459933" y1="10.864961851899238" x2="42.67990922459933" y2="10.864961851899238" fill="none" stroke="#000" stroke-width="0.5"/><path d="M34.67990922459933,5.5 L38.67990922459933,1.5 L42.67990922459933,5.5" stroke="#000" stroke-width="0.5"/></g><g><path d=" M0.00,786.00 L0.50,786.00 L1.00,786.00 L1.50,786.00 L2.00,786.00 L2.50,786.00 L3.00,786.00 L3.50,786.00 L4.00,786.00 L4.50,786.00 L5.00,786.00 L5.50,786.00 L6.00,786.00 L6.51,786.00 L7.01,786.00 L7.51,786.00 L8.01,786.00 L8.51,786.00 L9.01,786.00 L9.51,786.00 L10.01,786.00 L10.51,786.00 L11.01,786.00 L11.51,786.00 L12.01,786.00 L12.51,786.00 L13.01,786.00 L13.51,786.00 L14.01,786.00 L14.51,786.00 L15.01,786.00 L15.51,786.00 L16.01,786.00 L16.51,786.00 L17.01,786.00 L17.51,786.00 L18.01,786.00 L18.51,786.00 L19.01,786.00 L19.52,786.00 L20.02,786.00 L20.52,786.00 L21.02,786.00 L21.52,786.00 L22.02,786.00 L22.52,786.00 L23.02,786.00 L23.52,786.00 L24.02,786.00 L24.52,786.00 L25.02,786.00 L25.52,786.00 L26.02,786.00 L26.52,786.00 L27.02,786.00 L27.52,786.00 L28.02,786.00 L28.52,786.00 L29.02,786.00 L29.52,786.00 L30.02,786.00 L30.52,786.00 L31.02,786.00 L31.52,786.00 L32.02,786.00 L32.53,786.00 L33.03,786.00 L33.53,786.00 L34.03,786.00 L34.53,786.00 L35.03,786.00 L35.53,786.00 L36.03,786.00 L36.53,786.00 L37.03,786.00 L37.53,786.00 L38.03,786.00 L38.53,786.00 M39.03,370.61 L39.53,370.24 L40.03,369.88 L40.53,369.51 L41.03,369.15 L41.53,368.78 L42.03,368.41 L42.53,368.05 L43.03,367.68 L43.53,367.32 L44.03,366.95 L44.53,366.59 L45.03,366.22 L45.54,365.86 L46.04,365.49 L46.54,365.12 L47.04,364.76 L47.54,364.39 L48.04,364.03 L48.54,363.66 L49.04,363.30 L49.54,362.93 L50.04,362.56 L50.54,362.20 L51.04,361.83 L51.54,361.47 L52.04,361.10 L52.54,360.74 L53.04,360.37 L53.54,360.00 L54.04,359.64 L54.54,359.27 L55.04,358.91 L55.54,358.54 L56.04,358.18 L56.54,357.81 L57.04,357.44 L57.54,357.08 L58.04,356.71 L58.55,356.35 L59.05,355.98 L59.55,355.62 L60.05,355.25 L60.55,354.88 L61.05,354.52 L61.55,354.15 L62.05,353.79 L62.55,353.42 L63.05,353.06 L63.55,352.69 L64.05,352.32 L64.55,351.96 L65.05,351.59 L65.55,351.23 L66.05,350.86 L66.55,350.50 L67.05,350.13 L67.55,349.76 L68.05,349.40 L68.55,349.03 L69.05,348.67 L69.55,348.30 L70.05,347.94 L70.55,347.57 L71.05,347.20 L71.56,346.84 L72.06,346.47 L72.56,346.11 L73.06,345.74 L73.56,345.38 L74.06,345.01 L74.56,344.65 L75.06,344.28 L75.56,343.91 L76.06,343.55 L76.56,343.18 L77.06,342.82 L77.56,342.45 L78.06,342.09 L78.56,341.72 L79.06,341.35 L79.56,340.99 L80.06,340.62 L80.56,340.26 L81.06,339.89 L81.56,339.53 L82.06,339.16 L82.56,338.79 L83.06,338.43 L83.56,338.06 L84.06,337.70 L84.57,337.33 L85.07,336.97 L85.57,336.60 L86.07,336.23 L86.57,335.87 L87.07,335.50 L87.57,335.14 L88.07,334.77 L88.57,334.41 L89.07,334.04 L89.57,333.67 L90.07,333.31 L90.57,332.94 L91.07,332.58 L91.57,332.21 L92.07,331.85 L92.57,331.48 L93.07,331.11 L93.57,330.75 L94.07,330.38 L94.57,330.02 L95.07,329.65 L95.57,329.29 L96.07,328.92 L96.57,328.55 L97.07,328.19 L97.58,327.82 L98.08,327.46 L98.58,327.09 L99.08,326.73 L99.58,326.36 L100.08,325.99 L100.58,325.63 L101.08,325.26 L101.58,324.90 L102.08,324.53 L102.58,324.17 L103.08,323.80 L103.58,323.43 L104.08,323.07 L104.58,322.70 L105.08,322.34 L105.58,321.97 L106.08,321.61 L106.58,321.24 L107.08,320.88 L107.58,320.51 L108.08,320.14 L108.58,319.78 L109.08,319.41 L109.58,319.05 L110.08,318.68 L110.59,318.32 L111.09,317.95 L111.59,317.58 L112.09,317.22 L112.59,316.85 L113.09,316.49 L113.59,316.12 L114.09,315.76 L114.59,315.39 L115.09,315.02 L115.59,314.66 L116.09,314.29 L116.59,313.93 L117.09,313.56 L117.59,313.20 L118.09,312.83 L118.59,312.46 L119.09,312.10 L119.59,311.73 L120.09,311.37 L120.59,311.00 L121.09,310.64 L121.59,310.27 L122.09,309.90 L122.59,309.54 L123.09,309.17 L123.60,308.81 L124.10,308.44 L124.60,308.08 L125.10,307.71 L125.60,307.34 L126.10,306.98 L126.60,306.61 L127.10,306.25 L127.60,305.88 L128.10,305.52 L128.60,305.15 L129.10,304.78 L129.60,304.42 L130.10,304.05 L130.60,303.69 L131.10,303.32 L131.60,302.96 L132.10,302.59 L132.60,302.22 L133.10,301.86 L133.60,301.49 L134.10,301.13 L134.60,300.76 L135.10,300.40 L135.60,300.03 L136.11,299.67 L136.61,299.30 L137.11,298.93 L137.61,298.57 L138.11,298.20 L138.61,297.84 L139.11,297.47 L139.61,297.11 L140.11,296.74 L140.61,296.37 L141.11,296.01 L141.61,295.64 L142.11,295.28 L142.61,294.91 L143.11,294.55 L143.61,294.18 L144.11,293.81 L144.61,293.45 L145.11,293.08 L145.61,292.72 L146.11,292.35 L146.61,291.99 L147.11,291.62 L147.61,291.25 L148.11,290.89 L148.61,290.52 L149.12,290.16 L149.62,289.79 L150.12,289.43 L150.62,289.06 L151.12,288.69 L151.62,288.33 L152.12,287.96 L152.62,287.60 L153.12,287.23 L153.62,286.87 L154.12,286.50 L154.62,286.13 L155.12,285.77 L155.62,285.40 L156.12,285.04 L156.62,284.67 L157.12,284.31 L157.62,283.94 L158.12,283.57 L158.62,283.21 L159.12,282.84 L159.62,282.48 L160.12,282.11 L160.62,281.75 L161.12,281.38 L161.62,281.01 L162.13,280.65 L162.63,280.28 L163.13,279.92 L163.63,279.55 L164.13,279.19 L164.63,278.82 L165.13,278.46 L165.63,278.09 L166.13,277.72 L166.63,277.36 L167.13,276.99 L167.63,276.63 L168.13,276.26 L168.63,275.90 L169.13,275.53 L169.63,275.16 L170.13,274.80 L170.63,274.43 L171.13,274.07 L171.63,273.70 L172.13,273.34 L172.63,272.97 L173.13,272.60 L173.63,272.24 L174.13,271.87 L174.63,271.51 L175.14,271.14 L175.64,270.78 L176.14,270.41 L176.64,270.04 L177.14,269.68 L177.64,269.31 L178.14,268.95 L178.64,268.58 L179.14,268.22 L179.64,267.85 L180.14,267.48 L180.64,267.12 L181.14,266.75 L181.64,266.39 L182.14,266.02 L182.64,265.66 L183.14,265.29 L183.64,264.92 L184.14,264.56 L184.64,264.19 L185.14,263.83 L185.64,263.46 L186.14,263.10 L186.64,262.73 L187.14,262.36 L187.64,262.00 L188.15,261.63 L188.65,261.27 L189.15,260.90 L189.65,260.54 L190.15,260.17 L190.65,259.80 L191.15,259.44 L191.65,259.07 L192.15,258.71 L192.65,258.34 L193.15,257.98 L193.65,257.61 L194.15,257.25 L194.65,256.88 L195.15,256.51 L195.65,256.15 L196.15,255.78 L196.65,255.42 L197.15,255.05 L197.65,254.69 L198.15,254.32 L198.65,253.95 L199.15,253.59 L199.65,253.22 L200.15,252.86 L200.65,252.49 L201.16,252.13 L201.66,251.76 L202.16,251.39 L202.66,251.03 L203.16,250.66 L203.66,250.30 L204.16,249.93 L204.66,249.57 L205.16,249.20 L205.66,248.83 L206.16,248.47 L206.66,248.10 L207.16,247.74 L207.66,247.37 L208.16,247.01 L208.66,246.64 L209.16,246.27 L209.66,245.91 L210.16,245.54 L210.66,245.18 L211.16,244.81 L211.66,244.45 L212.16,244.08 L212.66,243.71 L213.16,243.35 L213.66,242.98 L214.17,242.62 L214.67,242.25 L215.17,241.89 L215.67,241.52 L216.17,241.15 L216.67,240.79 L217.17,240.42 L217.67,240.06 L218.17,239.69 L218.67,239.33 L219.17,238.96 L219.67,238.59 L220.17,238.23 L220.67,237.86 L221.17,237.50 L221.67,237.13 L222.17,236.77 L222.67,236.40 L223.17,236.04 L223.67,235.67 L224.17,235.30 L224.67,234.94 L225.17,234.57 L225.67,234.21 L226.17,233.84 L226.67,233.48 L227.18,233.11 L227.68,232.74 L228.18,232.38 L228.68,232.01 L229.18,231.65 L229.68,231.28 L230.18,230.92 L230.68,230.55 L231.18,230.18 L231.68,229.82 L232.18,229.45 L232.68,229.09 L233.18,228.72 L233.68,228.36 L234.18,227.99 L234.68,227.62 L235.18,227.26 L235.68,226.89 L236.18,226.53 L236.68,226.16 L237.18,225.80 L237.68,225.43 L238.18,225.06 L238.68,224.70 L239.18,224.33 L239.68,223.97 L240.19,223.60 L240.69,223.24 L241.19,222.87 L241.69,222.50 L242.19,222.14 L242.69,221.77 L243.19,221.41 L243.69,221.04 L244.19,220.68 L244.69,220.31 L245.19,219.94 L245.69,219.58 L246.19,219.21 L246.69,218.85 L247.19,218.48 L247.69,218.12 L248.19,217.75 L248.69,217.38 L249.19,217.02 L249.69,216.65 L250.19,216.29 L250.69,215.92 L251.19,215.56 L251.69,215.19 L252.19,214.82 L252.69,214.46 L253.20,214.09 L253.70,213.73 L254.20,213.36 L254.70,213.00 L255.20,212.63 L255.70,212.27 L256.20,211.90 L256.70,211.53 L257.20,211.17 L257.70,210.80 L258.20,210.44 L258.70,210.07 L259.20,209.71 L259.70,209.34 L260.20,208.97 L260.70,208.61 L261.20,208.24 L261.70,207.88 L262.20,207.51 L262.70,207.15 L263.20,206.78 L263.70,206.41 L264.20,206.05 L264.70,205.68 L265.20,205.32 L265.71,204.95 L266.21,204.59 L266.71,204.22 L267.21,203.85 L267.71,203.49 L268.21,203.12 L268.71,202.76 L269.21,202.39 L269.71,202.03 L270.21,201.66 L270.71,201.29 L271.21,200.93 L271.71,200.56 L272.21,200.20 L272.71,199.83 L273.21,199.47 L273.71,199.10 L274.21,198.73 L274.71,198.37 L275.21,198.00 L275.71,197.64 L276.21,197.27 L276.71,196.91 L277.21,196.54 L277.71,196.17 L278.21,195.81 L278.72,195.44 L279.22,195.08 L279.72,194.71 L280.22,194.35 L280.72,193.98 L281.22,193.61 L281.72,193.25 L282.22,192.88 L282.72,192.52 L283.22,192.15 L283.72,191.79 L284.22,191.42 L284.72,191.06 L285.22,190.69 L285.72,190.32 L286.22,189.96 L286.72,189.59 L287.22,189.23 L287.72,188.86 L288.22,188.50 L288.72,188.13 L289.22,187.76 L289.72,187.40 L290.22,187.03 L290.72,186.67 L291.22,186.30 L291.73,185.94 L292.23,185.57 L292.73,185.20 L293.23,184.84 L293.73,184.47 L294.23,184.11 L294.73,183.74 L295.23,183.38 L295.73,183.01 L296.23,182.64 L296.73,182.28 L297.23,181.91 L297.73,181.55 L298.23,181.18 L298.73,180.82 L299.23,180.45 L299.73,180.08 L300.23,179.72 L300.73,179.35 L301.23,178.99 L301.73,178.62 L302.23,178.26 L302.73,177.89 L303.23,177.52 L303.73,177.16 L304.23,176.79 L304.74,176.43 L305.24,176.06 L305.74,175.70 L306.24,175.33 L306.74,174.96 L307.24,174.60 L307.74,174.23 L308.24,173.87 L308.74,173.50 L309.24,173.14 L309.74,172.77 L310.24,172.40 L310.74,172.04 L311.24,171.67 L311.74,171.31 L312.24,170.94 L312.74,170.58 L313.24,170.21 L313.74,169.85 L314.24,169.48 L314.74,169.11 L315.24,168.75 L315.74,168.38 L316.24,168.02 L316.74,167.65 L317.24,167.29 L317.75,166.92 L318.25,166.55 L318.75,166.19 L319.25,165.82 L319.75,165.46 L320.25,165.09 L320.75,164.73 L321.25,164.36 L321.75,163.99 L322.25,163.63 L322.75,163.26 L323.25,162.90 L323.75,162.53 L324.25,162.17 L324.75,161.80 L325.25,161.43 L325.75,161.07 L326.25,160.70 L326.75,160.34 L327.25,159.97 L327.75,159.61 L328.25,159.24 L328.75,158.87 L329.25,158.51 L329.75,158.14 L330.25,157.78 L330.76,157.41 L331.26,157.05 L331.76,156.68 L332.26,156.31 L332.76,155.95 L333.26,155.58 L333.76,155.22 L334.26,154.85 L334.76,154.49 L335.26,154.12 L335.76,153.75 L336.26,153.39 L336.76,153.02 L337.26,152.66 L337.76,152.29 L338.26,151.93 L338.76,151.56 L339.26,151.19 L339.76,150.83 L340.26,150.46 L340.76,150.10 L341.26,149.73 L341.76,149.37 L342.26,149.00 L342.76,148.64 L343.26,148.27 L343.77,147.90 L344.27,147.54 L344.77,147.17 L345.27,146.81 L345.77,146.44 L346.27,146.08 L346.77,145.71 L347.27,145.34 L347.77,144.98 L348.27,144.61 L348.77,144.25 L349.27,143.88 L349.77,143.52 L350.27,143.15 L350.77,142.78 L351.27,142.42 L351.77,142.05 L352.27,141.69 L352.77,141.32 L353.27,140.96 L353.77,140.59 L354.27,140.22 L354.77,139.86 L355.27,139.49 L355.77,139.13 L356.27,138.76 L356.78,138.40 L357.28,138.03 L357.78,137.66 L358.28,137.30 L358.78,136.93 L359.28,136.57 L359.78,136.20 L360.28,135.84 L360.78,135.47 L361.28,135.10 L361.78,134.74 L362.28,134.37 L362.78,134.01 L363.28,133.64 L363.78,133.28 L364.28,132.91 L364.78,132.54 L365.28,132.18 L365.78,131.81 L366.28,131.45 L366.78,131.08 L367.28,130.72 L367.78,130.35 L368.28,129.98 L368.78,129.62 L369.28,129.25 L369.79,128.89 L370.29,128.52 L370.79,128.16 L371.29,127.79 L371.79,127.43 L372.29,127.06 L372.79,126.69 L373.29,126.33 L373.79,125.96 L374.29,125.60 L374.79,125.23 L375.29,124.87 L375.79,124.50 L376.29,124.13 L376.79,123.77 L377.29,123.40 L377.79,123.04 L378.29,122.67 L378.79,122.31 L379.29,121.94 L379.79,121.57 L380.29,121.21 L380.79,120.84 L381.29,120.48 L381.79,120.11 L382.29,119.75 L382.80,119.38 L383.30,119.01 L383.80,118.65 L384.30,118.28 L384.80,117.92 L385.30,117.55 L385.80,117.19 L386.30,116.82 L386.80,116.45 L387.30,116.09 L387.80,115.72 L388.30,115.36 L388.80,114.99 L389.30,114.63 L389.80,114.26 L390.30,113.89 L390.80,113.53 L391.30,113.16 L391.80,112.80 L392.30,112.43 L392.80,112.07 L393.30,111.70 L393.80,111.33 L394.30,110.97 L394.80,110.60 L395.31,110.24 L395.81,109.87 L396.31,109.51 L396.81,109.14 L397.31,108.77 L397.81,108.41 L398.31,108.04 L398.81,107.68 L399.31,107.31 L399.81,106.95 L400.31,106.58 L400.81,106.22 L401.31,105.85 L401.81,105.48 L402.31,105.12 L402.81,104.75 L403.31,104.39 L403.81,104.02 L404.31,103.66 L404.81,103.29 L405.31,102.92 L405.81,102.56 L406.31,102.19 L406.81,101.83 L407.31,101.46 L407.81,101.10 L408.32,100.73 L408.82,100.36 L409.32,100.00 L409.82,99.63 L410.32,99.27 L410.82,98.90 L411.32,98.54 L411.82,98.17 L412.32,97.80 L412.82,97.44 L413.32,97.07 L413.82,96.71 L414.32,96.34 L414.82,95.98 L415.32,95.61 L415.82,95.24 L416.32,94.88 L416.82,94.51 L417.32,94.15 L417.82,93.78 L418.32,93.42 L418.82,93.05 L419.32,92.68 L419.82,92.32 L420.32,91.95 L420.82,91.59 L421.33,91.22 L421.83,90.86 L422.33,90.49 L422.83,90.12 L423.33,89.76 L423.83,89.39 L424.33,89.03 L424.83,88.66 L425.33,88.30 L425.83,87.93 L426.33,87.56 L426.83,87.20 L427.33,86.83 L427.83,86.47 L428.33,86.10 L428.83,85.74 L429.33,85.37 L429.83,85.00 L430.33,84.64 L430.83,84.27 L431.33,83.91 L431.83,83.54 L432.33,83.18 L432.83,82.81 L433.33,82.45 L433.83,82.08 L434.34,81.71 L434.84,81.35 L435.34,80.98 L435.84,80.62 L436.34,80.25 L436.84,79.89 L437.34,79.52 L437.84,79.15 L438.34,78.79 L438.84,78.42 L439.34,78.06 L439.84,77.69 L440.34,77.33 L440.84,76.96 L441.34,76.59 L441.84,76.23 L442.34,75.86 L442.84,75.50 L443.34,75.13 L443.84,74.77 L444.34,74.40 L444.84,74.03 L445.34,73.67 L445.84,73.30 L446.34,72.94 L446.84,72.57 L447.35,72.21 L447.85,71.84 L448.35,71.47 L448.85,71.11 L449.35,70.74 L449.85,70.38 L450.35,70.01 L450.85,69.65 L451.35,69.28 L451.85,68.91 L452.35,68.55 L452.85,68.18 L453.35,67.82 L453.85,67.45 L454.35,67.09 L454.85,66.72 L455.35,66.35 L455.85,65.99 L456.35,65.62 L456.85,65.26 L457.35,64.89 L457.85,64.53 L458.35,64.16 L458.85,63.79 L459.35,63.43 L459.85,63.06 L460.36,62.70 L460.86,62.33 L461.36,61.97 L461.86,61.60 L462.36,61.24 L462.86,60.87 L463.36,60.50 L463.86,60.14 L464.36,59.77 L464.86,59.41 L465.36,59.04 L465.86,58.68 L466.36,58.31 L466.86,57.94 L467.36,57.58 L467.86,57.21 L468.36,56.85 L468.86,56.48 L469.36,56.12 L469.86,55.75 L470.36,55.38 L470.86,55.02 L471.36,54.65 L471.86,54.29 L472.36,53.92 L472.86,53.56 L473.37,53.19 L473.87,52.82 L474.37,52.46 L474.87,52.09 L475.37,51.73 L475.87,51.36 L476.37,51.00 L476.87,50.63 L477.37,50.26 L477.87,49.90 L478.37,49.53 L478.87,49.17 L479.37,48.80 L479.87,48.44 L480.37,48.07 L480.87,47.70 L481.37,47.34 L481.87,46.97 L482.37,46.61 L482.87,46.24 L483.37,45.88 L483.87,45.51 L484.37,45.14 L484.87,44.78 L485.37,44.41 L485.87,44.05 L486.38,43.68 L486.88,43.32 L487.38,42.95 L487.88,42.58 L488.38,42.22 L488.88,41.85 L489.38,41.49 L489.88,41.12 L490.38,40.76 L490.88,40.39 L491.38,40.03 L491.88,39.66 L492.38,39.29 L492.88,38.93 L493.38,38.56 L493.88,38.20 L494.38,37.83 L494.88,37.47 L495.38,37.10 L495.88,36.73 L496.38,36.37 L496.88,36.00 L497.38,35.64 L497.88,35.27 L498.38,34.91 L498.88,34.54 L499.39,34.17 L499.89,33.81 L500.39,33.44 L500.89,33.08 L501.39,32.71 L501.89,32.35 L502.39,31.98 L502.89,31.61 L503.39,31.25 L503.89,30.88 L504.39,30.52 L504.89,30.15 L505.39,29.79 L505.89,29.42 L506.39,29.05 L506.89,28.69 L507.39,28.32 L507.89,27.96 L508.39,27.59 L508.89,27.23 L509.39,26.86 L509.89,26.49 L510.39,26.13 L510.89,25.76 L511.39,25.40 L511.89,25.03 L512.40,24.67 L512.90,24.30 L513.40,23.93 L513.90,23.57 L514.40,23.20 L514.90,22.84 L515.40,22.47 L515.90,22.11 L516.40,21.74 L516.90,21.37 L517.40,21.01 L517.90,20.64 L518.40,20.28 L518.90,19.91 L519.40,19.55 L519.90,19.18 L520.40,18.82 L520.90,18.45 L521.40,18.08 L521.90,17.72 L522.40,17.35 L522.90,16.99 L523.40,16.62 L523.90,16.26 L524.40,15.89 L524.91,15.52 L525.41,15.16 L525.91,14.79 L526.41,14.43 L526.91,14.06 L527.41,13.70 L527.91,13.33 L528.41,12.96 L528.91,12.60 L529.41,12.23 L529.91,11.87 L530.41,11.50 L530.91,11.14 L531.41,10.77 L531.91,10.40 L532.41,10.04 L532.91,9.67 L533.41,9.31 L533.91,8.94 L534.41,8.58 L534.91,8.21 L535.41,7.84 L535.91,7.48 L536.41,7.11 L536.91,6.75 L537.41,6.38 L537.92,6.02 L538.42,5.65 L538.92,5.28 L539.42,4.92 L539.92,4.55 L540.42,4.19 L540.92,3.82 L541.42,3.46 L541.92,3.09 L542.42,2.72 L542.92,2.36 L543.42,1.99 L543.92,1.63 L544.42,1.26 L544.92,0.90 L545.42,0.53 L545.92,0.16 L546.42,-0.20 L546.92,-0.57 L547.42,-0.93 L547.92,-1.30 L548.42,-1.66 L548.92,-2.03 L549.42,-2.39 L549.92,-2.76 L550.42,-3.13 L550.93,-3.49 L551.43,-3.86 L551.93,-4.22 L552.43,-4.59 L552.93,-4.95 L553.43,-5.32 L553.93,-5.69 L554.43,-6.05 L554.93,-6.42 L555.43,-6.78 L555.93,-7.15 L556.43,-7.51 L556.93,-7.88 L557.43,-8.25 L557.93,-8.61 L558.43,-8.98 L558.93,-9.34 L559.43,-9.71 L559.93,-10.07 L560.43,-10.44 L560.93,-10.81 L561.43,-11.17 L561.93,-11.54 L562.43,-11.90 L562.93,-12.27 L563.43,-12.63 L563.94,-13.00 L564.44,-13.37 L564.94,-13.73 L565.44,-14.10 L565.94,-14.46 L566.44,-14.83 L566.94,-15.19 L567.44,-15.56 L567.94,-15.93 L568.44,-16.29 L568.94,-16.66 L569.44,-17.02 L569.94,-17.39 L570.44,-17.75 L570.94,-18.12 L571.44,-18.49 L571.94,-18.85 L572.44,-19.22 L572.94,-19.58 L573.44,-19.95 L573.94,-20.31 L574.44,-20.68 L574.94,-21.05 L575.44,-21.41 L575.94,-21.78 L576.44,-22.14 L576.95,-22.51 L577.45,-22.87 L577.95,-23.24 L578.45,-23.61 L578.95,-23.97 L579.45,-24.34 L579.95,-24.70 L580.45,-25.07 L580.95,-25.43 L581.45,-25.80 L581.95,-26.16 L582.45,-26.53 L582.95,-26.90 L583.45,-27.26 L583.95,-27.63 L584.45,-27.99 L584.95,-28.36 L585.45,-28.72 L585.95,-29.09 L586.45,-29.46 L586.95,-29.82 L587.45,-30.19 L587.95,-30.55 L588.45,-30.92 L588.95,-31.28 L589.45,-31.65 L589.96,-32.02 L590.46,-32.38 L590.96,-32.75 L591.46,-33.11 L591.96,-33.48 L592.46,-33.84 L592.96,-34.21 L593.46,-34.58 L593.96,-34.94 L594.46,-35.31 L594.96,-35.67 L595.46,-36.04 L595.96,-36.40 L596.46,-36.77 L596.96,-37.14 L597.46,-37.50 L597.96,-37.87 L598.46,-38.23 L598.96,-38.60 L599.46,-38.96 L599.96,-39.33 L600.46,-39.70 L600.96,-40.06 L601.46,-40.43 L601.96,-40.79 L602.46,-41.16 L602.97,-41.52 L603.47,-41.89 L603.97,-42.26 L604.47,-42.62 L604.97,-42.99 L605.47,-43.35 L605.97,-43.72 L606.47,-44.08 L606.97,-44.45 L607.47,-44.82 L607.97,-45.18 L608.47,-45.55 L608.97,-45.91 L609.47,-46.28 L609.97,-46.64 L610.47,-47.01 L610.97,-47.37 L611.47,-47.74 L611.97,-48.11 L612.47,-48.47 L612.97,-48.84 L613.47,-49.20 L613.97,-49.57 L614.47,-49.93 L614.97,-50.30 L615.47,-50.67 L615.98,-51.03 L616.48,-51.40 L616.98,-51.76 L617.48,-52.13 L617.98,-52.49 L618.48,-52.86 L618.98,-53.23 L619.48,-53.59 L619.98,-53.96 L620.48,-54.32 L620.98,-54.69 L621.48,-55.05 L621.98,-55.42 L622.48,-55.79 L622.98,-56.15 L623.48,-56.52 L623.98,-56.88 L624.48,-57.25 L624.98,-57.61 L625.48,-57.98 L625.98,-58.35 L626.48,-58.71 L626.98,-59.08 L627.48,-59.44 L627.98,-59.81 L628.48,-60.17 L628.99,-60.54 L629.49,-60.91 L629.99,-61.27 L630.49,-61.64 L630.99,-62.00 L631.49,-62.37 L631.99,-62.73 L632.49,-63.10 L632.99,-63.47 L633.49,-63.83 L633.99,-64.20 L634.49,-64.56 L634.99,-64.93 L635.49,-65.29 L635.99,-65.66 L636.49,-66.03 L636.99,-66.39 L637.49,-66.76 L637.99,-67.12 L638.49,-67.49 L638.99,-67.85 L639.49,-68.22 L639.99,-68.58 L640.49,-68.95 L640.99,-69.32 L641.49,-69.68 L642.00,-70.05 L642.50,-70.41 L643.00,-70.78 L643.50,-71.14 L644.00,-71.51 L644.50,-71.88 L645.00,-72.24 L645.50,-72.61 L646.00,-72.97 L646.50,-73.34 L647.00,-73.70 L647.50,-74.07 L648.00,-74.44" style="stroke-width: 3; stroke: rgb(245, 166, 35);"/><path d=" M0.00,786.00 L0.50,786.00 L1.00,786.00 L1.50,786.00 L2.00,786.00 L2.50,786.00 L3.00,786.00 L3.50,786.00 L4.00,786.00 L4.50,786.00 L5.00,786.00 L5.50,786.00 L6.00,786.00 L6.51,786.00 L7.01,786.00 L7.51,786.00 L8.01,786.00 L8.51,786.00 L9.01,786.00 L9.51,786.00 L10.01,786.00 L10.51,786.00 L11.01,786.00 L11.51,786.00 L12.01,786.00 L12.51,786.00 L13.01,786.00 L13.51,786.00 L14.01,786.00 L14.51,786.00 L15.01,786.00 L15.51,786.00 L16.01,786.00 L16.51,786.00 L17.01,786.00 L17.51,786.00 L18.01,786.00 L18.51,786.00 L19.01,786.00 L19.52,786.00 L20.02,786.00 L20.52,786.00 L21.02,786.00 L21.52,786.00 L22.02,786.00 L22.52,786.00 L23.02,786.00 L23.52,786.00 L24.02,786.00 L24.52,786.00 L25.02,786.00 L25.52,786.00 L26.02,786.00 L26.52,786.00 L27.02,786.00 L27.52,786.00 L28.02,786.00 L28.52,786.00 L29.02,786.00 L29.52,786.00 L30.02,786.00 L30.52,786.00 L31.02,786.00 L31.52,786.00 L32.02,786.00 L32.53,786.00 L33.03,786.00 L33.53,786.00 L34.03,786.00 L34.53,786.00 L35.03,786.00 L35.53,786.00 L36.03,786.00 L36.53,786.00 L37.03,786.00 L37.53,786.00 L38.03,786.00 L38.53,786.00 M39.03,-786.00 L39.53,-786.00 M39.53,-786.00 L39.53,-786.00 L40.03,-786.00 L40.53,-786.00 L41.03,-786.00 L41.53,-786.00 L42.03,-786.00 L42.53,-786.00 L43.03,-786.00 L43.53,-786.00 L44.03,-786.00 L44.53,-786.00 L45.03,-786.00 L45.54,-786.00 L46.04,-786.00 L46.54,-786.00 L47.04,-786.00 L47.54,-786.00 L48.04,-786.00 L48.54,-786.00 L49.04,-786.00 L49.54,-786.00 L50.04,-786.00 L50.54,-786.00 L51.04,-786.00 L51.54,-786.00 L52.04,-786.00 L52.54,-786.00 L53.04,-786.00 L53.54,-786.00 L54.04,-786.00 L54.54,-786.00 L55.04,-786.00 L55.54,-786.00 L56.04,-763.94 L56.54,-732.15 L57.04,-702.10 L57.54,-673.64 L58.04,-646.65 L58.55,-621.02 L59.05,-596.65 L59.55,-573.44 L60.05,-551.33 L60.55,-530.23 L61.05,-510.07 L61.55,-490.79 L62.05,-472.34 L62.55,-454.66 L63.05,-437.71 L63.55,-421.44 L64.05,-405.82 L64.55,-390.79 L65.05,-376.34 L65.55,-362.43 L66.05,-349.02 L66.55,-336.10 L67.05,-323.63 L67.55,-311.59 L68.05,-299.96 L68.55,-288.73 L69.05,-277.86 L69.55,-267.35 L70.05,-257.17 L70.55,-247.31 L71.05,-237.75 L71.56,-228.49 L72.06,-219.50 L72.56,-210.78 L73.06,-202.32 L73.56,-194.09 L74.06,-186.10 L74.56,-178.34 L75.06,-170.78 L75.56,-163.43 L76.06,-156.28 L76.56,-149.32 L77.06,-142.53 L77.56,-135.93 L78.06,-129.49 L78.56,-123.21 L79.06,-117.09 L79.56,-111.11 L80.06,-105.29 L80.56,-99.60 L81.06,-94.04 L81.56,-88.62 L82.06,-83.32 L82.56,-78.14 L83.06,-73.08 L83.56,-68.13 L84.06,-63.29 L84.57,-58.55 L85.07,-53.92 L85.57,-49.39 L86.07,-44.95 L86.57,-40.60 L87.07,-36.35 L87.57,-32.18 L88.07,-28.10 L88.57,-24.10 L89.07,-20.17 L89.57,-16.33 L90.07,-12.56 L90.57,-8.86 L91.07,-5.23 L91.57,-1.68 L92.07,1.81 L92.57,5.24 L93.07,8.61 L93.57,11.91 L94.07,15.15 L94.57,18.33 L95.07,21.46 L95.57,24.54 L96.07,27.56 L96.57,30.52 L97.07,33.44 L97.58,36.31 L98.08,39.12 L98.58,41.90 L99.08,44.62 L99.58,47.30 L100.08,49.94 L100.58,52.53 L101.08,55.09 L101.58,57.60 L102.08,60.07 L102.58,62.50 L103.08,64.90 L103.58,67.26 L104.08,69.58 L104.58,71.87 L105.08,74.12 L105.58,76.34 L106.08,78.53 L106.58,80.68 L107.08,82.81 L107.58,84.90 L108.08,86.96 L108.58,88.99 L109.08,91.00 L109.58,92.97 L110.08,94.92 L110.59,96.84 L111.09,98.73 L111.59,100.60 L112.09,102.44 L112.59,104.26 L113.09,106.05 L113.59,107.82 L114.09,109.57 L114.59,111.29 L115.09,112.99 L115.59,114.67 L116.09,116.32 L116.59,117.96 L117.09,119.57 L117.59,121.17 L118.09,122.74 L118.59,124.29 L119.09,125.83 L119.59,127.34 L120.09,128.84 L120.59,130.32 L121.09,131.78 L121.59,133.22 L122.09,134.65 L122.59,136.06 L123.09,137.45 L123.60,138.82 L124.10,140.18 L124.60,141.53 L125.10,142.85 L125.60,144.17 L126.10,145.46 L126.60,146.75 L127.10,148.01 L127.60,149.27 L128.10,150.51 L128.60,151.74 L129.10,152.95 L129.60,154.15 L130.10,155.33 L130.60,156.51 L131.10,157.67 L131.60,158.82 L132.10,159.95 L132.60,161.07 L133.10,162.19 L133.60,163.29 L134.10,164.38 L134.60,165.45 L135.10,166.52 L135.60,167.57 L136.11,168.62 L136.61,169.65 L137.11,170.67 L137.61,171.69 L138.11,172.69 L138.61,173.68 L139.11,174.66 L139.61,175.64 L140.11,176.60 L140.61,177.55 L141.11,178.50 L141.61,179.43 L142.11,180.36 L142.61,181.28 L143.11,182.18 L143.61,183.08 L144.11,183.98 L144.61,184.86 L145.11,185.73 L145.61,186.60 L146.11,187.46 L146.61,188.31 L147.11,189.15 L147.61,189.98 L148.11,190.81 L148.61,191.63 L149.12,192.44 L149.62,193.25 L150.12,194.05 L150.62,194.84 L151.12,195.62 L151.62,196.40 L152.12,197.17 L152.62,197.93 L153.12,198.68 L153.62,199.43 L154.12,200.18 L154.62,200.91 L155.12,201.64 L155.62,202.37 L156.12,203.09 L156.62,203.80 L157.12,204.50 L157.62,205.20 L158.12,205.90 L158.62,206.59 L159.12,207.27 L159.62,207.95 L160.12,208.62 L160.62,209.28 L161.12,209.94 L161.62,210.60 L162.13,211.25 L162.63,211.89 L163.13,212.53 L163.63,213.17 L164.13,213.79 L164.63,214.42 L165.13,215.04 L165.63,215.65 L166.13,216.26 L166.63,216.87 L167.13,217.47 L167.63,218.06 L168.13,218.65 L168.63,219.24 L169.13,219.82 L169.63,220.40 L170.13,220.97 L170.63,221.54 L171.13,222.10 L171.63,222.66 L172.13,223.22 L172.63,223.77 L173.13,224.32 L173.63,224.86 L174.13,225.40 L174.63,225.93 L175.14,226.47 L175.64,226.99 L176.14,227.52 L176.64,228.04 L177.14,228.55 L177.64,229.07 L178.14,229.57 L178.64,230.08 L179.14,230.58 L179.64,231.08 L180.14,231.57 L180.64,232.06 L181.14,232.55 L181.64,233.04 L182.14,233.52 L182.64,233.99 L183.14,234.47 L183.64,234.94 L184.14,235.41 L184.64,235.87 L185.14,236.33 L185.64,236.79 L186.14,237.25 L186.64,237.70 L187.14,238.15 L187.64,238.59 L188.15,239.04 L188.65,239.47 L189.15,239.91 L189.65,240.35 L190.15,240.78 L190.65,241.21 L191.15,241.63 L191.65,242.05 L192.15,242.47 L192.65,242.89 L193.15,243.31 L193.65,243.72 L194.15,244.13 L194.65,244.53 L195.15,244.94 L195.65,245.34 L196.15,245.74 L196.65,246.13 L197.15,246.53 L197.65,246.92 L198.15,247.31 L198.65,247.69 L199.15,248.08 L199.65,248.46 L200.15,248.84 L200.65,249.22 L201.16,249.59 L201.66,249.96 L202.16,250.33 L202.66,250.70 L203.16,251.07 L203.66,251.43 L204.16,251.79 L204.66,252.15 L205.16,252.51 L205.66,252.86 L206.16,253.21 L206.66,253.56 L207.16,253.91 L207.66,254.26 L208.16,254.60 L208.66,254.95 L209.16,255.29 L209.66,255.62 L210.16,255.96 L210.66,256.30 L211.16,256.63 L211.66,256.96 L212.16,257.29 L212.66,257.61 L213.16,257.94 L213.66,258.26 L214.17,258.58 L214.67,258.90 L215.17,259.22 L215.67,259.53 L216.17,259.85 L216.67,260.16 L217.17,260.47 L217.67,260.78 L218.17,261.09 L218.67,261.39 L219.17,261.69 L219.67,262.00 L220.17,262.30 L220.67,262.60 L221.17,262.89 L221.67,263.19 L222.17,263.48 L222.67,263.77 L223.17,264.06 L223.67,264.35 L224.17,264.64 L224.67,264.93 L225.17,265.21 L225.67,265.49 L226.17,265.77 L226.67,266.05 L227.18,266.33 L227.68,266.61 L228.18,266.88 L228.68,267.16 L229.18,267.43 L229.68,267.70 L230.18,267.97 L230.68,268.24 L231.18,268.51 L231.68,268.77 L232.18,269.04 L232.68,269.30 L233.18,269.56 L233.68,269.82 L234.18,270.08 L234.68,270.33 L235.18,270.59 L235.68,270.85 L236.18,271.10 L236.68,271.35 L237.18,271.60 L237.68,271.85 L238.18,272.10 L238.68,272.35 L239.18,272.59 L239.68,272.84 L240.19,273.08 L240.69,273.32 L241.19,273.56 L241.69,273.80 L242.19,274.04 L242.69,274.28 L243.19,274.52 L243.69,274.75 L244.19,274.99 L244.69,275.22 L245.19,275.45 L245.69,275.68 L246.19,275.91 L246.69,276.14 L247.19,276.37 L247.69,276.59 L248.19,276.82 L248.69,277.04 L249.19,277.26 L249.69,277.49 L250.19,277.71 L250.69,277.93 L251.19,278.15 L251.69,278.36 L252.19,278.58 L252.69,278.80 L253.20,279.01 L253.70,279.23 L254.20,279.44 L254.70,279.65 L255.20,279.86 L255.70,280.07 L256.20,280.28 L256.70,280.49 L257.20,280.69 L257.70,280.90 L258.20,281.11 L258.70,281.31 L259.20,281.51 L259.70,281.71 L260.20,281.92 L260.70,282.12 L261.20,282.32 L261.70,282.51 L262.20,282.71 L262.70,282.91 L263.20,283.11 L263.70,283.30 L264.20,283.50 L264.70,283.69 L265.20,283.88 L265.71,284.07 L266.21,284.26 L266.71,284.45 L267.21,284.64 L267.71,284.83 L268.21,285.02 L268.71,285.21 L269.21,285.39 L269.71,285.58 L270.21,285.76 L270.71,285.94 L271.21,286.13 L271.71,286.31 L272.21,286.49 L272.71,286.67 L273.21,286.85 L273.71,287.03 L274.21,287.21 L274.71,287.38 L275.21,287.56 L275.71,287.74 L276.21,287.91 L276.71,288.09 L277.21,288.26 L277.71,288.43 L278.21,288.61 L278.72,288.78 L279.22,288.95 L279.72,289.12 L280.22,289.29 L280.72,289.46 L281.22,289.62 L281.72,289.79 L282.22,289.96 L282.72,290.12 L283.22,290.29 L283.72,290.45 L284.22,290.62 L284.72,290.78 L285.22,290.94 L285.72,291.10 L286.22,291.27 L286.72,291.43 L287.22,291.59 L287.72,291.75 L288.22,291.90 L288.72,292.06 L289.22,292.22 L289.72,292.38 L290.22,292.53 L290.72,292.69 L291.22,292.84 L291.73,293.00 L292.23,293.15 L292.73,293.30 L293.23,293.46 L293.73,293.61 L294.23,293.76 L294.73,293.91 L295.23,294.06 L295.73,294.21 L296.23,294.36 L296.73,294.51 L297.23,294.66 L297.73,294.80 L298.23,294.95 L298.73,295.10 L299.23,295.24 L299.73,295.39 L300.23,295.53 L300.73,295.67 L301.23,295.82 L301.73,295.96 L302.23,296.10 L302.73,296.24 L303.23,296.38 L303.73,296.53 L304.23,296.67 L304.74,296.81 L305.24,296.94 L305.74,297.08 L306.24,297.22 L306.74,297.36 L307.24,297.50 L307.74,297.63 L308.24,297.77 L308.74,297.90 L309.24,298.04 L309.74,298.17 L310.24,298.31 L310.74,298.44 L311.24,298.57 L311.74,298.71 L312.24,298.84 L312.74,298.97 L313.24,299.10 L313.74,299.23 L314.24,299.36 L314.74,299.49 L315.24,299.62 L315.74,299.75 L316.24,299.88 L316.74,300.00 L317.24,300.13 L317.75,300.26 L318.25,300.38 L318.75,300.51 L319.25,300.64 L319.75,300.76 L320.25,300.89 L320.75,301.01 L321.25,301.13 L321.75,301.26 L322.25,301.38 L322.75,301.50 L323.25,301.62 L323.75,301.75 L324.25,301.87 L324.75,301.99 L325.25,302.11 L325.75,302.23 L326.25,302.35 L326.75,302.47 L327.25,302.58 L327.75,302.70 L328.25,302.82 L328.75,302.94 L329.25,303.05 L329.75,303.17 L330.25,303.29 L330.76,303.40 L331.26,303.52 L331.76,303.63 L332.26,303.75 L332.76,303.86 L333.26,303.98 L333.76,304.09 L334.26,304.20 L334.76,304.32 L335.26,304.43 L335.76,304.54 L336.26,304.65 L336.76,304.76 L337.26,304.87 L337.76,304.98 L338.26,305.09 L338.76,305.20 L339.26,305.31 L339.76,305.42 L340.26,305.53 L340.76,305.64 L341.26,305.75 L341.76,305.85 L342.26,305.96 L342.76,306.07 L343.26,306.17 L343.77,306.28 L344.27,306.39 L344.77,306.49 L345.27,306.60 L345.77,306.70 L346.27,306.81 L346.77,306.91 L347.27,307.01 L347.77,307.12 L348.27,307.22 L348.77,307.32 L349.27,307.42 L349.77,307.53 L350.27,307.63 L350.77,307.73 L351.27,307.83 L351.77,307.93 L352.27,308.03 L352.77,308.13 L353.27,308.23 L353.77,308.33 L354.27,308.43 L354.77,308.53 L355.27,308.63 L355.77,308.73 L356.27,308.82 L356.78,308.92 L357.28,309.02 L357.78,309.12 L358.28,309.21 L358.78,309.31 L359.28,309.40 L359.78,309.50 L360.28,309.60 L360.78,309.69 L361.28,309.79 L361.78,309.88 L362.28,309.97 L362.78,310.07 L363.28,310.16 L363.78,310.26 L364.28,310.35 L364.78,310.44 L365.28,310.53 L365.78,310.63 L366.28,310.72 L366.78,310.81 L367.28,310.90 L367.78,310.99 L368.28,311.08 L368.78,311.17 L369.28,311.27 L369.79,311.36 L370.29,311.45 L370.79,311.53 L371.29,311.62 L371.79,311.71 L372.29,311.80 L372.79,311.89 L373.29,311.98 L373.79,312.07 L374.29,312.15 L374.79,312.24 L375.29,312.33 L375.79,312.42 L376.29,312.50 L376.79,312.59 L377.29,312.67 L377.79,312.76 L378.29,312.85 L378.79,312.93 L379.29,313.02 L379.79,313.10 L380.29,313.19 L380.79,313.27 L381.29,313.35 L381.79,313.44 L382.29,313.52 L382.80,313.61 L383.30,313.69 L383.80,313.77 L384.30,313.85 L384.80,313.94 L385.30,314.02 L385.80,314.10 L386.30,314.18 L386.80,314.26 L387.30,314.34 L387.80,314.43 L388.30,314.51 L388.80,314.59 L389.30,314.67 L389.80,314.75 L390.30,314.83 L390.80,314.91 L391.30,314.99 L391.80,315.07 L392.30,315.14 L392.80,315.22 L393.30,315.30 L393.80,315.38 L394.30,315.46 L394.80,315.54 L395.31,315.61 L395.81,315.69 L396.31,315.77 L396.81,315.85 L397.31,315.92 L397.81,316.00 L398.31,316.07 L398.81,316.15 L399.31,316.23 L399.81,316.30 L400.31,316.38 L400.81,316.45 L401.31,316.53 L401.81,316.60 L402.31,316.68 L402.81,316.75 L403.31,316.83 L403.81,316.90 L404.31,316.97 L404.81,317.05 L405.31,317.12 L405.81,317.20 L406.31,317.27 L406.81,317.34 L407.31,317.41 L407.81,317.49 L408.32,317.56 L408.82,317.63 L409.32,317.70 L409.82,317.77 L410.32,317.85 L410.82,317.92 L411.32,317.99 L411.82,318.06 L412.32,318.13 L412.82,318.20 L413.32,318.27 L413.82,318.34 L414.32,318.41 L414.82,318.48 L415.32,318.55 L415.82,318.62 L416.32,318.69 L416.82,318.76 L417.32,318.83 L417.82,318.90 L418.32,318.96 L418.82,319.03 L419.32,319.10 L419.82,319.17 L420.32,319.24 L420.82,319.30 L421.33,319.37 L421.83,319.44 L422.33,319.51 L422.83,319.57 L423.33,319.64 L423.83,319.71 L424.33,319.77 L424.83,319.84 L425.33,319.90 L425.83,319.97 L426.33,320.04 L426.83,320.10 L427.33,320.17 L427.83,320.23 L428.33,320.30 L428.83,320.36 L429.33,320.43 L429.83,320.49 L430.33,320.56 L430.83,320.62 L431.33,320.68 L431.83,320.75 L432.33,320.81 L432.83,320.87 L433.33,320.94 L433.83,321.00 L434.34,321.06 L434.84,321.13 L435.34,321.19 L435.84,321.25 L436.34,321.31 L436.84,321.38 L437.34,321.44 L437.84,321.50 L438.34,321.56 L438.84,321.62 L439.34,321.69 L439.84,321.75 L440.34,321.81 L440.84,321.87 L441.34,321.93 L441.84,321.99 L442.34,322.05 L442.84,322.11 L443.34,322.17 L443.84,322.23 L444.34,322.29 L444.84,322.35 L445.34,322.41 L445.84,322.47 L446.34,322.53 L446.84,322.59 L447.35,322.65 L447.85,322.71 L448.35,322.77 L448.85,322.83 L449.35,322.88 L449.85,322.94 L450.35,323.00 L450.85,323.06 L451.35,323.12 L451.85,323.18 L452.35,323.23 L452.85,323.29 L453.35,323.35 L453.85,323.40 L454.35,323.46 L454.85,323.52 L455.35,323.58 L455.85,323.63 L456.35,323.69 L456.85,323.75 L457.35,323.80 L457.85,323.86 L458.35,323.91 L458.85,323.97 L459.35,324.03 L459.85,324.08 L460.36,324.14 L460.86,324.19 L461.36,324.25 L461.86,324.30 L462.36,324.36 L462.86,324.41 L463.36,324.47 L463.86,324.52 L464.36,324.58 L464.86,324.63 L465.36,324.69 L465.86,324.74 L466.36,324.79 L466.86,324.85 L467.36,324.90 L467.86,324.95 L468.36,325.01 L468.86,325.06 L469.36,325.11 L469.86,325.17 L470.36,325.22 L470.86,325.27 L471.36,325.33 L471.86,325.38 L472.36,325.43 L472.86,325.48 L473.37,325.54 L473.87,325.59 L474.37,325.64 L474.87,325.69 L475.37,325.74 L475.87,325.80 L476.37,325.85 L476.87,325.90 L477.37,325.95 L477.87,326.00 L478.37,326.05 L478.87,326.10 L479.37,326.15 L479.87,326.20 L480.37,326.25 L480.87,326.31 L481.37,326.36 L481.87,326.41 L482.37,326.46 L482.87,326.51 L483.37,326.56 L483.87,326.61 L484.37,326.66 L484.87,326.70 L485.37,326.75 L485.87,326.80 L486.38,326.85 L486.88,326.90 L487.38,326.95 L487.88,327.00 L488.38,327.05 L488.88,327.10 L489.38,327.15 L489.88,327.19 L490.38,327.24 L490.88,327.29 L491.38,327.34 L491.88,327.39 L492.38,327.44 L492.88,327.48 L493.38,327.53 L493.88,327.58 L494.38,327.63 L494.88,327.67 L495.38,327.72 L495.88,327.77 L496.38,327.82 L496.88,327.86 L497.38,327.91 L497.88,327.96 L498.38,328.00 L498.88,328.05 L499.39,328.10 L499.89,328.14 L500.39,328.19 L500.89,328.23 L501.39,328.28 L501.89,328.33 L502.39,328.37 L502.89,328.42 L503.39,328.46 L503.89,328.51 L504.39,328.56 L504.89,328.60 L505.39,328.65 L505.89,328.69 L506.39,328.74 L506.89,328.78 L507.39,328.83 L507.89,328.87 L508.39,328.92 L508.89,328.96 L509.39,329.01 L509.89,329.05 L510.39,329.09 L510.89,329.14 L511.39,329.18 L511.89,329.23 L512.40,329.27 L512.90,329.31 L513.40,329.36 L513.90,329.40 L514.40,329.45 L514.90,329.49 L515.40,329.53 L515.90,329.58 L516.40,329.62 L516.90,329.66 L517.40,329.71 L517.90,329.75 L518.40,329.79 L518.90,329.83 L519.40,329.88 L519.90,329.92 L520.40,329.96 L520.90,330.00 L521.40,330.05 L521.90,330.09 L522.40,330.13 L522.90,330.17 L523.40,330.22 L523.90,330.26 L524.40,330.30 L524.91,330.34 L525.41,330.38 L525.91,330.42 L526.41,330.47 L526.91,330.51 L527.41,330.55 L527.91,330.59 L528.41,330.63 L528.91,330.67 L529.41,330.71 L529.91,330.75 L530.41,330.79 L530.91,330.83 L531.41,330.88 L531.91,330.92 L532.41,330.96 L532.91,331.00 L533.41,331.04 L533.91,331.08 L534.41,331.12 L534.91,331.16 L535.41,331.20 L535.91,331.24 L536.41,331.28 L536.91,331.32 L537.41,331.36 L537.92,331.40 L538.42,331.44 L538.92,331.48 L539.42,331.51 L539.92,331.55 L540.42,331.59 L540.92,331.63 L541.42,331.67 L541.92,331.71 L542.42,331.75 L542.92,331.79 L543.42,331.83 L543.92,331.87 L544.42,331.90 L544.92,331.94 L545.42,331.98 L545.92,332.02 L546.42,332.06 L546.92,332.10 L547.42,332.13 L547.92,332.17 L548.42,332.21 L548.92,332.25 L549.42,332.29 L549.92,332.32 L550.42,332.36 L550.93,332.40 L551.43,332.44 L551.93,332.47 L552.43,332.51 L552.93,332.55 L553.43,332.59 L553.93,332.62 L554.43,332.66 L554.93,332.70 L555.43,332.73 L555.93,332.77 L556.43,332.81 L556.93,332.84 L557.43,332.88 L557.93,332.92 L558.43,332.95 L558.93,332.99 L559.43,333.03 L559.93,333.06 L560.43,333.10 L560.93,333.14 L561.43,333.17 L561.93,333.21 L562.43,333.24 L562.93,333.28 L563.43,333.32 L563.94,333.35 L564.44,333.39 L564.94,333.42 L565.44,333.46 L565.94,333.49 L566.44,333.53 L566.94,333.56 L567.44,333.60 L567.94,333.64 L568.44,333.67 L568.94,333.71 L569.44,333.74 L569.94,333.78 L570.44,333.81 L570.94,333.85 L571.44,333.88 L571.94,333.91 L572.44,333.95 L572.94,333.98 L573.44,334.02 L573.94,334.05 L574.44,334.09 L574.94,334.12 L575.44,334.16 L575.94,334.19 L576.44,334.22 L576.95,334.26 L577.45,334.29 L577.95,334.33 L578.45,334.36 L578.95,334.39 L579.45,334.43 L579.95,334.46 L580.45,334.50 L580.95,334.53 L581.45,334.56 L581.95,334.60 L582.45,334.63 L582.95,334.66 L583.45,334.70 L583.95,334.73 L584.45,334.76 L584.95,334.79 L585.45,334.83 L585.95,334.86 L586.45,334.89 L586.95,334.93 L587.45,334.96 L587.95,334.99 L588.45,335.02 L588.95,335.06 L589.45,335.09 L589.96,335.12 L590.46,335.15 L590.96,335.19 L591.46,335.22 L591.96,335.25 L592.46,335.28 L592.96,335.32 L593.46,335.35 L593.96,335.38 L594.46,335.41 L594.96,335.44 L595.46,335.48 L595.96,335.51 L596.46,335.54 L596.96,335.57 L597.46,335.60 L597.96,335.63 L598.46,335.67 L598.96,335.70 L599.46,335.73 L599.96,335.76 L600.46,335.79 L600.96,335.82 L601.46,335.85 L601.96,335.88 L602.46,335.92 L602.97,335.95 L603.47,335.98 L603.97,336.01 L604.47,336.04 L604.97,336.07 L605.47,336.10 L605.97,336.13 L606.47,336.16 L606.97,336.19 L607.47,336.22 L607.97,336.25 L608.47,336.28 L608.97,336.31 L609.47,336.34 L609.97,336.37 L610.47,336.40 L610.97,336.43 L611.47,336.47 L611.97,336.50 L612.47,336.53 L612.97,336.55 L613.47,336.58 L613.97,336.61 L614.47,336.64 L614.97,336.67 L615.47,336.70 L615.98,336.73 L616.48,336.76 L616.98,336.79 L617.48,336.82 L617.98,336.85 L618.48,336.88 L618.98,336.91 L619.48,336.94 L619.98,336.97 L620.48,337.00 L620.98,337.03 L621.48,337.06 L621.98,337.08 L622.48,337.11 L622.98,337.14 L623.48,337.17 L623.98,337.20 L624.48,337.23 L624.98,337.26 L625.48,337.29 L625.98,337.31 L626.48,337.34 L626.98,337.37 L627.48,337.40 L627.98,337.43 L628.48,337.46 L628.99,337.49 L629.49,337.51 L629.99,337.54 L630.49,337.57 L630.99,337.60 L631.49,337.63 L631.99,337.65 L632.49,337.68 L632.99,337.71 L633.49,337.74 L633.99,337.77 L634.49,337.79 L634.99,337.82 L635.49,337.85 L635.99,337.88 L636.49,337.90 L636.99,337.93 L637.49,337.96 L637.99,337.99 L638.49,338.01 L638.99,338.04 L639.49,338.07 L639.99,338.10 L640.49,338.12 L640.99,338.15 L641.49,338.18 L642.00,338.21 L642.50,338.23 L643.00,338.26 L643.50,338.29 L644.00,338.31 L644.50,338.34 L645.00,338.37 L645.50,338.39 L646.00,338.42 L646.50,338.45 L647.00,338.47 L647.50,338.50 L648.00,338.53" style="stroke-width: 3; stroke: rgb(74, 144, 226);"/></g><g style="font-family: Asana-Math, Asana;"><text text-anchor="middle" font-size="11" dominant-baseline="hanging" stroke="none" fill="#808080" x="120.77990922459931" y="377.8649618518992">1</text><text text-anchor="middle" font-size="11" dominant-baseline="hanging" stroke="none" fill="#808080" x="202.8799092245993" y="377.8649618518992">2</text><text text-anchor="middle" font-size="11" dominant-baseline="hanging" stroke="none" fill="#808080" x="284.9799092245993" y="377.8649618518992">3</text><text text-anchor="middle" font-size="11" dominant-baseline="hanging" stroke="none" fill="#808080" x="367.0799092245993" y="377.8649618518992">4</text><text text-anchor="middle" font-size="11" dominant-baseline="hanging" stroke="none" fill="#808080" x="449.1799092245993" y="377.8649618518992">5</text><text text-anchor="middle" font-size="11" dominant-baseline="hanging" stroke="none" fill="#808080" x="531.2799092245992" y="377.8649618518992">6</text><text text-anchor="middle" font-size="11" dominant-baseline="hanging" stroke="none" fill="#808080" x="613.3799092245993" y="377.8649618518992">7</text><text text-anchor="middle" font-size="11" dominant-baseline="hanging" stroke="none" fill="#808080" x="30.679909224599328" y="375.8649618518992">0</text></g><g style="font-family: Asana-Math, Asana;"><text text-anchor="end" dominant-baseline="middle" font-size="11" stroke="none" fill="#808080" x="30.679909224599328" y="310.8649618518992">200</text><text text-anchor="end" dominant-baseline="middle" font-size="11" stroke="none" fill="#808080" x="30.679909224599328" y="250.8649618518992">400</text><text text-anchor="end" dominant-baseline="middle" font-size="11" stroke="none" fill="#808080" x="30.679909224599328" y="190.86496185189918">600</text><text text-anchor="end" dominant-baseline="middle" font-size="11" stroke="none" fill="#808080" x="30.679909224599328" y="130.86496185189918">800</text><text text-anchor="end" dominant-baseline="middle" font-size="11" stroke="none" fill="#808080" x="30.679909224599328" y="70.86496185189918">1000</text><text text-anchor="end" dominant-baseline="middle" font-size="11" stroke="none" fill="#808080" x="30.679909224599328" y="10.864961851899238">1200</text></g><rect class="real" x="1" y="1" width="646" height="391" style="fill: transparent; stroke: none;"/></g></g></g><g class="arrow-line"><path class="connection real" stroke-dasharray="" d="  M41,287 L216,287" style="stroke: rgb(0, 0, 0); stroke-width: 1; fill: none;"/></g><g class="arrow-line"><path class="connection real" stroke-dasharray="" d="  M216,287 L216,417" style="stroke: rgb(0, 0, 0); stroke-width: 1; fill: none;"/><g stroke="#000" fill="#000" transform="matrix(6.123233995736766e-17,1,-1,6.123233995736766e-17,216,287)" style="stroke: rgb(0, 0, 0); fill: rgb(0, 0, 0); stroke-width: 1;"><circle cx="0" cy="0" r="3.35"/></g></g><g/></g><g/><g/><!-- react-empty: 1607 --></svg>
        <svg xmlns="http://www.w3.org/2000/svg" width="660" height="439" style="width:660px;height:439px;font-family:Asana-Math, Asana;background:#FFF;"><g><g><g style="transform:matrix(1,0,0,1,117.1875,64.6640625);"><path d="M316 -3C388 -3 437 8 489 34C645 114 741 265 741 431C741 529 711 599 650 642C604 675 519 693 424 692L220 689L210 689C201 689 198 689 97 692L94 664L147 662C171 661 182 653 182 635C182 621 178 589 173 559L86 55C81 31 56 29 33 23L28 -3L121 0L176 0C211 0 282 -3 316 -3ZM384 655C566 655 649 579 649 415C649 225 549 41 329 41C285 41 236 46 168 56C168 68 169 75 172 93L268 650C291 650 349 655 384 655Z" stroke="rgb(0, 0, 0)" stroke-width="8" fill="rgb(0, 0, 0)" style="transform:matrix(0.017,0,0,-0.017,0,0);"></path></g><g><g><g><g style="transform:matrix(1,0,0,1,131.375,58.2359375);"><path d="M168 267L37 213L32 204L68 153L78 153L184 241L202 99L212 95L280 121L280 131L212 253L350 233L359 241L359 303L353 307L214 283L283 408L280 423L218 442L209 438L183 295L88 393L78 393L34 341L37 331Z" stroke="rgb(0, 0, 0)" stroke-width="8" fill="rgb(0, 0, 0)" style="transform:matrix(0.0119,0,0,-0.0119,0,0);"></path></g></g></g></g><g style="transform:matrix(1,0,0,1,137.015625,64.6640625);"><path d="M146 266C146 526 243 632 301 700L282 726C225 675 60 542 60 266C60 159 85 58 133 -32C168 -99 200 -138 282 -215L301 -194C255 -137 146 -15 146 266Z" stroke="rgb(0, 0, 0)" stroke-width="8" fill="rgb(0, 0, 0)" style="transform:matrix(0.017,0,0,-0.017,0,0);"></path></g><g style="transform:matrix(1,0,0,1,142.671875,64.6640625);"><path d="M176 -11C232 -11 347 62 390 125C431 186 465 296 465 371C465 438 442 482 406 482C364 482 311 456 259 409C218 374 198 348 162 289L186 408C189 425 191 440 191 452C191 471 183 482 169 482C148 482 110 461 36 408L8 388L15 368L47 389C75 407 86 412 95 412C105 412 112 403 112 389C112 381 110 361 108 351L50 8C40 -52 21 -143 1 -233L-7 -270L0 -276C21 -269 41 -264 73 -259L115 3C136 -4 158 -11 176 -11ZM143 165C165 293 272 424 355 424C381 424 393 402 393 356C393 275 353 156 300 80C280 51 248 36 207 36C176 36 151 43 125 59Z" stroke="rgb(0, 0, 0)" stroke-width="8" fill="rgb(0, 0, 0)" style="transform:matrix(0.017,0,0,-0.017,0,0);"></path></g><g style="transform:matrix(1,0,0,1,151.15625,64.6640625);"><path d="M51 726L32 700C87 636 187 526 187 266C187 -10 83 -131 32 -194L51 -215C104 -165 273 -23 273 265C273 542 108 675 51 726Z" stroke="rgb(0, 0, 0)" stroke-width="8" fill="rgb(0, 0, 0)" style="transform:matrix(0.017,0,0,-0.017,0,0);"></path></g></g></g><g><g><g style="transform:matrix(1,0,0,1,500.078125,103.6640625);"><path d="M108 471C108 386 146 339 230 319L325 296C379 283 406 248 406 191C406 96 335 30 232 30C178 30 140 42 96 73L96 172L66 172C60 117 53 72 42 20C91 -5 144 -18 197 -18C352 -18 485 99 485 234C485 313 442 355 341 377L276 391C210 405 180 442 180 508C180 595 247 658 339 658C388 658 421 645 451 613L451 537L481 537C485 591 492 629 506 672C461 696 421 706 374 706C250 706 108 614 108 471Z" stroke="rgb(0, 0, 0)" stroke-width="8" fill="rgb(0, 0, 0)" style="transform:matrix(0.017,0,0,-0.017,0,0);"></path></g><g><g><g><g style="transform:matrix(1,0,0,1,510.484375,97.2359375);"><path d="M168 267L37 213L32 204L68 153L78 153L184 241L202 99L212 95L280 121L280 131L212 253L350 233L359 241L359 303L353 307L214 283L283 408L280 423L218 442L209 438L183 295L88 393L78 393L34 341L37 331Z" stroke="rgb(0, 0, 0)" stroke-width="8" fill="rgb(0, 0, 0)" style="transform:matrix(0.0119,0,0,-0.0119,0,0);"></path></g></g></g></g><g style="transform:matrix(1,0,0,1,516.125,103.6640625);"><path d="M146 266C146 526 243 632 301 700L282 726C225 675 60 542 60 266C60 159 85 58 133 -32C168 -99 200 -138 282 -215L301 -194C255 -137 146 -15 146 266Z" stroke="rgb(0, 0, 0)" stroke-width="8" fill="rgb(0, 0, 0)" style="transform:matrix(0.017,0,0,-0.017,0,0);"></path></g><g style="transform:matrix(1,0,0,1,521.78125,103.6640625);"><path d="M176 -11C232 -11 347 62 390 125C431 186 465 296 465 371C465 438 442 482 406 482C364 482 311 456 259 409C218 374 198 348 162 289L186 408C189 425 191 440 191 452C191 471 183 482 169 482C148 482 110 461 36 408L8 388L15 368L47 389C75 407 86 412 95 412C105 412 112 403 112 389C112 381 110 361 108 351L50 8C40 -52 21 -143 1 -233L-7 -270L0 -276C21 -269 41 -264 73 -259L115 3C136 -4 158 -11 176 -11ZM143 165C165 293 272 424 355 424C381 424 393 402 393 356C393 275 353 156 300 80C280 51 248 36 207 36C176 36 151 43 125 59Z" stroke="rgb(0, 0, 0)" stroke-width="8" fill="rgb(0, 0, 0)" style="transform:matrix(0.017,0,0,-0.017,0,0);"></path></g><g style="transform:matrix(1,0,0,1,530.265625,103.6640625);"><path d="M51 726L32 700C87 636 187 526 187 266C187 -10 83 -131 32 -194L51 -215C104 -165 273 -23 273 265C273 542 108 675 51 726Z" stroke="rgb(0, 0, 0)" stroke-width="8" fill="rgb(0, 0, 0)" style="transform:matrix(0.017,0,0,-0.017,0,0);"></path></g></g></g><g><g><g style="transform:matrix(1,0,0,1,643.78125,428);"><path d="M176 -11C232 -11 347 62 390 125C431 186 465 296 465 371C465 438 442 482 406 482C364 482 311 456 259 409C218 374 198 348 162 289L186 408C189 425 191 440 191 452C191 471 183 482 169 482C148 482 110 461 36 408L8 388L15 368L47 389C75 407 86 412 95 412C105 412 112 403 112 389C112 381 110 361 108 351L50 8C40 -52 21 -143 1 -233L-7 -270L0 -276C21 -269 41 -264 73 -259L115 3C136 -4 158 -11 176 -11ZM143 165C165 293 272 424 355 424C381 424 393 402 393 356C393 275 353 156 300 80C280 51 248 36 207 36C176 36 151 43 125 59Z" stroke="rgb(0, 0, 0)" stroke-width="8" fill="rgb(0, 0, 0)" style="transform:matrix(0.017,0,0,-0.017,0,0);"></path></g></g></g><g><g><g style="transform:matrix(1,0,0,1,48.78125,23);"><path d="M385 458C342 475 313 482 284 482C209 482 121 394 103 374C63 327 24 181 24 78C24 19 36 -11 60 -11C82 -11 101 -3 133 19C180 51 259 121 308 209L232 -205C227 -229 217 -249 205 -262L214 -276C245 -268 276 -262 300 -259C304 -205 310 -150 319 -100L405 356C416 417 422 443 432 474L418 480ZM118 59C104 59 96 80 96 113C96 209 139 359 181 409C193 424 222 433 254 433C282 433 303 427 351 406L330 311C301 174 160 59 118 59Z" stroke="rgb(0, 0, 0)" stroke-width="8" fill="rgb(0, 0, 0)" style="transform:matrix(0.017,0,0,-0.017,0,0);"></path></g></g></g><g><g><g><svg x="241.546875" style="overflow:visible;" y="272" height="24" width="8.5"><path d=" M 6.61 1.70 q 0.00 -0.08 -0.08 -0.08 q -0.03 0.00 -0.08 0.02 q -1.01 0.55 -1.75 1.30 t -1.37 1.87 t -0.95 2.78 t -0.33 3.79 v 0.62 h 1.68 v -0.62 q 0.00 -1.20 0.04 -2.08 t 0.22 -2.04 t 0.50 -2.03 t 0.91 -1.74 t 1.43 -1.49 q 0.12 -0.09 0.12 -0.29 z   M 0.90 12.00 v 0.00 h 1.68 v 0.00 z" style="fill:rgb(0, 0, 0);stroke-width:1px;stroke:none;"></path><path d=" M 6.61 22.30 q 0.00 0.08 -0.08 0.08 q -0.03 0.00 -0.08 -0.02 q -1.01 -0.55 -1.75 -1.30 t -1.37 -1.87 t -0.95 -2.78 t -0.33 -3.79 v -0.62 h 1.68 v 0.62 q 0.00 1.20 0.04 2.08 t 0.22 2.04 t 0.50 2.03 t 0.91 1.74 t 1.43 1.49 q 0.12 0.09 0.12 0.29 z" style="fill:rgb(0, 0, 0);stroke-width:1px;stroke:none;"></path></svg></g><g style="transform:matrix(1,0,0,1,248.359375,290);"><path d="M176 -11C232 -11 347 62 390 125C431 186 465 296 465 371C465 438 442 482 406 482C364 482 311 456 259 409C218 374 198 348 162 289L186 408C189 425 191 440 191 452C191 471 183 482 169 482C148 482 110 461 36 408L8 388L15 368L47 389C75 407 86 412 95 412C105 412 112 403 112 389C112 381 110 361 108 351L50 8C40 -52 21 -143 1 -233L-7 -270L0 -276C21 -269 41 -264 73 -259L115 3C136 -4 158 -11 176 -11ZM143 165C165 293 272 424 355 424C381 424 393 402 393 356C393 275 353 156 300 80C280 51 248 36 207 36C176 36 151 43 125 59Z" stroke="rgb(0, 0, 0)" stroke-width="8" fill="rgb(0, 0, 0)" style="transform:matrix(0.017,0,0,-0.017,0,0);"></path></g><g><g><g><g style="transform:matrix(1,0,0,1,257.8125,283.571875);"><path d="M168 267L37 213L32 204L68 153L78 153L184 241L202 99L212 95L280 121L280 131L212 253L350 233L359 241L359 303L353 307L214 283L283 408L280 423L218 442L209 438L183 295L88 393L78 393L34 341L37 331Z" stroke="rgb(0, 0, 0)" stroke-width="8" fill="rgb(0, 0, 0)" style="transform:matrix(0.0119,0,0,-0.0119,0,0);"></path></g></g></g></g><g style="transform:matrix(1,0,0,1,263.453125,290);"><path d="M204 123C177 114 159 108 106 93C99 17 74 -48 16 -144L30 -155L71 -136C152 -31 190 32 218 109Z" stroke="rgb(0, 0, 0)" stroke-width="8" fill="rgb(0, 0, 0)" style="transform:matrix(0.017,0,0,-0.017,0,0);"></path></g><g style="transform:matrix(1,0,0,1,271.078125,290);"><path d="M385 458C342 475 313 482 284 482C209 482 121 394 103 374C63 327 24 181 24 78C24 19 36 -11 60 -11C82 -11 101 -3 133 19C180 51 259 121 308 209L232 -205C227 -229 217 -249 205 -262L214 -276C245 -268 276 -262 300 -259C304 -205 310 -150 319 -100L405 356C416 417 422 443 432 474L418 480ZM118 59C104 59 96 80 96 113C96 209 139 359 181 409C193 424 222 433 254 433C282 433 303 427 351 406L330 311C301 174 160 59 118 59Z" stroke="rgb(0, 0, 0)" stroke-width="8" fill="rgb(0, 0, 0)" style="transform:matrix(0.017,0,0,-0.017,0,0);"></path></g><g><g><g><g style="transform:matrix(1,0,0,1,279.90625,283.571875);"><path d="M168 267L37 213L32 204L68 153L78 153L184 241L202 99L212 95L280 121L280 131L212 253L350 233L359 241L359 303L353 307L214 283L283 408L280 423L218 442L209 438L183 295L88 393L78 393L34 341L37 331Z" stroke="rgb(0, 0, 0)" stroke-width="8" fill="rgb(0, 0, 0)" style="transform:matrix(0.0119,0,0,-0.0119,0,0);"></path></g></g></g></g><g><svg x="283.859375" style="overflow:visible;" y="272" height="24" width="8.5"><path d=" M 1.69 1.70 q 0.00 -0.08 0.08 -0.08 q 0.03 0.00 0.08 0.02 q 1.01 0.55 1.75 1.30 t 1.37 1.87 t 0.95 2.78 t 0.33 3.79 v 0.62 h -1.68 v -0.62 q 0.00 -1.20 -0.04 -2.08 t -0.22 -2.04 t -0.50 -2.03 t -0.91 -1.74 t -1.43 -1.49 q -0.12 -0.09 -0.12 -0.29 z  M 7.40 12.00 v 0.00 h -1.68 v 0.00 z" style="fill:rgb(0, 0, 0);stroke-width:1px;stroke:none;"></path><path d=" M 1.69 22.30 q 0.00 0.08 0.08 0.08 q 0.03 0.00 0.08 -0.02 q 1.01 -0.55 1.75 -1.30 t 1.37 -1.87 t 0.95 -2.78 t 0.33 -3.79 v -0.62 h -1.68 v 0.62 q 0.00 1.20 -0.04 2.08 t -0.22 2.04 t -0.50 2.03 t -0.91 1.74 t -1.43 1.49 q -0.12 0.09 -0.12 0.29 z" style="fill:rgb(0, 0, 0);stroke-width:1px;stroke:none;"></path></svg></g><g style="transform:matrix(1,0,0,1,298.640625,290);"><path d="M604 347L604 406L65 406L65 347ZM604 134L604 193L65 193L65 134Z" stroke="rgb(0, 0, 0)" stroke-width="8" fill="rgb(0, 0, 0)" style="transform:matrix(0.017,0,0,-0.017,0,0);"></path></g><g style="transform:matrix(1,0,0,1,315.09375,290);"><path d="M146 266C146 526 243 632 301 700L282 726C225 675 60 542 60 266C60 159 85 58 133 -32C168 -99 200 -138 282 -215L301 -194C255 -137 146 -15 146 266Z" stroke="rgb(0, 0, 0)" stroke-width="8" fill="rgb(0, 0, 0)" style="transform:matrix(0.017,0,0,-0.017,0,0);"></path></g><g style="transform:matrix(1,0,0,1,320.75,290);"><path d="M16 23L16 -3C203 -3 203 0 239 0C275 0 275 -3 468 -3L468 82C353 77 307 81 122 77L304 270C401 373 431 428 431 503C431 618 353 689 226 689C154 689 105 669 56 619L39 483L68 483L81 529C97 587 133 612 200 612C286 612 341 558 341 473C341 398 299 324 186 204Z" stroke="rgb(0, 0, 0)" stroke-width="8" fill="rgb(0, 0, 0)" style="transform:matrix(0.017,0,0,-0.017,0,0);"></path></g><g style="transform:matrix(1,0,0,1,329.234375,290);"><path d="M204 123C177 114 159 108 106 93C99 17 74 -48 16 -144L30 -155L71 -136C152 -31 190 32 218 109Z" stroke="rgb(0, 0, 0)" stroke-width="8" fill="rgb(0, 0, 0)" style="transform:matrix(0.017,0,0,-0.017,0,0);"></path></g><g style="transform:matrix(1,0,0,1,336.859375,290);"><path d="M280 181L280 106C280 46 269 32 220 30L158 27L158 -3C291 0 291 0 315 0C339 0 339 0 472 -3L472 27L424 30C375 33 364 46 364 106L364 181C423 181 444 180 472 177L472 248L364 245L365 697L285 667L2 204L2 181ZM280 245L65 245L280 597ZM762 689C607 689 528 566 528 324C528 207 549 106 584 57C619 8 675 -20 737 -20C888 -20 964 110 964 366C964 585 899 689 762 689ZM744 654C841 654 880 556 880 316C880 103 842 15 750 15C653 15 612 116 612 360C612 571 649 654 744 654ZM1261 689C1106 689 1027 566 1027 324C1027 207 1048 106 1083 57C1118 8 1174 -20 1236 -20C1387 -20 1463 110 1463 366C1463 585 1398 689 1261 689ZM1243 654C1340 654 1379 556 1379 316C1379 103 1341 15 1249 15C1152 15 1111 116 1111 360C1111 571 1148 654 1243 654Z" stroke="rgb(0, 0, 0)" stroke-width="8" fill="rgb(0, 0, 0)" style="transform:matrix(0.017,0,0,-0.017,0,0);"></path></g><g style="transform:matrix(1,0,0,1,362.3125,290);"><path d="M51 726L32 700C87 636 187 526 187 266C187 -10 83 -131 32 -194L51 -215C104 -165 273 -23 273 265C273 542 108 675 51 726Z" stroke="rgb(0, 0, 0)" stroke-width="8" fill="rgb(0, 0, 0)" style="transform:matrix(0.017,0,0,-0.017,0,0);"></path></g></g></g></svg>
</svg>
