<svg xmlns="http://www.w3.org/2000/svg" width="439" height="487" style="
        width:439px;
        height:487px;
        background: #FFF;
        fill: none;
">
        <svg xmlns="http://www.w3.org/2000/svg"/>
        <svg xmlns="http://www.w3.org/2000/svg" class="role-diagram-draw-area"><g class="shapes-region" style="stroke: black; fill: none;"><g class="composite-shape" data-amt="diagram/shapes/plot" style="transform: matrix(1, 0, 0, 1, -2, 11);"><defs><clipPath id="dp19976853108670767"><rect x="1" y="1" width="433" height="469.98237560951725"/></clipPath></defs><g><g clip-path="url(#dp19976853108670767)"><g style="font-family: Asana-Math, Asana;"><line x1="0" y1="449.84733746141643" x2="434.5" y2="449.84733746141643" fill="none" stroke="#000" stroke-width="0.5"/><line x1="104.67990922459933" y1="445.84733746141643" x2="104.67990922459933" y2="453.84733746141643" fill="none" stroke="#000" stroke-width="0.5"/><line x1="171.67990922459936" y1="445.84733746141643" x2="171.67990922459936" y2="453.84733746141643" fill="none" stroke="#000" stroke-width="0.5"/><line x1="238.67990922459936" y1="445.84733746141643" x2="238.67990922459936" y2="453.84733746141643" fill="none" stroke="#000" stroke-width="0.5"/><line x1="305.6799092245994" y1="445.84733746141643" x2="305.6799092245994" y2="453.84733746141643" fill="none" stroke="#000" stroke-width="0.5"/><line x1="372.6799092245994" y1="445.84733746141643" x2="372.6799092245994" y2="453.84733746141643" fill="none" stroke="#000" stroke-width="0.5"/><path d="M429.5,445.84733746141643 L433.5,449.84733746141643 L429.5,453.84733746141643" stroke="#000" stroke-width="0.5"/></g><g style="font-family: Asana-Math, Asana;"><line x1="37.67990922459933" y1="0.5" x2="37.67990922459933" y2="471.98237560951725" fill="none" stroke="#000" stroke-width="0.5"/><line x1="33.67990922459933" y1="349.84733746141643" x2="41.67990922459933" y2="349.84733746141643" fill="none" stroke="#000" stroke-width="0.5"/><line x1="33.67990922459933" y1="249.84733746141643" x2="41.67990922459933" y2="249.84733746141643" fill="none" stroke="#000" stroke-width="0.5"/><line x1="33.67990922459933" y1="149.84733746141643" x2="41.67990922459933" y2="149.84733746141643" fill="none" stroke="#000" stroke-width="0.5"/><line x1="33.67990922459933" y1="49.84733746141643" x2="41.67990922459933" y2="49.84733746141643" fill="none" stroke="#000" stroke-width="0.5"/><path d="M33.67990922459933,5.5 L37.67990922459933,1.5 L41.67990922459933,5.5" stroke="#000" stroke-width="0.5"/></g><g><path d=" M0.00,943.96 L0.50,943.96 L1.00,943.96 L1.50,943.96 L2.00,943.96 L2.50,943.96 L3.00,943.96 L3.50,943.96 L4.00,943.96 L4.51,943.96 L5.01,943.96 L5.51,943.96 L6.01,943.96 L6.51,943.96 L7.01,943.96 L7.51,943.96 L8.01,943.96 L8.51,943.96 L9.01,943.96 L9.51,943.96 L10.01,943.96 L10.51,943.96 L11.01,943.96 L11.51,943.96 L12.01,943.96 L12.51,943.96 L13.01,943.96 L13.52,943.96 L14.02,943.96 L14.52,943.96 L15.02,943.96 L15.52,943.96 L16.02,943.96 L16.52,943.96 L17.02,943.96 L17.52,943.96 L18.02,943.96 L18.52,943.96 L19.02,943.96 L19.52,943.96 L20.02,943.96 L20.52,943.96 L21.02,943.96 L21.52,943.96 L22.03,943.96 L22.53,943.96 L23.03,943.96 L23.53,943.96 L24.03,943.96 L24.53,943.96 L25.03,943.96 L25.53,943.96 L26.03,943.96 L26.53,943.96 L27.03,943.96 L27.53,943.96 L28.03,943.96 L28.53,943.96 L29.03,943.96 L29.53,943.96 L30.03,943.96 L30.54,943.96 L31.04,943.96 L31.54,943.96 L32.04,943.96 L32.54,943.96 L33.04,943.96 L33.54,943.96 L34.04,943.96 L34.54,943.96 L35.04,943.96 L35.54,943.96 L36.04,943.96 L36.54,943.96 L37.04,943.96 L37.54,943.96 M38.04,449.85 L38.54,449.84 L39.04,449.84 L39.55,449.83 L40.05,449.82 L40.55,449.80 L41.05,449.78 L41.55,449.76 L42.05,449.74 L42.55,449.72 L43.05,449.69 L43.55,449.66 L44.05,449.62 L44.55,449.58 L45.05,449.54 L45.55,449.50 L46.05,449.46 L46.55,449.41 L47.05,449.36 L47.55,449.30 L48.06,449.25 L48.56,449.19 L49.06,449.13 L49.56,449.06 L50.06,448.99 L50.56,448.92 L51.06,448.85 L51.56,448.77 L52.06,448.70 L52.56,448.61 L53.06,448.53 L53.56,448.44 L54.06,448.35 L54.56,448.26 L55.06,448.16 L55.56,448.07 L56.06,447.97 L56.57,447.86 L57.07,447.75 L57.57,447.64 L58.07,447.53 L58.57,447.42 L59.07,447.30 L59.57,447.18 L60.07,447.06 L60.57,446.93 L61.07,446.80 L61.57,446.67 L62.07,446.53 L62.57,446.40 L63.07,446.26 L63.57,446.11 L64.07,445.97 L64.57,445.82 L65.07,445.67 L65.58,445.51 L66.08,445.36 L66.58,445.20 L67.08,445.03 L67.58,444.87 L68.08,444.70 L68.58,444.53 L69.08,444.36 L69.58,444.18 L70.08,444.00 L70.58,443.82 L71.08,443.63 L71.58,443.45 L72.08,443.26 L72.58,443.06 L73.08,442.87 L73.58,442.67 L74.09,442.47 L74.59,442.26 L75.09,442.05 L75.59,441.84 L76.09,441.63 L76.59,441.42 L77.09,441.20 L77.59,440.98 L78.09,440.75 L78.59,440.53 L79.09,440.30 L79.59,440.06 L80.09,439.83 L80.59,439.59 L81.09,439.35 L81.59,439.11 L82.09,438.86 L82.59,438.61 L83.10,438.36 L83.60,438.11 L84.10,437.85 L84.60,437.59 L85.10,437.33 L85.60,437.06 L86.10,436.79 L86.60,436.52 L87.10,436.25 L87.60,435.97 L88.10,435.69 L88.60,435.41 L89.10,435.12 L89.60,434.83 L90.10,434.54 L90.60,434.25 L91.10,433.95 L91.61,433.65 L92.11,433.35 L92.61,433.05 L93.11,432.74 L93.61,432.43 L94.11,432.11 L94.61,431.80 L95.11,431.48 L95.61,431.16 L96.11,430.83 L96.61,430.51 L97.11,430.18 L97.61,429.84 L98.11,429.51 L98.61,429.17 L99.11,428.83 L99.61,428.48 L100.12,428.14 L100.62,427.79 L101.12,427.44 L101.62,427.08 L102.12,426.72 L102.62,426.36 L103.12,426.00 L103.62,425.63 L104.12,425.26 L104.62,424.89 L105.12,424.52 L105.62,424.14 L106.12,423.76 L106.62,423.38 L107.12,422.99 L107.62,422.60 L108.12,422.21 L108.62,421.82 L109.13,421.42 L109.63,421.02 L110.13,420.62 L110.63,420.21 L111.13,419.80 L111.63,419.39 L112.13,418.98 L112.63,418.56 L113.13,418.14 L113.63,417.72 L114.13,417.30 L114.63,416.87 L115.13,416.44 L115.63,416.01 L116.13,415.57 L116.63,415.13 L117.13,414.69 L117.64,414.24 L118.14,413.80 L118.64,413.35 L119.14,412.89 L119.64,412.44 L120.14,411.98 L120.64,411.52 L121.14,411.06 L121.64,410.59 L122.14,410.12 L122.64,409.65 L123.14,409.17 L123.64,408.69 L124.14,408.21 L124.64,407.73 L125.14,407.24 L125.64,406.75 L126.14,406.26 L126.65,405.77 L127.15,405.27 L127.65,404.77 L128.15,404.27 L128.65,403.76 L129.15,403.25 L129.65,402.74 L130.15,402.23 L130.65,401.71 L131.15,401.19 L131.65,400.67 L132.15,400.14 L132.65,399.61 L133.15,399.08 L133.65,398.55 L134.15,398.01 L134.65,397.47 L135.16,396.93 L135.66,396.39 L136.16,395.84 L136.66,395.29 L137.16,394.74 L137.66,394.18 L138.16,393.62 L138.66,393.06 L139.16,392.49 L139.66,391.93 L140.16,391.36 L140.66,390.78 L141.16,390.21 L141.66,389.63 L142.16,389.05 L142.66,388.47 L143.16,387.88 L143.67,387.29 L144.17,386.70 L144.67,386.10 L145.17,385.50 L145.67,384.90 L146.17,384.30 L146.67,383.69 L147.17,383.08 L147.67,382.47 L148.17,381.86 L148.67,381.24 L149.17,380.62 L149.67,380.00 L150.17,379.37 L150.67,378.74 L151.17,378.11 L151.67,377.48 L152.17,376.84 L152.68,376.20 L153.18,375.56 L153.68,374.91 L154.18,374.26 L154.68,373.61 L155.18,372.96 L155.68,372.30 L156.18,371.64 L156.68,370.98 L157.18,370.32 L157.68,369.65 L158.18,368.98 L158.68,368.31 L159.18,367.63 L159.68,366.95 L160.18,366.27 L160.68,365.58 L161.19,364.90 L161.69,364.21 L162.19,363.51 L162.69,362.82 L163.19,362.12 L163.69,361.42 L164.19,360.72 L164.69,360.01 L165.19,359.30 L165.69,358.59 L166.19,357.87 L166.69,357.15 L167.19,356.43 L167.69,355.71 L168.19,354.98 L168.69,354.25 L169.19,353.52 L169.70,352.79 L170.20,352.05 L170.70,351.31 L171.20,350.57 L171.70,349.82 L172.20,349.07 L172.70,348.32 L173.20,347.57 L173.70,346.81 L174.20,346.05 L174.70,345.29 L175.20,344.52 L175.70,343.75 L176.20,342.98 L176.70,342.21 L177.20,341.43 L177.70,340.65 L178.20,339.87 L178.71,339.09 L179.21,338.30 L179.71,337.51 L180.21,336.72 L180.71,335.92 L181.21,335.12 L181.71,334.32 L182.21,333.51 L182.71,332.71 L183.21,331.90 L183.71,331.08 L184.21,330.27 L184.71,329.45 L185.21,328.63 L185.71,327.80 L186.21,326.98 L186.71,326.15 L187.22,325.32 L187.72,324.48 L188.22,323.64 L188.72,322.80 L189.22,321.96 L189.72,321.11 L190.22,320.26 L190.72,319.41 L191.22,318.56 L191.72,317.70 L192.22,316.84 L192.72,315.98 L193.22,315.11 L193.72,314.24 L194.22,313.37 L194.72,312.50 L195.22,311.62 L195.72,310.74 L196.23,309.86 L196.73,308.97 L197.23,308.08 L197.73,307.19 L198.23,306.30 L198.73,305.40 L199.23,304.50 L199.73,303.60 L200.23,302.70 L200.73,301.79 L201.23,300.88 L201.73,299.96 L202.23,299.05 L202.73,298.13 L203.23,297.21 L203.73,296.28 L204.23,295.36 L204.74,294.43 L205.24,293.49 L205.74,292.56 L206.24,291.62 L206.74,290.68 L207.24,289.73 L207.74,288.79 L208.24,287.84 L208.74,286.88 L209.24,285.93 L209.74,284.97 L210.24,284.01 L210.74,283.05 L211.24,282.08 L211.74,281.11 L212.24,280.14 L212.74,279.17 L213.25,278.19 L213.75,277.21 L214.25,276.22 L214.75,275.24 L215.25,274.25 L215.75,273.26 L216.25,272.26 L216.75,271.27 L217.25,270.27 L217.75,269.27 L218.25,268.26 L218.75,267.25 L219.25,266.24 L219.75,265.23 L220.25,264.21 L220.75,263.19 L221.25,262.17 L221.75,261.14 L222.26,260.12 L222.76,259.09 L223.26,258.05 L223.76,257.02 L224.26,255.98 L224.76,254.94 L225.26,253.89 L225.76,252.84 L226.26,251.79 L226.76,250.74 L227.26,249.69 L227.76,248.63 L228.26,247.57 L228.76,246.50 L229.26,245.43 L229.76,244.37 L230.26,243.29 L230.77,242.22 L231.27,241.14 L231.77,240.06 L232.27,238.98 L232.77,237.89 L233.27,236.80 L233.77,235.71 L234.27,234.61 L234.77,233.52 L235.27,232.42 L235.77,231.31 L236.27,230.21 L236.77,229.10 L237.27,227.99 L237.77,226.87 L238.27,225.76 L238.77,224.64 L239.28,223.51 L239.78,222.39 L240.28,221.26 L240.78,220.13 L241.28,218.99 L241.78,217.86 L242.28,216.72 L242.78,215.58 L243.28,214.43 L243.78,213.28 L244.28,212.13 L244.78,210.98 L245.28,209.82 L245.78,208.67 L246.28,207.50 L246.78,206.34 L247.28,205.17 L247.78,204.00 L248.29,202.83 L248.79,201.65 L249.29,200.47 L249.79,199.29 L250.29,198.11 L250.79,196.92 L251.29,195.73 L251.79,194.54 L252.29,193.35 L252.79,192.15 L253.29,190.95 L253.79,189.74 L254.29,188.54 L254.79,187.33 L255.29,186.12 L255.79,184.90 L256.29,183.68 L256.80,182.46 L257.30,181.24 L257.80,180.01 L258.30,178.79 L258.80,177.55 L259.30,176.32 L259.80,175.08 L260.30,173.84 L260.80,172.60 L261.30,171.35 L261.80,170.11 L262.30,168.86 L262.80,167.60 L263.30,166.35 L263.80,165.09 L264.30,163.82 L264.80,162.56 L265.30,161.29 L265.81,160.02 L266.31,158.75 L266.81,157.47 L267.31,156.19 L267.81,154.91 L268.31,153.63 L268.81,152.34 L269.31,151.05 L269.81,149.76 L270.31,148.46 L270.81,147.16 L271.31,145.86 L271.81,144.56 L272.31,143.25 L272.81,141.94 L273.31,140.63 L273.81,139.31 L274.32,137.99 L274.82,136.67 L275.32,135.35 L275.82,134.02 L276.32,132.69 L276.82,131.36 L277.32,130.03 L277.82,128.69 L278.32,127.35 L278.82,126.01 L279.32,124.66 L279.82,123.31 L280.32,121.96 L280.82,120.61 L281.32,119.25 L281.82,117.89 L282.32,116.53 L282.83,115.16 L283.33,113.79 L283.83,112.42 L284.33,111.05 L284.83,109.67 L285.33,108.29 L285.83,106.91 L286.33,105.53 L286.83,104.14 L287.33,102.75 L287.83,101.35 L288.33,99.96 L288.83,98.56 L289.33,97.16 L289.83,95.75 L290.33,94.35 L290.83,92.94 L291.33,91.52 L291.84,90.11 L292.34,88.69 L292.84,87.27 L293.34,85.84 L293.84,84.42 L294.34,82.99 L294.84,81.55 L295.34,80.12 L295.84,78.68 L296.34,77.24 L296.84,75.80 L297.34,74.35 L297.84,72.90 L298.34,71.45 L298.84,69.99 L299.34,68.54 L299.84,67.08 L300.35,65.61 L300.85,64.15 L301.35,62.68 L301.85,61.21 L302.35,59.73 L302.85,58.26 L303.35,56.78 L303.85,55.29 L304.35,53.81 L304.85,52.32 L305.35,50.83 L305.85,49.33 L306.35,47.84 L306.85,46.34 L307.35,44.84 L307.85,43.33 L308.35,41.82 L308.86,40.31 L309.36,38.80 L309.86,37.28 L310.36,35.76 L310.86,34.24 L311.36,32.72 L311.86,31.19 L312.36,29.66 L312.86,28.13 L313.36,26.59 L313.86,25.05 L314.36,23.51 L314.86,21.97 L315.36,20.42 L315.86,18.87 L316.36,17.32 L316.86,15.76 L317.36,14.21 L317.87,12.65 L318.37,11.08 L318.87,9.52 L319.37,7.95 L319.87,6.37 L320.37,4.80 L320.87,3.22 L321.37,1.64 L321.87,0.06 L322.37,-1.53 L322.87,-3.12 L323.37,-4.71 L323.87,-6.30 L324.37,-7.90 L324.87,-9.50 L325.37,-11.10 L325.87,-12.71 L326.38,-14.31 L326.88,-15.93 L327.38,-17.54 L327.88,-19.16 L328.38,-20.78 L328.88,-22.40 L329.38,-24.02 L329.88,-25.65 L330.38,-27.28 L330.88,-28.91 L331.38,-30.55 L331.88,-32.19 L332.38,-33.83 L332.88,-35.48 L333.38,-37.12 L333.88,-38.77 L334.38,-40.43 L334.88,-42.08 L335.39,-43.74 L335.89,-45.40 L336.39,-47.07 L336.89,-48.73 L337.39,-50.40 L337.89,-52.07 L338.39,-53.75 L338.89,-55.43 L339.39,-57.11 L339.89,-58.79 L340.39,-60.48 L340.89,-62.17 L341.39,-63.86 L341.89,-65.55 L342.39,-67.25 L342.89,-68.95 L343.39,-70.66 L343.90,-72.36 L344.40,-74.07 L344.90,-75.78 L345.40,-77.50 L345.90,-79.21 L346.40,-80.93 L346.90,-82.66 L347.40,-84.38 L347.90,-86.11 L348.40,-87.84 L348.90,-89.57 L349.40,-91.31 L349.90,-93.05 L350.40,-94.79 L350.90,-96.54 L351.40,-98.29 L351.90,-100.04 L352.41,-101.79 L352.91,-103.55 L353.41,-105.30 L353.91,-107.07 L354.41,-108.83 L354.91,-110.60 L355.41,-112.37 L355.91,-114.14 L356.41,-115.92 L356.91,-117.70 L357.41,-119.48 L357.91,-121.26 L358.41,-123.05 L358.91,-124.84 L359.41,-126.63 L359.91,-128.43 L360.41,-130.22 L360.91,-132.02 L361.42,-133.83 L361.92,-135.63 L362.42,-137.44 L362.92,-139.26 L363.42,-141.07 L363.92,-142.89 L364.42,-144.71 L364.92,-146.53 L365.42,-148.36 L365.92,-150.19 L366.42,-152.02 L366.92,-153.85 L367.42,-155.69 L367.92,-157.53 L368.42,-159.37 L368.92,-161.22 L369.42,-163.07 L369.93,-164.92 L370.43,-166.77 L370.93,-168.63 L371.43,-170.49 L371.93,-172.35 L372.43,-174.21 L372.93,-176.08 L373.43,-177.95 L373.93,-179.83 L374.43,-181.70 L374.93,-183.58 L375.43,-185.46 L375.93,-187.35 L376.43,-189.23 L376.93,-191.12 L377.43,-193.02 L377.93,-194.91 L378.43,-196.81 L378.94,-198.71 L379.44,-200.62 L379.94,-202.52 L380.44,-204.43 L380.94,-206.35 L381.44,-208.26 L381.94,-210.18 L382.44,-212.10 L382.94,-214.02 L383.44,-215.95 L383.94,-217.88 L384.44,-219.81 L384.94,-221.75 L385.44,-223.68 L385.94,-225.62 L386.44,-227.57 L386.94,-229.51 L387.45,-231.46 L387.95,-233.41 L388.45,-235.37 L388.95,-237.32 L389.45,-239.28 L389.95,-241.25 L390.45,-243.21 L390.95,-245.18 L391.45,-247.15 L391.95,-249.13 L392.45,-251.10 L392.95,-253.08 L393.45,-255.06 L393.95,-257.05 L394.45,-259.04 L394.95,-261.03 L395.45,-263.02 L395.96,-265.02 L396.46,-267.02 L396.96,-269.02 L397.46,-271.02 L397.96,-273.03 L398.46,-275.04 L398.96,-277.05 L399.46,-279.07 L399.96,-281.09 L400.46,-283.11 L400.96,-285.13 L401.46,-287.16 L401.96,-289.19 L402.46,-291.22 L402.96,-293.26 L403.46,-295.30 L403.96,-297.34 L404.46,-299.38 L404.97,-301.43 L405.47,-303.48 L405.97,-305.53 L406.47,-307.58 L406.97,-309.64 L407.47,-311.70 L407.97,-313.76 L408.47,-315.83 L408.97,-317.90 L409.47,-319.97 L409.97,-322.04 L410.47,-324.12 L410.97,-326.20 L411.47,-328.28 L411.97,-330.37 L412.47,-332.46 L412.97,-334.55 L413.48,-336.64 L413.98,-338.74 L414.48,-340.84 L414.98,-342.94 L415.48,-345.05 L415.98,-347.15 L416.48,-349.26 L416.98,-351.38 L417.48,-353.49 L417.98,-355.61 L418.48,-357.73 L418.98,-359.86 L419.48,-361.99 L419.98,-364.12 L420.48,-366.25 L420.98,-368.39 L421.48,-370.52 L421.99,-372.67 L422.49,-374.81 L422.99,-376.96 L423.49,-379.11 L423.99,-381.26 L424.49,-383.41 L424.99,-385.57 L425.49,-387.73 L425.99,-389.90 L426.49,-392.06 L426.99,-394.23 L427.49,-396.40 L427.99,-398.58 L428.49,-400.76 L428.99,-402.94 L429.49,-405.12 L429.99,-407.31 L430.49,-409.50 L431.00,-411.69 L431.50,-413.88 L432.00,-416.08 L432.50,-418.28 L433.00,-420.48 L433.50,-422.69 L434.00,-424.89 L434.50,-427.11 L435.00,-429.32" style="stroke-width: 3; stroke: rgba(245, 166, 35, 0.6);"/><path d=" M0.00,943.96 L0.50,943.96 L1.00,943.96 L1.50,943.96 L2.00,943.96 L2.50,943.96 L3.00,943.96 L3.50,943.96 L4.00,943.96 L4.51,943.96 L5.01,943.96 L5.51,943.96 L6.01,943.96 L6.51,943.96 L7.01,943.96 L7.51,943.96 L8.01,943.96 L8.51,943.96 L9.01,943.96 L9.51,943.96 L10.01,943.96 L10.51,943.96 L11.01,943.96 L11.51,943.96 L12.01,943.96 L12.51,943.96 L13.01,943.96 L13.52,943.96 L14.02,943.96 L14.52,943.96 L15.02,943.96 L15.52,943.96 L16.02,943.96 L16.52,943.96 L17.02,943.96 L17.52,943.96 L18.02,943.96 L18.52,943.96 L19.02,943.96 L19.52,943.96 L20.02,943.96 L20.52,943.96 L21.02,943.96 L21.52,943.96 L22.03,943.96 L22.53,943.96 L23.03,943.96 L23.53,943.96 L24.03,943.96 L24.53,943.96 L25.03,943.96 L25.53,943.96 L26.03,943.96 L26.53,943.96 L27.03,943.96 L27.53,943.96 L28.03,943.96 L28.53,943.96 L29.03,943.96 L29.53,943.96 L30.03,943.96 L30.54,943.96 L31.04,943.96 L31.54,943.96 L32.04,943.96 L32.54,943.96 L33.04,943.96 L33.54,943.96 L34.04,943.96 L34.54,943.96 L35.04,943.96 L35.54,943.96 L36.04,943.96 L36.54,943.96 L37.04,943.96 L37.54,943.96 M38.04,-943.96 L38.54,-943.96 M38.54,-943.96 L38.54,-943.96 L39.04,-943.96 L39.55,-943.96 L40.05,-943.96 L40.55,-943.96 L41.05,-943.96 L41.55,-943.96 L42.05,-943.96 L42.55,-943.96 L43.05,-943.96 L43.55,-943.96 L44.05,-943.96 L44.55,-943.96 L45.05,-943.96 L45.55,-943.96 L46.05,-943.96 L46.55,-943.96 L47.05,-943.96 L47.55,-907.15 L48.06,-841.68 L48.56,-782.23 L49.06,-728.02 L49.56,-678.38 L50.06,-632.75 L50.56,-590.67 L51.06,-551.74 L51.56,-515.62 L52.06,-482.01 L52.56,-450.66 L53.06,-421.35 L53.56,-393.89 L54.06,-368.11 L54.56,-343.86 L55.06,-321.00 L55.56,-299.43 L56.06,-279.03 L56.57,-259.71 L57.07,-241.38 L57.57,-223.98 L58.07,-207.44 L58.57,-191.69 L59.07,-176.67 L59.57,-162.34 L60.07,-148.66 L60.57,-135.57 L61.07,-123.04 L61.57,-111.04 L62.07,-99.53 L62.57,-88.48 L63.07,-77.87 L63.57,-67.66 L64.07,-57.85 L64.57,-48.40 L65.07,-39.29 L65.58,-30.52 L66.08,-22.05 L66.58,-13.87 L67.08,-5.98 L67.58,1.65 L68.08,9.03 L68.58,16.18 L69.08,23.09 L69.58,29.79 L70.08,36.28 L70.58,42.57 L71.08,48.67 L71.58,54.59 L72.08,60.35 L72.58,65.93 L73.08,71.36 L73.58,76.64 L74.09,81.77 L74.59,86.76 L75.09,91.62 L75.59,96.35 L76.09,100.96 L76.59,105.45 L77.09,109.82 L77.59,114.09 L78.09,118.25 L78.59,122.30 L79.09,126.26 L79.59,130.13 L80.09,133.90 L80.59,137.59 L81.09,141.19 L81.59,144.70 L82.09,148.14 L82.59,151.51 L83.10,154.79 L83.60,158.01 L84.10,161.16 L84.60,164.24 L85.10,167.25 L85.60,170.21 L86.10,173.10 L86.60,175.93 L87.10,178.70 L87.60,181.42 L88.10,184.09 L88.60,186.70 L89.10,189.26 L89.60,191.77 L90.10,194.24 L90.60,196.66 L91.10,199.03 L91.61,201.36 L92.11,203.64 L92.61,205.89 L93.11,208.09 L93.61,210.25 L94.11,212.38 L94.61,214.47 L95.11,216.52 L95.61,218.53 L96.11,220.52 L96.61,222.46 L97.11,224.38 L97.61,226.26 L98.11,228.11 L98.61,229.94 L99.11,231.73 L99.61,233.49 L100.12,235.22 L100.62,236.93 L101.12,238.61 L101.62,240.27 L102.12,241.89 L102.62,243.50 L103.12,245.08 L103.62,246.63 L104.12,248.16 L104.62,249.67 L105.12,251.15 L105.62,252.62 L106.12,254.06 L106.62,255.48 L107.12,256.88 L107.62,258.26 L108.12,259.63 L108.62,260.97 L109.13,262.29 L109.63,263.60 L110.13,264.88 L110.63,266.15 L111.13,267.40 L111.63,268.64 L112.13,269.86 L112.63,271.06 L113.13,272.25 L113.63,273.42 L114.13,274.57 L114.63,275.71 L115.13,276.84 L115.63,277.95 L116.13,279.05 L116.63,280.13 L117.13,281.20 L117.64,282.25 L118.14,283.30 L118.64,284.33 L119.14,285.34 L119.64,286.35 L120.14,287.34 L120.64,288.32 L121.14,289.29 L121.64,290.25 L122.14,291.19 L122.64,292.13 L123.14,293.05 L123.64,293.96 L124.14,294.87 L124.64,295.76 L125.14,296.64 L125.64,297.51 L126.14,298.38 L126.65,299.23 L127.15,300.07 L127.65,300.90 L128.15,301.73 L128.65,302.54 L129.15,303.35 L129.65,304.15 L130.15,304.93 L130.65,305.72 L131.15,306.49 L131.65,307.25 L132.15,308.01 L132.65,308.75 L133.15,309.49 L133.65,310.23 L134.15,310.95 L134.65,311.67 L135.16,312.38 L135.66,313.08 L136.16,313.77 L136.66,314.46 L137.16,315.14 L137.66,315.82 L138.16,316.49 L138.66,317.15 L139.16,317.80 L139.66,318.45 L140.16,319.09 L140.66,319.73 L141.16,320.36 L141.66,320.98 L142.16,321.60 L142.66,322.21 L143.16,322.81 L143.67,323.41 L144.17,324.01 L144.67,324.60 L145.17,325.18 L145.67,325.76 L146.17,326.33 L146.67,326.90 L147.17,327.46 L147.67,328.02 L148.17,328.57 L148.67,329.12 L149.17,329.66 L149.67,330.20 L150.17,330.73 L150.67,331.26 L151.17,331.78 L151.67,332.30 L152.17,332.81 L152.68,333.32 L153.18,333.83 L153.68,334.33 L154.18,334.82 L154.68,335.32 L155.18,335.80 L155.68,336.29 L156.18,336.77 L156.68,337.24 L157.18,337.71 L157.68,338.18 L158.18,338.65 L158.68,339.11 L159.18,339.56 L159.68,340.01 L160.18,340.46 L160.68,340.91 L161.19,341.35 L161.69,341.79 L162.19,342.22 L162.69,342.65 L163.19,343.08 L163.69,343.51 L164.19,343.93 L164.69,344.34 L165.19,344.76 L165.69,345.17 L166.19,345.58 L166.69,345.98 L167.19,346.38 L167.69,346.78 L168.19,347.18 L168.69,347.57 L169.19,347.96 L169.70,348.34 L170.20,348.73 L170.70,349.11 L171.20,349.49 L171.70,349.86 L172.20,350.23 L172.70,350.60 L173.20,350.97 L173.70,351.33 L174.20,351.69 L174.70,352.05 L175.20,352.41 L175.70,352.76 L176.20,353.11 L176.70,353.46 L177.20,353.81 L177.70,354.15 L178.20,354.49 L178.71,354.83 L179.21,355.17 L179.71,355.50 L180.21,355.83 L180.71,356.16 L181.21,356.49 L181.71,356.81 L182.21,357.13 L182.71,357.45 L183.21,357.77 L183.71,358.09 L184.21,358.40 L184.71,358.71 L185.21,359.02 L185.71,359.33 L186.21,359.63 L186.71,359.94 L187.22,360.24 L187.72,360.54 L188.22,360.83 L188.72,361.13 L189.22,361.42 L189.72,361.71 L190.22,362.00 L190.72,362.29 L191.22,362.57 L191.72,362.86 L192.22,363.14 L192.72,363.42 L193.22,363.70 L193.72,363.97 L194.22,364.25 L194.72,364.52 L195.22,364.79 L195.72,365.06 L196.23,365.33 L196.73,365.60 L197.23,365.86 L197.73,366.12 L198.23,366.38 L198.73,366.64 L199.23,366.90 L199.73,367.16 L200.23,367.41 L200.73,367.66 L201.23,367.92 L201.73,368.17 L202.23,368.41 L202.73,368.66 L203.23,368.91 L203.73,369.15 L204.23,369.39 L204.74,369.63 L205.24,369.87 L205.74,370.11 L206.24,370.35 L206.74,370.58 L207.24,370.82 L207.74,371.05 L208.24,371.28 L208.74,371.51 L209.24,371.74 L209.74,371.97 L210.24,372.19 L210.74,372.42 L211.24,372.64 L211.74,372.86 L212.24,373.08 L212.74,373.30 L213.25,373.52 L213.75,373.74 L214.25,373.96 L214.75,374.17 L215.25,374.38 L215.75,374.60 L216.25,374.81 L216.75,375.02 L217.25,375.22 L217.75,375.43 L218.25,375.64 L218.75,375.84 L219.25,376.05 L219.75,376.25 L220.25,376.45 L220.75,376.65 L221.25,376.85 L221.75,377.05 L222.26,377.25 L222.76,377.44 L223.26,377.64 L223.76,377.83 L224.26,378.03 L224.76,378.22 L225.26,378.41 L225.76,378.60 L226.26,378.79 L226.76,378.98 L227.26,379.17 L227.76,379.35 L228.26,379.54 L228.76,379.72 L229.26,379.90 L229.76,380.09 L230.26,380.27 L230.77,380.45 L231.27,380.63 L231.77,380.81 L232.27,380.98 L232.77,381.16 L233.27,381.34 L233.77,381.51 L234.27,381.68 L234.77,381.86 L235.27,382.03 L235.77,382.20 L236.27,382.37 L236.77,382.54 L237.27,382.71 L237.77,382.88 L238.27,383.05 L238.77,383.21 L239.28,383.38 L239.78,383.54 L240.28,383.71 L240.78,383.87 L241.28,384.03 L241.78,384.19 L242.28,384.35 L242.78,384.51 L243.28,384.67 L243.78,384.83 L244.28,384.99 L244.78,385.14 L245.28,385.30 L245.78,385.46 L246.28,385.61 L246.78,385.76 L247.28,385.92 L247.78,386.07 L248.29,386.22 L248.79,386.37 L249.29,386.52 L249.79,386.67 L250.29,386.82 L250.79,386.97 L251.29,387.12 L251.79,387.26 L252.29,387.41 L252.79,387.55 L253.29,387.70 L253.79,387.84 L254.29,387.99 L254.79,388.13 L255.29,388.27 L255.79,388.41 L256.29,388.55 L256.80,388.69 L257.30,388.83 L257.80,388.97 L258.30,389.11 L258.80,389.25 L259.30,389.38 L259.80,389.52 L260.30,389.65 L260.80,389.79 L261.30,389.92 L261.80,390.06 L262.30,390.19 L262.80,390.32 L263.30,390.46 L263.80,390.59 L264.30,390.72 L264.80,390.85 L265.30,390.98 L265.81,391.11 L266.31,391.24 L266.81,391.36 L267.31,391.49 L267.81,391.62 L268.31,391.75 L268.81,391.87 L269.31,392.00 L269.81,392.12 L270.31,392.25 L270.81,392.37 L271.31,392.49 L271.81,392.61 L272.31,392.74 L272.81,392.86 L273.31,392.98 L273.81,393.10 L274.32,393.22 L274.82,393.34 L275.32,393.46 L275.82,393.58 L276.32,393.70 L276.82,393.81 L277.32,393.93 L277.82,394.05 L278.32,394.16 L278.82,394.28 L279.32,394.39 L279.82,394.51 L280.32,394.62 L280.82,394.74 L281.32,394.85 L281.82,394.96 L282.32,395.07 L282.83,395.19 L283.33,395.30 L283.83,395.41 L284.33,395.52 L284.83,395.63 L285.33,395.74 L285.83,395.85 L286.33,395.96 L286.83,396.06 L287.33,396.17 L287.83,396.28 L288.33,396.39 L288.83,396.49 L289.33,396.60 L289.83,396.71 L290.33,396.81 L290.83,396.92 L291.33,397.02 L291.84,397.12 L292.34,397.23 L292.84,397.33 L293.34,397.43 L293.84,397.54 L294.34,397.64 L294.84,397.74 L295.34,397.84 L295.84,397.94 L296.34,398.04 L296.84,398.14 L297.34,398.24 L297.84,398.34 L298.34,398.44 L298.84,398.54 L299.34,398.64 L299.84,398.73 L300.35,398.83 L300.85,398.93 L301.35,399.03 L301.85,399.12 L302.35,399.22 L302.85,399.31 L303.35,399.41 L303.85,399.50 L304.35,399.60 L304.85,399.69 L305.35,399.79 L305.85,399.88 L306.35,399.97 L306.85,400.07 L307.35,400.16 L307.85,400.25 L308.35,400.34 L308.86,400.43 L309.36,400.52 L309.86,400.61 L310.36,400.70 L310.86,400.79 L311.36,400.88 L311.86,400.97 L312.36,401.06 L312.86,401.15 L313.36,401.24 L313.86,401.33 L314.36,401.42 L314.86,401.50 L315.36,401.59 L315.86,401.68 L316.36,401.76 L316.86,401.85 L317.36,401.94 L317.87,402.02 L318.37,402.11 L318.87,402.19 L319.37,402.28 L319.87,402.36 L320.37,402.45 L320.87,402.53 L321.37,402.61 L321.87,402.70 L322.37,402.78 L322.87,402.86 L323.37,402.94 L323.87,403.03 L324.37,403.11 L324.87,403.19 L325.37,403.27 L325.87,403.35 L326.38,403.43 L326.88,403.51 L327.38,403.59 L327.88,403.67 L328.38,403.75 L328.88,403.83 L329.38,403.91 L329.88,403.99 L330.38,404.07 L330.88,404.14 L331.38,404.22 L331.88,404.30 L332.38,404.38 L332.88,404.45 L333.38,404.53 L333.88,404.61 L334.38,404.68 L334.88,404.76 L335.39,404.84 L335.89,404.91 L336.39,404.99 L336.89,405.06 L337.39,405.14 L337.89,405.21 L338.39,405.29 L338.89,405.36 L339.39,405.43 L339.89,405.51 L340.39,405.58 L340.89,405.65 L341.39,405.73 L341.89,405.80 L342.39,405.87 L342.89,405.94 L343.39,406.02 L343.90,406.09 L344.40,406.16 L344.90,406.23 L345.40,406.30 L345.90,406.37 L346.40,406.44 L346.90,406.51 L347.40,406.58 L347.90,406.65 L348.40,406.72 L348.90,406.79 L349.40,406.86 L349.90,406.93 L350.40,407.00 L350.90,407.07 L351.40,407.13 L351.90,407.20 L352.41,407.27 L352.91,407.34 L353.41,407.41 L353.91,407.47 L354.41,407.54 L354.91,407.61 L355.41,407.67 L355.91,407.74 L356.41,407.81 L356.91,407.87 L357.41,407.94 L357.91,408.00 L358.41,408.07 L358.91,408.13 L359.41,408.20 L359.91,408.26 L360.41,408.33 L360.91,408.39 L361.42,408.46 L361.92,408.52 L362.42,408.58 L362.92,408.65 L363.42,408.71 L363.92,408.77 L364.42,408.84 L364.92,408.90 L365.42,408.96 L365.92,409.02 L366.42,409.09 L366.92,409.15 L367.42,409.21 L367.92,409.27 L368.42,409.33 L368.92,409.39 L369.42,409.45 L369.93,409.52 L370.43,409.58 L370.93,409.64 L371.43,409.70 L371.93,409.76 L372.43,409.82 L372.93,409.88 L373.43,409.94 L373.93,410.00 L374.43,410.06 L374.93,410.11 L375.43,410.17 L375.93,410.23 L376.43,410.29 L376.93,410.35 L377.43,410.41 L377.93,410.47 L378.43,410.52 L378.94,410.58 L379.44,410.64 L379.94,410.70 L380.44,410.75 L380.94,410.81 L381.44,410.87 L381.94,410.92 L382.44,410.98 L382.94,411.04 L383.44,411.09 L383.94,411.15 L384.44,411.20 L384.94,411.26 L385.44,411.32 L385.94,411.37 L386.44,411.43 L386.94,411.48 L387.45,411.54 L387.95,411.59 L388.45,411.65 L388.95,411.70 L389.45,411.75 L389.95,411.81 L390.45,411.86 L390.95,411.92 L391.45,411.97 L391.95,412.02 L392.45,412.08 L392.95,412.13 L393.45,412.18 L393.95,412.24 L394.45,412.29 L394.95,412.34 L395.45,412.39 L395.96,412.45 L396.46,412.50 L396.96,412.55 L397.46,412.60 L397.96,412.65 L398.46,412.71 L398.96,412.76 L399.46,412.81 L399.96,412.86 L400.46,412.91 L400.96,412.96 L401.46,413.01 L401.96,413.06 L402.46,413.11 L402.96,413.16 L403.46,413.21 L403.96,413.26 L404.46,413.31 L404.97,413.36 L405.47,413.41 L405.97,413.46 L406.47,413.51 L406.97,413.56 L407.47,413.61 L407.97,413.66 L408.47,413.71 L408.97,413.76 L409.47,413.81 L409.97,413.85 L410.47,413.90 L410.97,413.95 L411.47,414.00 L411.97,414.05 L412.47,414.09 L412.97,414.14 L413.48,414.19 L413.98,414.24 L414.48,414.28 L414.98,414.33 L415.48,414.38 L415.98,414.43 L416.48,414.47 L416.98,414.52 L417.48,414.57 L417.98,414.61 L418.48,414.66 L418.98,414.70 L419.48,414.75 L419.98,414.80 L420.48,414.84 L420.98,414.89 L421.48,414.93 L421.99,414.98 L422.49,415.02 L422.99,415.07 L423.49,415.11 L423.99,415.16 L424.49,415.20 L424.99,415.25 L425.49,415.29 L425.99,415.34 L426.49,415.38 L426.99,415.43 L427.49,415.47 L427.99,415.52 L428.49,415.56 L428.99,415.60 L429.49,415.65 L429.99,415.69 L430.49,415.73 L431.00,415.78 L431.50,415.82 L432.00,415.86 L432.50,415.91 L433.00,415.95 L433.50,415.99 L434.00,416.04 L434.50,416.08 L435.00,416.12" style="stroke-width: 3; stroke: rgba(74, 144, 226, 0.42);"/><path d=" M0.00,943.96 L0.50,943.96 L1.00,943.96 L1.50,943.96 L2.00,943.96 L2.50,943.96 L3.00,943.96 L3.50,943.96 L4.00,943.96 L4.51,943.96 L5.01,943.96 L5.51,943.96 L6.01,943.96 L6.51,943.96 L7.01,943.96 L7.51,943.96 L8.01,943.96 L8.51,943.96 L9.01,943.96 L9.51,943.96 L10.01,943.96 L10.51,943.96 L11.01,943.96 L11.51,943.96 L12.01,943.96 L12.51,943.96 L13.01,943.96 L13.52,943.96 L14.02,943.96 L14.52,943.96 L15.02,943.96 L15.52,943.96 L16.02,943.96 L16.52,943.96 L17.02,943.96 L17.52,943.96 L18.02,943.96 L18.52,943.96 L19.02,943.96 L19.52,943.96 L20.02,943.96 L20.52,943.96 L21.02,943.96 L21.52,943.96 L22.03,943.96 L22.53,943.96 L23.03,943.96 L23.53,943.96 L24.03,943.96 L24.53,943.96 L25.03,943.96 L25.53,943.96 L26.03,943.96 L26.53,943.96 L27.03,943.96 L27.53,943.96 L28.03,943.96 L28.53,943.96 L29.03,943.96 L29.53,943.96 L30.03,943.96 L30.54,943.96 L31.04,943.96 L31.54,943.96 L32.04,943.96 L32.54,943.96 L33.04,943.96 L33.54,943.96 L34.04,943.96 L34.54,943.96 L35.04,943.96 L35.54,943.96 L36.04,943.96 L36.54,943.96 L37.04,943.96 L37.54,943.96 M38.04,-943.96 L38.54,-943.96 M38.54,-943.96 L38.54,-943.96 L39.04,-943.96 L39.55,-943.96 L40.05,-943.96 L40.55,-943.96 L41.05,-943.96 L41.55,-943.96 L42.05,-943.96 L42.55,-926.25 L43.05,-797.98 L43.55,-691.58 L44.05,-601.91 L44.55,-525.31 L45.05,-459.11 L45.55,-401.34 L46.05,-350.47 L46.55,-305.35 L47.05,-265.05 L47.55,-228.83 L48.06,-196.12 L48.56,-166.41 L49.06,-139.33 L49.56,-114.53 L50.06,-91.74 L50.56,-70.72 L51.06,-51.28 L51.56,-33.24 L52.06,-16.46 L52.56,-0.82 L53.06,13.81 L53.56,27.51 L54.06,40.37 L54.56,52.46 L55.06,63.86 L55.56,74.62 L56.06,84.78 L56.57,94.41 L57.07,103.53 L57.57,112.20 L58.07,120.43 L58.57,128.27 L59.07,135.74 L59.57,142.86 L60.07,149.66 L60.57,156.17 L61.07,162.39 L61.57,168.35 L62.07,174.06 L62.57,179.53 L63.07,184.79 L63.57,189.85 L64.07,194.71 L64.57,199.38 L65.07,203.88 L65.58,208.22 L66.08,212.40 L66.58,216.44 L67.08,220.33 L67.58,224.09 L68.08,227.73 L68.58,231.24 L69.08,234.64 L69.58,237.93 L70.08,241.11 L70.58,244.20 L71.08,247.19 L71.58,250.09 L72.08,252.90 L72.58,255.63 L73.08,258.28 L73.58,260.85 L74.09,263.35 L74.59,265.78 L75.09,268.14 L75.59,270.43 L76.09,272.66 L76.59,274.84 L77.09,276.95 L77.59,279.01 L78.09,281.01 L78.59,282.97 L79.09,284.87 L79.59,286.73 L80.09,288.53 L80.59,290.30 L81.09,292.02 L81.59,293.70 L82.09,295.33 L82.59,296.93 L83.10,298.49 L83.60,300.02 L84.10,301.50 L84.60,302.96 L85.10,304.38 L85.60,305.76 L86.10,307.12 L86.60,308.45 L87.10,309.74 L87.60,311.01 L88.10,312.25 L88.60,313.46 L89.10,314.65 L89.60,315.81 L90.10,316.94 L90.60,318.05 L91.10,319.14 L91.61,320.20 L92.11,321.25 L92.61,322.27 L93.11,323.26 L93.61,324.24 L94.11,325.20 L94.61,326.14 L95.11,327.06 L95.61,327.96 L96.11,328.84 L96.61,329.71 L97.11,330.56 L97.61,331.39 L98.11,332.20 L98.61,333.00 L99.11,333.78 L99.61,334.55 L100.12,335.30 L100.62,336.04 L101.12,336.76 L101.62,337.47 L102.12,338.16 L102.62,338.84 L103.12,339.51 L103.62,340.17 L104.12,340.81 L104.62,341.44 L105.12,342.06 L105.62,342.66 L106.12,343.26 L106.62,343.84 L107.12,344.41 L107.62,344.97 L108.12,345.52 L108.62,346.06 L109.13,346.59 L109.63,347.11 L110.13,347.62 L110.63,348.12 L111.13,348.61 L111.63,349.09 L112.13,349.56 L112.63,350.03 L113.13,350.48 L113.63,350.92 L114.13,351.36 L114.63,351.79 L115.13,352.21 L115.63,352.62 L116.13,353.02 L116.63,353.42 L117.13,353.80 L117.64,354.18 L118.14,354.56 L118.64,354.92 L119.14,355.28 L119.64,355.63 L120.14,355.97 L120.64,356.31 L121.14,356.64 L121.64,356.96 L122.14,357.28 L122.64,357.59 L123.14,357.89 L123.64,358.19 L124.14,358.48 L124.64,358.76 L125.14,359.04 L125.64,359.32 L126.14,359.58 L126.65,359.84 L127.15,360.10 L127.65,360.35 L128.15,360.59 L128.65,360.83 L129.15,361.07 L129.65,361.29 L130.15,361.52 L130.65,361.74 L131.15,361.95 L131.65,362.16 L132.15,362.36 L132.65,362.56 L133.15,362.75 L133.65,362.94 L134.15,363.12 L134.65,363.30 L135.16,363.47 L135.66,363.64 L136.16,363.81 L136.66,363.97 L137.16,364.13 L137.66,364.28 L138.16,364.42 L138.66,364.57 L139.16,364.71 L139.66,364.84 L140.16,364.97 L140.66,365.10 L141.16,365.22 L141.66,365.34 L142.16,365.46 L142.66,365.57 L143.16,365.67 L143.67,365.78 L144.17,365.88 L144.67,365.97 L145.17,366.07 L145.67,366.16 L146.17,366.24 L146.67,366.32 L147.17,366.40 L147.67,366.47 L148.17,366.55 L148.67,366.61 L149.17,366.68 L149.67,366.74 L150.17,366.80 L150.67,366.85 L151.17,366.90 L151.67,366.95 L152.17,366.99 L152.68,367.04 L153.18,367.07 L153.68,367.11 L154.18,367.14 L154.68,367.17 L155.18,367.20 L155.68,367.22 L156.18,367.24 L156.68,367.26 L157.18,367.27 L157.68,367.28 L158.18,367.29 L158.68,367.30 L159.18,367.30 L159.68,367.30 L160.18,367.30 L160.68,367.29 L161.19,367.28 L161.69,367.27 L162.19,367.26 L162.69,367.24 L163.19,367.22 L163.69,367.20 L164.19,367.18 L164.69,367.15 L165.19,367.12 L165.69,367.09 L166.19,367.05 L166.69,367.02 L167.19,366.98 L167.69,366.93 L168.19,366.89 L168.69,366.84 L169.19,366.79 L169.70,366.74 L170.20,366.69 L170.70,366.63 L171.20,366.57 L171.70,366.51 L172.20,366.45 L172.70,366.38 L173.20,366.31 L173.70,366.24 L174.20,366.17 L174.70,366.10 L175.20,366.02 L175.70,365.94 L176.20,365.86 L176.70,365.77 L177.20,365.69 L177.70,365.60 L178.20,365.51 L178.71,365.42 L179.21,365.32 L179.71,365.23 L180.21,365.13 L180.71,365.03 L181.21,364.92 L181.71,364.82 L182.21,364.71 L182.71,364.60 L183.21,364.49 L183.71,364.38 L184.21,364.26 L184.71,364.15 L185.21,364.03 L185.71,363.91 L186.21,363.78 L186.71,363.66 L187.22,363.53 L187.72,363.40 L188.22,363.27 L188.72,363.14 L189.22,363.00 L189.72,362.87 L190.22,362.73 L190.72,362.59 L191.22,362.45 L191.72,362.30 L192.22,362.16 L192.72,362.01 L193.22,361.86 L193.72,361.71 L194.22,361.56 L194.72,361.40 L195.22,361.24 L195.72,361.09 L196.23,360.92 L196.73,360.76 L197.23,360.60 L197.73,360.43 L198.23,360.27 L198.73,360.10 L199.23,359.93 L199.73,359.75 L200.23,359.58 L200.73,359.40 L201.23,359.22 L201.73,359.05 L202.23,358.86 L202.73,358.68 L203.23,358.50 L203.73,358.31 L204.23,358.12 L204.74,357.93 L205.24,357.74 L205.74,357.55 L206.24,357.36 L206.74,357.16 L207.24,356.96 L207.74,356.76 L208.24,356.56 L208.74,356.36 L209.24,356.15 L209.74,355.95 L210.24,355.74 L210.74,355.53 L211.24,355.32 L211.74,355.11 L212.24,354.90 L212.74,354.68 L213.25,354.47 L213.75,354.25 L214.25,354.03 L214.75,353.81 L215.25,353.58 L215.75,353.36 L216.25,353.13 L216.75,352.91 L217.25,352.68 L217.75,352.45 L218.25,352.21 L218.75,351.98 L219.25,351.75 L219.75,351.51 L220.25,351.27 L220.75,351.03 L221.25,350.79 L221.75,350.55 L222.26,350.30 L222.76,350.06 L223.26,349.81 L223.76,349.56 L224.26,349.31 L224.76,349.06 L225.26,348.81 L225.76,348.56 L226.26,348.30 L226.76,348.04 L227.26,347.79 L227.76,347.53 L228.26,347.26 L228.76,347.00 L229.26,346.74 L229.76,346.47 L230.26,346.21 L230.77,345.94 L231.27,345.67 L231.77,345.40 L232.27,345.12 L232.77,344.85 L233.27,344.58 L233.77,344.30 L234.27,344.02 L234.77,343.74 L235.27,343.46 L235.77,343.18 L236.27,342.90 L236.77,342.61 L237.27,342.33 L237.77,342.04 L238.27,341.75 L238.77,341.46 L239.28,341.17 L239.78,340.87 L240.28,340.58 L240.78,340.29 L241.28,339.99 L241.78,339.69 L242.28,339.39 L242.78,339.09 L243.28,338.79 L243.78,338.48 L244.28,338.18 L244.78,337.87 L245.28,337.57 L245.78,337.26 L246.28,336.95 L246.78,336.64 L247.28,336.32 L247.78,336.01 L248.29,335.69 L248.79,335.38 L249.29,335.06 L249.79,334.74 L250.29,334.42 L250.79,334.10 L251.29,333.78 L251.79,333.45 L252.29,333.13 L252.79,332.80 L253.29,332.47 L253.79,332.14 L254.29,331.81 L254.79,331.48 L255.29,331.15 L255.79,330.81 L256.29,330.48 L256.80,330.14 L257.30,329.80 L257.80,329.46 L258.30,329.12 L258.80,328.78 L259.30,328.44 L259.80,328.10 L260.30,327.75 L260.80,327.40 L261.30,327.06 L261.80,326.71 L262.30,326.36 L262.80,326.00 L263.30,325.65 L263.80,325.30 L264.30,324.94 L264.80,324.59 L265.30,324.23 L265.81,323.87 L266.31,323.51 L266.81,323.15 L267.31,322.78 L267.81,322.42 L268.31,322.06 L268.81,321.69 L269.31,321.32 L269.81,320.95 L270.31,320.58 L270.81,320.21 L271.31,319.84 L271.81,319.47 L272.31,319.09 L272.81,318.72 L273.31,318.34 L273.81,317.96 L274.32,317.58 L274.82,317.20 L275.32,316.82 L275.82,316.44 L276.32,316.05 L276.82,315.67 L277.32,315.28 L277.82,314.89 L278.32,314.51 L278.82,314.12 L279.32,313.72 L279.82,313.33 L280.32,312.94 L280.82,312.54 L281.32,312.15 L281.82,311.75 L282.32,311.35 L282.83,310.95 L283.33,310.55 L283.83,310.15 L284.33,309.75 L284.83,309.35 L285.33,308.94 L285.83,308.54 L286.33,308.13 L286.83,307.72 L287.33,307.31 L287.83,306.90 L288.33,306.49 L288.83,306.07 L289.33,305.66 L289.83,305.24 L290.33,304.83 L290.83,304.41 L291.33,303.99 L291.84,303.57 L292.34,303.15 L292.84,302.73 L293.34,302.31 L293.84,301.88 L294.34,301.46 L294.84,301.03 L295.34,300.60 L295.84,300.17 L296.34,299.74 L296.84,299.31 L297.34,298.88 L297.84,298.45 L298.34,298.01 L298.84,297.58 L299.34,297.14 L299.84,296.70 L300.35,296.26 L300.85,295.82 L301.35,295.38 L301.85,294.94 L302.35,294.49 L302.85,294.05 L303.35,293.60 L303.85,293.16 L304.35,292.71 L304.85,292.26 L305.35,291.81 L305.85,291.36 L306.35,290.91 L306.85,290.45 L307.35,290.00 L307.85,289.54 L308.35,289.09 L308.86,288.63 L309.36,288.17 L309.86,287.71 L310.36,287.25 L310.86,286.79 L311.36,286.32 L311.86,285.86 L312.36,285.39 L312.86,284.93 L313.36,284.46 L313.86,283.99 L314.36,283.52 L314.86,283.05 L315.36,282.58 L315.86,282.10 L316.36,281.63 L316.86,281.15 L317.36,280.68 L317.87,280.20 L318.37,279.72 L318.87,279.24 L319.37,278.76 L319.87,278.28 L320.37,277.80 L320.87,277.31 L321.37,276.83 L321.87,276.34 L322.37,275.85 L322.87,275.37 L323.37,274.88 L323.87,274.39 L324.37,273.90 L324.87,273.40 L325.37,272.91 L325.87,272.41 L326.38,271.92 L326.88,271.42 L327.38,270.92 L327.88,270.43 L328.38,269.93 L328.88,269.42 L329.38,268.92 L329.88,268.42 L330.38,267.91 L330.88,267.41 L331.38,266.90 L331.88,266.39 L332.38,265.89 L332.88,265.38 L333.38,264.87 L333.88,264.35 L334.38,263.84 L334.88,263.33 L335.39,262.81 L335.89,262.30 L336.39,261.78 L336.89,261.26 L337.39,260.74 L337.89,260.22 L338.39,259.70 L338.89,259.18 L339.39,258.66 L339.89,258.13 L340.39,257.61 L340.89,257.08 L341.39,256.55 L341.89,256.02 L342.39,255.49 L342.89,254.96 L343.39,254.43 L343.90,253.90 L344.40,253.36 L344.90,252.83 L345.40,252.29 L345.90,251.76 L346.40,251.22 L346.90,250.68 L347.40,250.14 L347.90,249.60 L348.40,249.06 L348.90,248.51 L349.40,247.97 L349.90,247.42 L350.40,246.88 L350.90,246.33 L351.40,245.78 L351.90,245.23 L352.41,244.68 L352.91,244.13 L353.41,243.58 L353.91,243.02 L354.41,242.47 L354.91,241.91 L355.41,241.35 L355.91,240.80 L356.41,240.24 L356.91,239.68 L357.41,239.12 L357.91,238.56 L358.41,237.99 L358.91,237.43 L359.41,236.86 L359.91,236.30 L360.41,235.73 L360.91,235.16 L361.42,234.59 L361.92,234.02 L362.42,233.45 L362.92,232.88 L363.42,232.31 L363.92,231.73 L364.42,231.16 L364.92,230.58 L365.42,230.00 L365.92,229.42 L366.42,228.85 L366.92,228.26 L367.42,227.68 L367.92,227.10 L368.42,226.52 L368.92,225.93 L369.42,225.35 L369.93,224.76 L370.43,224.17 L370.93,223.58 L371.43,222.99 L371.93,222.40 L372.43,221.81 L372.93,221.22 L373.43,220.63 L373.93,220.03 L374.43,219.44 L374.93,218.84 L375.43,218.24 L375.93,217.64 L376.43,217.04 L376.93,216.44 L377.43,215.84 L377.93,215.24 L378.43,214.63 L378.94,214.03 L379.44,213.42 L379.94,212.81 L380.44,212.21 L380.94,211.60 L381.44,210.99 L381.94,210.38 L382.44,209.76 L382.94,209.15 L383.44,208.54 L383.94,207.92 L384.44,207.31 L384.94,206.69 L385.44,206.07 L385.94,205.45 L386.44,204.83 L386.94,204.21 L387.45,203.59 L387.95,202.97 L388.45,202.34 L388.95,201.72 L389.45,201.09 L389.95,200.46 L390.45,199.83 L390.95,199.21 L391.45,198.58 L391.95,197.94 L392.45,197.31 L392.95,196.68 L393.45,196.04 L393.95,195.41 L394.45,194.77 L394.95,194.14 L395.45,193.50 L395.96,192.86 L396.46,192.22 L396.96,191.58 L397.46,190.93 L397.96,190.29 L398.46,189.65 L398.96,189.00 L399.46,188.36 L399.96,187.71 L400.46,187.06 L400.96,186.41 L401.46,185.76 L401.96,185.11 L402.46,184.46 L402.96,183.80 L403.46,183.15 L403.96,182.49 L404.46,181.84 L404.97,181.18 L405.47,180.52 L405.97,179.86 L406.47,179.20 L406.97,178.54 L407.47,177.88 L407.97,177.22 L408.47,176.55 L408.97,175.89 L409.47,175.22 L409.97,174.55 L410.47,173.89 L410.97,173.22 L411.47,172.55 L411.97,171.87 L412.47,171.20 L412.97,170.53 L413.48,169.86 L413.98,169.18 L414.48,168.50 L414.98,167.83 L415.48,167.15 L415.98,166.47 L416.48,165.79 L416.98,165.11 L417.48,164.43 L417.98,163.74 L418.48,163.06 L418.98,162.37 L419.48,161.69 L419.98,161.00 L420.48,160.31 L420.98,159.62 L421.48,158.93 L421.99,158.24 L422.49,157.55 L422.99,156.86 L423.49,156.16 L423.99,155.47 L424.49,154.77 L424.99,154.08 L425.49,153.38 L425.99,152.68 L426.49,151.98 L426.99,151.28 L427.49,150.58 L427.99,149.87 L428.49,149.17 L428.99,148.46 L429.49,147.76 L429.99,147.05 L430.49,146.34 L431.00,145.63 L431.50,144.92 L432.00,144.21 L432.50,143.50 L433.00,142.79 L433.50,142.08 L434.00,141.36 L434.50,140.65 L435.00,139.93" style="stroke-width: 2; stroke: rgb(208, 2, 27);"/></g><g style="font-family: Asana-Math, Asana;"/><g style="font-family: Asana-Math, Asana;"/><rect class="real" x="1" y="1" width="433" height="469.98237560951725" style="fill: transparent; stroke: none;"/></g></g></g><g class="arrow-line"><path class="connection real" stroke-dasharray="1.125 3.35" d="  M35,357.56 L570,357.56" style="stroke: rgb(0, 0, 0); stroke-width: 1; fill: none;"/></g><g class="arrow-line"><path class="connection real" stroke-dasharray="1.125 3.35" d="  M172,356.6 L173,455.08" style="stroke: rgb(0, 0, 0); stroke-width: 1; fill: none;"/><g stroke="#000" fill="#000" transform="matrix(0.010122736774459896,0.9999487637875227,-0.9999487637875227,0.010122736774459896,172,356.604213766519)" style="stroke: rgb(0, 0, 0); fill: rgb(0, 0, 0); stroke-width: 1;"><circle cx="0" cy="0" r="3.35"/></g></g><g class="composite-shape"><path class="real" d=" M36.5,356.6 L172,356.6 L172,375 L36.5,375 Z" style="stroke-width: 1; stroke: none; fill: rgba(74, 144, 226, 0.31);"/></g><g class="arrow-line"><path class="connection real" stroke-dasharray="1.125 3.35" d="  M36.5,375 L416,375" style="stroke: rgb(0, 0, 0); stroke-width: 1; fill: none;"/></g><g/></g><g/><g/><g/></svg>
        <svg xmlns="http://www.w3.org/2000/svg" width="437" height="485" style="width:437px;height:485px;font-family:Asana-Math, Asana;background:#FFF;"><g><g><g style="transform:matrix(1,0,0,1,86.921875,124.2890625);"><path d="M105 664L160 662C184 661 195 653 195 635L112 125C95 34 94 31 54 28L13 25L9 -3L51 -2C92 -1 123 0 141 0C158 0 187 -1 227 -2L280 -3L283 25L218 28C192 29 182 37 182 58C182 67 183 74 186 93L284 648C320 654 336 656 355 656C457 656 506 612 506 519C506 411 434 323 346 323C324 323 304 328 267 342L269 311C306 293 326 288 355 288C484 288 594 405 594 541C594 642 531 695 412 692L108 692Z" stroke="rgb(74, 144, 226)" stroke-width="8" fill="rgb(74, 144, 226)" style="transform:matrix(0.017,0,0,-0.017,0,0);"></path></g><g><g><g><g style="transform:matrix(1,0,0,1,98.265625,117.8609375);"><path d="M168 267L37 213L32 204L68 153L78 153L184 241L202 99L212 95L280 121L280 131L212 253L350 233L359 241L359 303L353 307L214 283L283 408L280 423L218 442L209 438L183 295L88 393L78 393L34 341L37 331Z" stroke="rgb(74, 144, 226)" stroke-width="8" fill="rgb(74, 144, 226)" style="transform:matrix(0.0119,0,0,-0.0119,0,0);"></path></g></g></g></g><g style="transform:matrix(1,0,0,1,103.90625,124.2890625);"><path d="M146 266C146 526 243 632 301 700L282 726C225 675 60 542 60 266C60 159 85 58 133 -32C168 -99 200 -138 282 -215L301 -194C255 -137 146 -15 146 266Z" stroke="rgb(74, 144, 226)" stroke-width="8" fill="rgb(74, 144, 226)" style="transform:matrix(0.017,0,0,-0.017,0,0);"></path></g><g style="transform:matrix(1,0,0,1,109.5625,124.2890625);"><path d="M385 458C342 475 313 482 284 482C209 482 121 394 103 374C63 327 24 181 24 78C24 19 36 -11 60 -11C82 -11 101 -3 133 19C180 51 259 121 308 209L232 -205C227 -229 217 -249 205 -262L214 -276C245 -268 276 -262 300 -259C304 -205 310 -150 319 -100L405 356C416 417 422 443 432 474L418 480ZM118 59C104 59 96 80 96 113C96 209 139 359 181 409C193 424 222 433 254 433C282 433 303 427 351 406L330 311C301 174 160 59 118 59Z" stroke="rgb(74, 144, 226)" stroke-width="8" fill="rgb(74, 144, 226)" style="transform:matrix(0.017,0,0,-0.017,0,0);"></path></g><g style="transform:matrix(1,0,0,1,117.421875,124.2890625);"><path d="M51 726L32 700C87 636 187 526 187 266C187 -10 83 -131 32 -194L51 -215C104 -165 273 -23 273 265C273 542 108 675 51 726Z" stroke="rgb(74, 144, 226)" stroke-width="8" fill="rgb(74, 144, 226)" style="transform:matrix(0.017,0,0,-0.017,0,0);"></path></g></g></g><g><g><g style="transform:matrix(1,0,0,1,290.8125,140.8046875);"><path d="M105 664L160 662C184 661 195 653 195 635L112 125C95 34 94 31 54 28L13 25L9 -3L51 -2C92 -1 123 0 141 0C158 0 187 -1 227 -2L280 -3L283 25L218 28C192 29 182 37 182 58C182 67 183 74 186 93L284 648C320 654 336 656 355 656C457 656 506 612 506 519C506 411 434 323 346 323C324 323 304 328 267 342L269 311C306 293 326 288 355 288C484 288 594 405 594 541C594 642 531 695 412 692L108 692Z" stroke="rgb(245, 166, 35)" stroke-width="8" fill="rgb(245, 166, 35)" style="transform:matrix(0.017,0,0,-0.017,0,0);"></path></g><g><g><g><g style="transform:matrix(1,0,0,1,302.15625,134.3765625);"><path d="M108 471C108 386 146 339 230 319L325 296C379 283 406 248 406 191C406 96 335 30 232 30C178 30 140 42 96 73L96 172L66 172C60 117 53 72 42 20C91 -5 144 -18 197 -18C352 -18 485 99 485 234C485 313 442 355 341 377L276 391C210 405 180 442 180 508C180 595 247 658 339 658C388 658 421 645 451 613L451 537L481 537C485 591 492 629 506 672C461 696 421 706 374 706C250 706 108 614 108 471Z" stroke="rgb(245, 166, 35)" stroke-width="8" fill="rgb(245, 166, 35)" style="transform:matrix(0.0119,0,0,-0.0119,0,0);"></path></g></g></g></g><g style="transform:matrix(1,0,0,1,309.78125,140.8046875);"><path d="M146 266C146 526 243 632 301 700L282 726C225 675 60 542 60 266C60 159 85 58 133 -32C168 -99 200 -138 282 -215L301 -194C255 -137 146 -15 146 266Z" stroke="rgb(245, 166, 35)" stroke-width="8" fill="rgb(245, 166, 35)" style="transform:matrix(0.017,0,0,-0.017,0,0);"></path></g><g style="transform:matrix(1,0,0,1,315.4375,140.8046875);"><path d="M385 458C342 475 313 482 284 482C209 482 121 394 103 374C63 327 24 181 24 78C24 19 36 -11 60 -11C82 -11 101 -3 133 19C180 51 259 121 308 209L232 -205C227 -229 217 -249 205 -262L214 -276C245 -268 276 -262 300 -259C304 -205 310 -150 319 -100L405 356C416 417 422 443 432 474L418 480ZM118 59C104 59 96 80 96 113C96 209 139 359 181 409C193 424 222 433 254 433C282 433 303 427 351 406L330 311C301 174 160 59 118 59Z" stroke="rgb(245, 166, 35)" stroke-width="8" fill="rgb(245, 166, 35)" style="transform:matrix(0.017,0,0,-0.017,0,0);"></path></g><g style="transform:matrix(1,0,0,1,323.296875,140.8046875);"><path d="M51 726L32 700C87 636 187 526 187 266C187 -10 83 -131 32 -194L51 -215C104 -165 273 -23 273 265C273 542 108 675 51 726Z" stroke="rgb(245, 166, 35)" stroke-width="8" fill="rgb(245, 166, 35)" style="transform:matrix(0.017,0,0,-0.017,0,0);"></path></g><g style="transform:matrix(1,0,0,1,334.046875,140.8046875);"><path d="M604 347L604 406L65 406L65 347ZM604 134L604 193L65 193L65 134Z" stroke="rgb(245, 166, 35)" stroke-width="8" fill="rgb(245, 166, 35)" style="transform:matrix(0.017,0,0,-0.017,0,0);"></path></g><g style="transform:matrix(1,0,0,1,350.5,140.8046875);"><path d="M937 664L950 695C922 699 775 701 773 692L688 536L442 114L292 692C269 686 146 690 125 692L122 664L148 662C200 658 218 648 218 622C218 616 72 100 70 93C54 41 39 28 -16 23L-19 -3L20 -2C54 -1 79 0 93 0C107 0 133 -1 168 -2L203 -3L206 25L168 28C136 30 119 40 119 55C119 65 121 78 126 96L250 560L399 -18L422 -18L479 86L718 500L770 587L733 67C729 39 717 32 666 28L635 25L632 -3L679 -2C721 -1 751 0 766 0C782 0 812 -1 853 -2L899 -3L902 25L865 28C829 31 811 42 811 63L812 100L853 631C855 650 870 660 899 662ZM998 284C998 90 1105 -18 1296 -18C1392 -18 1463 5 1553 67L1563 103L1553 110C1459 53 1407 35 1329 35C1172 35 1086 131 1086 309C1086 447 1143 653 1371 653C1442 653 1494 639 1550 603L1550 519L1577 519C1582 576 1590 619 1604 665C1528 694 1471 706 1409 706C1229 706 998 578 998 284Z" stroke="rgb(245, 166, 35)" stroke-width="8" fill="rgb(245, 166, 35)" style="transform:matrix(0.017,0,0,-0.017,0,0);"></path></g><g style="transform:matrix(1,0,0,1,378.390625,140.8046875);"><path d="M146 266C146 526 243 632 301 700L282 726C225 675 60 542 60 266C60 159 85 58 133 -32C168 -99 200 -138 282 -215L301 -194C255 -137 146 -15 146 266Z" stroke="rgb(245, 166, 35)" stroke-width="8" fill="rgb(245, 166, 35)" style="transform:matrix(0.017,0,0,-0.017,0,0);"></path></g><g style="transform:matrix(1,0,0,1,384.046875,140.8046875);"><path d="M385 458C342 475 313 482 284 482C209 482 121 394 103 374C63 327 24 181 24 78C24 19 36 -11 60 -11C82 -11 101 -3 133 19C180 51 259 121 308 209L232 -205C227 -229 217 -249 205 -262L214 -276C245 -268 276 -262 300 -259C304 -205 310 -150 319 -100L405 356C416 417 422 443 432 474L418 480ZM118 59C104 59 96 80 96 113C96 209 139 359 181 409C193 424 222 433 254 433C282 433 303 427 351 406L330 311C301 174 160 59 118 59Z" stroke="rgb(245, 166, 35)" stroke-width="8" fill="rgb(245, 166, 35)" style="transform:matrix(0.017,0,0,-0.017,0,0);"></path></g><g style="transform:matrix(1,0,0,1,395.296875,140.8046875);"><path d="M297 714L242 714L-37 -169L18 -169Z" stroke="rgb(245, 166, 35)" stroke-width="8" fill="rgb(245, 166, 35)" style="transform:matrix(0.017,0,0,-0.017,0,0);"></path></g><g style="transform:matrix(1,0,0,1,403.5625,140.8046875);"><path d="M240 722L228 733C176 707 140 698 68 691L64 670L112 670C136 670 146 663 146 646C146 638 145 629 144 622L96 354C82 279 66 210 14 1L23 -9L90 8L113 132C122 180 146 225 180 259C249 59 281 -9 306 -9C319 -9 343 4 387 35L433 67L425 86L382 62C368 54 361 52 353 52C343 52 336 58 327 75C292 139 270 193 231 316L245 330C306 391 352 416 402 416C410 416 421 414 438 410L455 473C437 479 419 482 407 482C341 482 258 405 133 230Z" stroke="rgb(245, 166, 35)" stroke-width="8" fill="rgb(245, 166, 35)" style="transform:matrix(0.017,0,0,-0.017,0,0);"></path></g><g style="transform:matrix(1,0,0,1,411.53125,140.8046875);"><path d="M51 726L32 700C87 636 187 526 187 266C187 -10 83 -131 32 -194L51 -215C104 -165 273 -23 273 265C273 542 108 675 51 726Z" stroke="rgb(245, 166, 35)" stroke-width="8" fill="rgb(245, 166, 35)" style="transform:matrix(0.017,0,0,-0.017,0,0);"></path></g></g></g><g><g><g style="transform:matrix(1,0,0,1,169.765625,478.0390625);"><path d="M385 458C342 475 313 482 284 482C209 482 121 394 103 374C63 327 24 181 24 78C24 19 36 -11 60 -11C82 -11 101 -3 133 19C180 51 259 121 308 209L232 -205C227 -229 217 -249 205 -262L214 -276C245 -268 276 -262 300 -259C304 -205 310 -150 319 -100L405 356C416 417 422 443 432 474L418 480ZM118 59C104 59 96 80 96 113C96 209 139 359 181 409C193 424 222 433 254 433C282 433 303 427 351 406L330 311C301 174 160 59 118 59Z" stroke="rgb(74, 74, 74)" stroke-width="8" fill="rgb(74, 74, 74)" style="transform:matrix(0.017,0,0,-0.017,0,0);"></path></g><g><g><g><g style="transform:matrix(1,0,0,1,178.59375,471.6109375);"><path d="M168 267L37 213L32 204L68 153L78 153L184 241L202 99L212 95L280 121L280 131L212 253L350 233L359 241L359 303L353 307L214 283L283 408L280 423L218 442L209 438L183 295L88 393L78 393L34 341L37 331Z" stroke="rgb(74, 74, 74)" stroke-width="8" fill="rgb(74, 74, 74)" style="transform:matrix(0.0119,0,0,-0.0119,0,0);"></path></g></g></g></g></g></g><g><g><g style="transform:matrix(1,0,0,1,11.78125,21.328125);"><path d="M176 -11C232 -11 347 62 390 125C431 186 465 296 465 371C465 438 442 482 406 482C364 482 311 456 259 409C218 374 198 348 162 289L186 408C189 425 191 440 191 452C191 471 183 482 169 482C148 482 110 461 36 408L8 388L15 368L47 389C75 407 86 412 95 412C105 412 112 403 112 389C112 381 110 361 108 351L50 8C40 -52 21 -143 1 -233L-7 -270L0 -276C21 -269 41 -264 73 -259L115 3C136 -4 158 -11 176 -11ZM143 165C165 293 272 424 355 424C381 424 393 402 393 356C393 275 353 156 300 80C280 51 248 36 207 36C176 36 151 43 125 59Z" stroke="rgb(128, 128, 128)" stroke-width="8" fill="rgb(128, 128, 128)" style="transform:matrix(0.017,0,0,-0.017,0,0);"></path></g></g></g><g><g><g style="transform:matrix(1,0,0,1,423.78125,477.328125);"><path d="M385 458C342 475 313 482 284 482C209 482 121 394 103 374C63 327 24 181 24 78C24 19 36 -11 60 -11C82 -11 101 -3 133 19C180 51 259 121 308 209L232 -205C227 -229 217 -249 205 -262L214 -276C245 -268 276 -262 300 -259C304 -205 310 -150 319 -100L405 356C416 417 422 443 432 474L418 480ZM118 59C104 59 96 80 96 113C96 209 139 359 181 409C193 424 222 433 254 433C282 433 303 427 351 406L330 311C301 174 160 59 118 59Z" stroke="rgb(128, 128, 128)" stroke-width="8" fill="rgb(128, 128, 128)" style="transform:matrix(0.017,0,0,-0.017,0,0);"></path></g></g></g><g><g><g style="transform:matrix(1,0,0,1,7.453125,364.2578125);"><path d="M176 -11C232 -11 347 62 390 125C431 186 465 296 465 371C465 438 442 482 406 482C364 482 311 456 259 409C218 374 198 348 162 289L186 408C189 425 191 440 191 452C191 471 183 482 169 482C148 482 110 461 36 408L8 388L15 368L47 389C75 407 86 412 95 412C105 412 112 403 112 389C112 381 110 361 108 351L50 8C40 -52 21 -143 1 -233L-7 -270L0 -276C21 -269 41 -264 73 -259L115 3C136 -4 158 -11 176 -11ZM143 165C165 293 272 424 355 424C381 424 393 402 393 356C393 275 353 156 300 80C280 51 248 36 207 36C176 36 151 43 125 59Z" stroke="rgb(74, 74, 74)" stroke-width="8" fill="rgb(74, 74, 74)" style="transform:matrix(0.017,0,0,-0.017,0,0);"></path></g><g><g><g><g style="transform:matrix(1,0,0,1,16.90625,357.8296875);"><path d="M168 267L37 213L32 204L68 153L78 153L184 241L202 99L212 95L280 121L280 131L212 253L350 233L359 241L359 303L353 307L214 283L283 408L280 423L218 442L209 438L183 295L88 393L78 393L34 341L37 331Z" stroke="rgb(74, 74, 74)" stroke-width="8" fill="rgb(74, 74, 74)" style="transform:matrix(0.0119,0,0,-0.0119,0,0);"></path></g></g></g></g></g></g><g><g><g style="transform:matrix(1,0,0,1,365.375,274.5625);"><path d="M567 55C567 39 552 30 524 28L480 25L480 -3C582 0 582 0 602 0C622 0 622 0 724 -3L724 25L698 28C651 35 650 35 642 80L555 705L509 705L136 112C100 56 82 40 48 32L28 27L28 -3C120 0 120 0 140 0C159 0 161 0 247 -3L247 25L195 28C179 29 164 38 164 47C164 55 171 69 190 102L292 277L538 277L563 89L563 86C563 84 567 69 567 55ZM496 601L533 313L317 313ZM796 284C796 90 903 -18 1094 -18C1190 -18 1261 5 1351 67L1361 103L1351 110C1257 53 1205 35 1127 35C970 35 884 131 884 309C884 447 941 653 1169 653C1240 653 1292 639 1348 603L1348 519L1375 519C1380 576 1388 619 1402 665C1326 694 1269 706 1207 706C1027 706 796 578 796 284Z" stroke="rgb(208, 2, 27)" stroke-width="8" fill="rgb(208, 2, 27)" style="transform:matrix(0.017,0,0,-0.017,0,0);"></path></g><g style="transform:matrix(1,0,0,1,389.828125,274.5625);"><path d="M146 266C146 526 243 632 301 700L282 726C225 675 60 542 60 266C60 159 85 58 133 -32C168 -99 200 -138 282 -215L301 -194C255 -137 146 -15 146 266Z" stroke="rgb(208, 2, 27)" stroke-width="8" fill="rgb(208, 2, 27)" style="transform:matrix(0.017,0,0,-0.017,0,0);"></path></g><g style="transform:matrix(1,0,0,1,395.484375,274.5625);"><path d="M385 458C342 475 313 482 284 482C209 482 121 394 103 374C63 327 24 181 24 78C24 19 36 -11 60 -11C82 -11 101 -3 133 19C180 51 259 121 308 209L232 -205C227 -229 217 -249 205 -262L214 -276C245 -268 276 -262 300 -259C304 -205 310 -150 319 -100L405 356C416 417 422 443 432 474L418 480ZM118 59C104 59 96 80 96 113C96 209 139 359 181 409C193 424 222 433 254 433C282 433 303 427 351 406L330 311C301 174 160 59 118 59Z" stroke="rgb(208, 2, 27)" stroke-width="8" fill="rgb(208, 2, 27)" style="transform:matrix(0.017,0,0,-0.017,0,0);"></path></g><g style="transform:matrix(1,0,0,1,406.734375,274.5625);"><path d="M297 714L242 714L-37 -169L18 -169Z" stroke="rgb(208, 2, 27)" stroke-width="8" fill="rgb(208, 2, 27)" style="transform:matrix(0.017,0,0,-0.017,0,0);"></path></g><g style="transform:matrix(1,0,0,1,415,274.5625);"><path d="M240 722L228 733C176 707 140 698 68 691L64 670L112 670C136 670 146 663 146 646C146 638 145 629 144 622L96 354C82 279 66 210 14 1L23 -9L90 8L113 132C122 180 146 225 180 259C249 59 281 -9 306 -9C319 -9 343 4 387 35L433 67L425 86L382 62C368 54 361 52 353 52C343 52 336 58 327 75C292 139 270 193 231 316L245 330C306 391 352 416 402 416C410 416 421 414 438 410L455 473C437 479 419 482 407 482C341 482 258 405 133 230Z" stroke="rgb(208, 2, 27)" stroke-width="8" fill="rgb(208, 2, 27)" style="transform:matrix(0.017,0,0,-0.017,0,0);"></path></g><g style="transform:matrix(1,0,0,1,422.96875,274.5625);"><path d="M51 726L32 700C87 636 187 526 187 266C187 -10 83 -131 32 -194L51 -215C104 -165 273 -23 273 265C273 542 108 675 51 726Z" stroke="rgb(208, 2, 27)" stroke-width="8" fill="rgb(208, 2, 27)" style="transform:matrix(0.017,0,0,-0.017,0,0);"></path></g></g></g><g><g><text x="68.1171875" y="360" style="white-space:pre;stroke:none;fill:rgb(0, 0, 0);font-size:10.5px;font-family:Arial, Helvetica, sans-serif;font-weight:400;font-style:normal;dominant-baseline:text-before-edge;text-decoration:none solid rgb(0, 0, 0);">Profits</text></g></g></svg>
</svg>
