<svg xmlns="http://www.w3.org/2000/svg" width="662" height="516" style="
        width:662px;
        height:516px;
        background: #FFF;
        fill: none;
">
        
        <svg xmlns="http://www.w3.org/2000/svg" class="role-diagram-draw-area"><g class="shapes-region" style="stroke: black; fill: none;"><g class="arrow-line"><path class="connection real" stroke-dasharray="" d="  M144,104 C201.5,201 356.5,350 521.5,330" style="stroke: rgb(74, 144, 226); stroke-width: 3; fill: none;"/></g><g class="composite-shape"><path class="real" d=" M300.5,26 L646.5,26 L646.5,122 L300.5,122 Z" style="stroke-width: 1; stroke: rgb(0, 0, 0); fill: none;"/></g><g class="arrow-line"><path class="connection real" stroke-dasharray="2.25 3.685" d="  M228.5,475 L228.5,209" style="stroke: rgb(0, 0, 0); stroke-width: 2; fill: none;"/><g stroke="#000" fill="#000" transform="matrix(-1.8369701987210297e-16,-1,1,-1.8369701987210297e-16,228.5,208.99999999999997)" style="stroke: rgb(0, 0, 0); fill: rgb(0, 0, 0); stroke-width: 2;"><circle cx="0" cy="0" r="4.355"/></g></g><g class="arrow-line"><path class="connection real" stroke-dasharray="2.25 3.685" d="  M311.5,474 L311.5,272" style="stroke: rgb(0, 0, 0); stroke-width: 2; fill: none;"/><g stroke="#000" fill="#000" transform="matrix(-1.8369701987210297e-16,-1,1,-1.8369701987210297e-16,311.5,271.99999999999994)" style="stroke: rgb(0, 0, 0); fill: rgb(0, 0, 0); stroke-width: 2;"><circle cx="0" cy="0" r="4.355"/></g></g><g class="composite-shape axis2d" style="stroke-width: 1; stroke: rgb(0, 0, 0);"><path class="real" d=" M60,429.3 L630.5,429.3 M117.05,27 L117.05,474"/><path d=" M623.5,424.3 L630.5,429.3 L623.5,434.3"/><path d=" M112.05,34 L117.05,27 L122.05,34"/></g><g class="arrow-line"><path class="connection real" stroke-dasharray="2.25 3.685" d="  M74.5,272 L311.5,272" style="stroke: rgb(0, 0, 0); stroke-width: 2; fill: none;"/></g><g class="arrow-line"><path class="connection real" stroke-dasharray="" d="  M233.5,443 L307.5,443" style="stroke: rgb(0, 0, 0); stroke-width: 2; fill: none;"/><g stroke="#000" transform="matrix(-1,1.2246467991473532e-16,-1.2246467991473532e-16,-1,310.49999999999994,443.00000000000006)" style="stroke: rgb(0, 0, 0); stroke-width: 2;"><path d=" M14.21,-4.28 Q6.45,-0.59 0,0 Q6.45,0.59 14.21,4.28"/></g></g><g class="arrow-line"><path class="connection real" stroke-dasharray="" d="  M107.5,213 L107.5,265" style="stroke: rgb(0, 0, 0); stroke-width: 2; fill: none;"/><g stroke="#000" transform="matrix(-1.8369701987210297e-16,-1,1,-1.8369701987210297e-16,107.5,268)" style="stroke: rgb(0, 0, 0); stroke-width: 2;"><path d=" M14.21,-4.28 Q6.45,-0.59 0,0 Q6.45,0.59 14.21,4.28"/></g></g><g class="arrow-line"><path class="connection real" stroke-dasharray="2.25 3.685" d="  M66.5,209 L228.5,209" style="stroke: rgb(0, 0, 0); stroke-width: 2; fill: none;"/></g><g/></g><g/><g/><!-- react-empty: 45579 --></svg>
        <svg xmlns="http://www.w3.org/2000/svg" width="660" height="514" style="width:660px;height:514px;font-family:Asana-Math, Asana;background:#FFF;"><g><g><g style="transform:matrix(1,0,0,1,175.703125,114.1675);"><path d="M316 -3C388 -3 437 8 489 34C645 114 741 265 741 431C741 529 711 599 650 642C604 675 519 693 424 692L220 689L210 689C201 689 198 689 97 692L94 664L147 662C171 661 182 653 182 635C182 621 178 589 173 559L86 55C81 31 56 29 33 23L28 -3L121 0L176 0C211 0 282 -3 316 -3ZM384 655C566 655 649 579 649 415C649 225 549 41 329 41C285 41 236 46 168 56C168 68 169 75 172 93L268 650C291 650 349 655 384 655Z" stroke="rgb(74, 144, 226)" stroke-width="8" fill="rgb(74, 144, 226)" style="transform:matrix(0.024480000000000002,0,0,-0.024480000000000002,0,0);"></path></g><g style="transform:matrix(1,0,0,1,194.734375,114.1675);"><path d="M146 266C146 526 243 632 301 700L282 726C225 675 60 542 60 266C60 159 85 58 133 -32C168 -99 200 -138 282 -215L301 -194C255 -137 146 -15 146 266Z" stroke="rgb(74, 144, 226)" stroke-width="8" fill="rgb(74, 144, 226)" style="transform:matrix(0.024480000000000002,0,0,-0.024480000000000002,0,0);"></path></g><g style="transform:matrix(1,0,0,1,202.875,114.1675);"><path d="M176 -11C232 -11 347 62 390 125C431 186 465 296 465 371C465 438 442 482 406 482C364 482 311 456 259 409C218 374 198 348 162 289L186 408C189 425 191 440 191 452C191 471 183 482 169 482C148 482 110 461 36 408L8 388L15 368L47 389C75 407 86 412 95 412C105 412 112 403 112 389C112 381 110 361 108 351L50 8C40 -52 21 -143 1 -233L-7 -270L0 -276C21 -269 41 -264 73 -259L115 3C136 -4 158 -11 176 -11ZM143 165C165 293 272 424 355 424C381 424 393 402 393 356C393 275 353 156 300 80C280 51 248 36 207 36C176 36 151 43 125 59Z" stroke="rgb(74, 144, 226)" stroke-width="8" fill="rgb(74, 144, 226)" style="transform:matrix(0.024480000000000002,0,0,-0.024480000000000002,0,0);"></path></g><g style="transform:matrix(1,0,0,1,215.09375,114.1675);"><path d="M51 726L32 700C87 636 187 526 187 266C187 -10 83 -131 32 -194L51 -215C104 -165 273 -23 273 265C273 542 108 675 51 726Z" stroke="rgb(74, 144, 226)" stroke-width="8" fill="rgb(74, 144, 226)" style="transform:matrix(0.024480000000000002,0,0,-0.024480000000000002,0,0);"></path></g></g></g><g style="transform:matrix(0.9998925328992174,-0.014660240529659998,0.014660240529659998,0.9998925328992174,-0.19608052289608224,1.7202138628570616);"><g><text x="89.296875" y="5.234375" style="white-space:pre;stroke:none;fill:rgb(0, 0, 0);font-size:15px;font-family:Arial, Helvetica, sans-serif;font-weight:400;font-style:normal;dominant-baseline:text-before-edge;text-decoration:none solid rgb(0, 0, 0);">Quantity</text></g></g><g><g><g style="transform:matrix(1,0,0,1,317.53125,86.001);"><path d="M332 222C342 251 348 268 347 263C268 261 191 262 113 262C132 349 187 438 287 438C347 438 369 420 396 369L416 369L457 422C282 592 13 361 13 155C13 42 79 -11 186 -11C263 -11 327 47 386 92L386 111C339 78 283 39 224 39C150 39 89 126 105 220C117 219 305 222 332 222Z" stroke="rgb(0, 0, 0)" stroke-width="8" fill="rgb(0, 0, 0)" style="transform:matrix(0.029376000000000003,0,0,-0.029376000000000003,0,0);"></path></g><g style="transform:matrix(1,0,0,1,340.015625,86.001);"><path d="M604 347L604 406L65 406L65 347ZM604 134L604 193L65 193L65 134Z" stroke="rgb(0, 0, 0)" stroke-width="8" fill="rgb(0, 0, 0)" style="transform:matrix(0.029376000000000003,0,0,-0.029376000000000003,0,0);"></path></g><g><g><g><g style="transform:matrix(1,0,0,1,370.65625,68.657);"><path d="M-33 6L-28 -4C79 0 185 0 292 0C393 0 494 -1 594 -4L602 6C560 116 534 238 504 354C475 466 442 580 424 697L399 697C336 587 53 127 -33 6ZM482 37L50 37C148 215 249 389 356 564L363 564C408 391 449 215 482 37ZM1004 -3C1076 -3 1125 8 1177 34C1333 114 1429 265 1429 431C1429 529 1399 599 1338 642C1292 675 1207 693 1112 692L908 689L898 689C889 689 886 689 785 692L782 664L835 662C859 661 870 653 870 635C870 621 866 589 861 559L774 55C769 31 744 29 721 23L716 -3L809 0L864 0C899 0 970 -3 1004 -3ZM1072 655C1254 655 1337 579 1337 415C1337 225 1237 41 1017 41C973 41 924 46 856 56C856 68 857 75 860 93L956 650C979 650 1037 655 1072 655Z" stroke="rgb(0, 0, 0)" stroke-width="8" fill="rgb(0, 0, 0)" style="transform:matrix(0.022032,0,0,-0.022032,0,0);"></path></g><g style="transform:matrix(1,0,0,1,402.9375,68.657);"><path d="M146 266C146 526 243 632 301 700L282 726C225 675 60 542 60 266C60 159 85 58 133 -32C168 -99 200 -138 282 -215L301 -194C255 -137 146 -15 146 266Z" stroke="rgb(0, 0, 0)" stroke-width="8" fill="rgb(0, 0, 0)" style="transform:matrix(0.022032,0,0,-0.022032,0,0);"></path></g><g style="transform:matrix(1,0,0,1,410.265625,68.657);"><path d="M176 -11C232 -11 347 62 390 125C431 186 465 296 465 371C465 438 442 482 406 482C364 482 311 456 259 409C218 374 198 348 162 289L186 408C189 425 191 440 191 452C191 471 183 482 169 482C148 482 110 461 36 408L8 388L15 368L47 389C75 407 86 412 95 412C105 412 112 403 112 389C112 381 110 361 108 351L50 8C40 -52 21 -143 1 -233L-7 -270L0 -276C21 -269 41 -264 73 -259L115 3C136 -4 158 -11 176 -11ZM143 165C165 293 272 424 355 424C381 424 393 402 393 356C393 275 353 156 300 80C280 51 248 36 207 36C176 36 151 43 125 59Z" stroke="rgb(0, 0, 0)" stroke-width="8" fill="rgb(0, 0, 0)" style="transform:matrix(0.022032,0,0,-0.022032,0,0);"></path></g><g style="transform:matrix(1,0,0,1,421.265625,68.657);"><path d="M51 726L32 700C87 636 187 526 187 266C187 -10 83 -131 32 -194L51 -215C104 -165 273 -23 273 265C273 542 108 675 51 726Z" stroke="rgb(0, 0, 0)" stroke-width="8" fill="rgb(0, 0, 0)" style="transform:matrix(0.022032,0,0,-0.022032,0,0);"></path></g><g style="transform:matrix(1,0,0,1,428.59375,68.657);"><path d="M297 714L242 714L-37 -169L18 -169ZM602 -3C674 -3 723 8 775 34C931 114 1027 265 1027 431C1027 529 997 599 936 642C890 675 805 693 710 692L506 689L496 689C487 689 484 689 383 692L380 664L433 662C457 661 468 653 468 635C468 621 464 589 459 559L372 55C367 31 342 29 319 23L314 -3L407 0L462 0C497 0 568 -3 602 -3ZM670 655C852 655 935 579 935 415C935 225 835 41 615 41C571 41 522 46 454 56C454 68 455 75 458 93L554 650C577 650 635 655 670 655Z" stroke="rgb(0, 0, 0)" stroke-width="8" fill="rgb(0, 0, 0)" style="transform:matrix(0.022032,0,0,-0.022032,0,0);"></path></g><g style="transform:matrix(1,0,0,1,452.015625,68.657);"><path d="M146 266C146 526 243 632 301 700L282 726C225 675 60 542 60 266C60 159 85 58 133 -32C168 -99 200 -138 282 -215L301 -194C255 -137 146 -15 146 266Z" stroke="rgb(0, 0, 0)" stroke-width="8" fill="rgb(0, 0, 0)" style="transform:matrix(0.022032,0,0,-0.022032,0,0);"></path></g><g style="transform:matrix(1,0,0,1,459.34375,68.657);"><path d="M176 -11C232 -11 347 62 390 125C431 186 465 296 465 371C465 438 442 482 406 482C364 482 311 456 259 409C218 374 198 348 162 289L186 408C189 425 191 440 191 452C191 471 183 482 169 482C148 482 110 461 36 408L8 388L15 368L47 389C75 407 86 412 95 412C105 412 112 403 112 389C112 381 110 361 108 351L50 8C40 -52 21 -143 1 -233L-7 -270L0 -276C21 -269 41 -264 73 -259L115 3C136 -4 158 -11 176 -11ZM143 165C165 293 272 424 355 424C381 424 393 402 393 356C393 275 353 156 300 80C280 51 248 36 207 36C176 36 151 43 125 59Z" stroke="rgb(0, 0, 0)" stroke-width="8" fill="rgb(0, 0, 0)" style="transform:matrix(0.022032,0,0,-0.022032,0,0);"></path></g><g style="transform:matrix(1,0,0,1,470.34375,68.657);"><path d="M51 726L32 700C87 636 187 526 187 266C187 -10 83 -131 32 -194L51 -215C104 -165 273 -23 273 265C273 542 108 675 51 726Z" stroke="rgb(0, 0, 0)" stroke-width="8" fill="rgb(0, 0, 0)" style="transform:matrix(0.022032,0,0,-0.022032,0,0);"></path></g></g></g><g><g><g style="transform:matrix(1,0,0,1,402.4375,98.907);"><path d="M-33 6L-28 -4C79 0 185 0 292 0C393 0 494 -1 594 -4L602 6C560 116 534 238 504 354C475 466 442 580 424 697L399 697C336 587 53 127 -33 6ZM482 37L50 37C148 215 249 389 356 564L363 564C408 391 449 215 482 37ZM864 -11C920 -11 1035 62 1078 125C1119 186 1153 296 1153 371C1153 438 1130 482 1094 482C1052 482 999 456 947 409C906 374 886 348 850 289L874 408C877 425 879 440 879 452C879 471 871 482 857 482C836 482 798 461 724 408L696 388L703 368L735 389C763 407 774 412 783 412C793 412 800 403 800 389C800 381 798 361 796 351L738 8C728 -52 709 -143 689 -233L681 -270L688 -276C709 -269 729 -264 761 -259L803 3C824 -4 846 -11 864 -11ZM831 165C853 293 960 424 1043 424C1069 424 1081 402 1081 356C1081 275 1041 156 988 80C968 51 936 36 895 36C864 36 839 43 813 59ZM1484 714L1429 714L1150 -169L1205 -169ZM1649 -11C1705 -11 1820 62 1863 125C1904 186 1938 296 1938 371C1938 438 1915 482 1879 482C1837 482 1784 456 1732 409C1691 374 1671 348 1635 289L1659 408C1662 425 1664 440 1664 452C1664 471 1656 482 1642 482C1621 482 1583 461 1509 408L1481 388L1488 368L1520 389C1548 407 1559 412 1568 412C1578 412 1585 403 1585 389C1585 381 1583 361 1581 351L1523 8C1513 -52 1494 -143 1474 -233L1466 -270L1473 -276C1494 -269 1514 -264 1546 -259L1588 3C1609 -4 1631 -11 1649 -11ZM1616 165C1638 293 1745 424 1828 424C1854 424 1866 402 1866 356C1866 275 1826 156 1773 80C1753 51 1721 36 1680 36C1649 36 1624 43 1598 59Z" stroke="rgb(0, 0, 0)" stroke-width="8" fill="rgb(0, 0, 0)" style="transform:matrix(0.022032,0,0,-0.022032,0,0);"></path></g></g></g><line style="fill:none;stroke-width:1px;stroke:rgb(0, 0, 0);" x1="370.65625" y1="77.921875" x2="477.671875" y2="77.921875"></line></g><g style="transform:matrix(1,0,0,1,488.6875,86.001);"><path d="M604 347L604 406L65 406L65 347ZM604 134L604 193L65 193L65 134Z" stroke="rgb(0, 0, 0)" stroke-width="8" fill="rgb(0, 0, 0)" style="transform:matrix(0.029376000000000003,0,0,-0.029376000000000003,0,0);"></path></g><g><g><g><g style="transform:matrix(1,0,0,1,535.21875,68.657);"><path d="M176 -11C232 -11 347 62 390 125C431 186 465 296 465 371C465 438 442 482 406 482C364 482 311 456 259 409C218 374 198 348 162 289L186 408C189 425 191 440 191 452C191 471 183 482 169 482C148 482 110 461 36 408L8 388L15 368L47 389C75 407 86 412 95 412C105 412 112 403 112 389C112 381 110 361 108 351L50 8C40 -52 21 -143 1 -233L-7 -270L0 -276C21 -269 41 -264 73 -259L115 3C136 -4 158 -11 176 -11ZM143 165C165 293 272 424 355 424C381 424 393 402 393 356C393 275 353 156 300 80C280 51 248 36 207 36C176 36 151 43 125 59Z" stroke="rgb(0, 0, 0)" stroke-width="8" fill="rgb(0, 0, 0)" style="transform:matrix(0.022032,0,0,-0.022032,0,0);"></path></g></g></g><g><g><g style="transform:matrix(1,0,0,1,519.328125,98.907);"><path d="M316 -3C388 -3 437 8 489 34C645 114 741 265 741 431C741 529 711 599 650 642C604 675 519 693 424 692L220 689L210 689C201 689 198 689 97 692L94 664L147 662C171 661 182 653 182 635C182 621 178 589 173 559L86 55C81 31 56 29 33 23L28 -3L121 0L176 0C211 0 282 -3 316 -3ZM384 655C566 655 649 579 649 415C649 225 549 41 329 41C285 41 236 46 168 56C168 68 169 75 172 93L268 650C291 650 349 655 384 655Z" stroke="rgb(0, 0, 0)" stroke-width="8" fill="rgb(0, 0, 0)" style="transform:matrix(0.022032,0,0,-0.022032,0,0);"></path></g><g style="transform:matrix(1,0,0,1,536.453125,98.907);"><path d="M146 266C146 526 243 632 301 700L282 726C225 675 60 542 60 266C60 159 85 58 133 -32C168 -99 200 -138 282 -215L301 -194C255 -137 146 -15 146 266Z" stroke="rgb(0, 0, 0)" stroke-width="8" fill="rgb(0, 0, 0)" style="transform:matrix(0.022032,0,0,-0.022032,0,0);"></path></g><g style="transform:matrix(1,0,0,1,543.78125,98.907);"><path d="M176 -11C232 -11 347 62 390 125C431 186 465 296 465 371C465 438 442 482 406 482C364 482 311 456 259 409C218 374 198 348 162 289L186 408C189 425 191 440 191 452C191 471 183 482 169 482C148 482 110 461 36 408L8 388L15 368L47 389C75 407 86 412 95 412C105 412 112 403 112 389C112 381 110 361 108 351L50 8C40 -52 21 -143 1 -233L-7 -270L0 -276C21 -269 41 -264 73 -259L115 3C136 -4 158 -11 176 -11ZM143 165C165 293 272 424 355 424C381 424 393 402 393 356C393 275 353 156 300 80C280 51 248 36 207 36C176 36 151 43 125 59Z" stroke="rgb(0, 0, 0)" stroke-width="8" fill="rgb(0, 0, 0)" style="transform:matrix(0.022032,0,0,-0.022032,0,0);"></path></g><g style="transform:matrix(1,0,0,1,554.78125,98.907);"><path d="M51 726L32 700C87 636 187 526 187 266C187 -10 83 -131 32 -194L51 -215C104 -165 273 -23 273 265C273 542 108 675 51 726Z" stroke="rgb(0, 0, 0)" stroke-width="8" fill="rgb(0, 0, 0)" style="transform:matrix(0.022032,0,0,-0.022032,0,0);"></path></g></g></g><line style="fill:none;stroke-width:1px;stroke:rgb(0, 0, 0);" x1="519.328125" y1="77.921875" x2="562.109375" y2="77.921875"></line></g><g style="transform:matrix(1,0,0,1,564.3125,86.001);"><path d="M316 -3C388 -3 437 8 489 34C645 114 741 265 741 431C741 529 711 599 650 642C604 675 519 693 424 692L220 689L210 689C201 689 198 689 97 692L94 664L147 662C171 661 182 653 182 635C182 621 178 589 173 559L86 55C81 31 56 29 33 23L28 -3L121 0L176 0C211 0 282 -3 316 -3ZM384 655C566 655 649 579 649 415C649 225 549 41 329 41C285 41 236 46 168 56C168 68 169 75 172 93L268 650C291 650 349 655 384 655ZM881 470C938 543 976 610 1010 696L997 709C961 697 951 694 900 679C894 599 870 533 822 456L837 446Z" stroke="rgb(0, 0, 0)" stroke-width="8" fill="rgb(0, 0, 0)" style="transform:matrix(0.029376000000000003,0,0,-0.029376000000000003,0,0);"></path></g><g style="transform:matrix(1,0,0,1,595.28125,86.001);"><path d="M146 266C146 526 243 632 301 700L282 726C225 675 60 542 60 266C60 159 85 58 133 -32C168 -99 200 -138 282 -215L301 -194C255 -137 146 -15 146 266Z" stroke="rgb(0, 0, 0)" stroke-width="8" fill="rgb(0, 0, 0)" style="transform:matrix(0.029376000000000003,0,0,-0.029376000000000003,0,0);"></path></g><g style="transform:matrix(1,0,0,1,605.046875,86.001);"><path d="M176 -11C232 -11 347 62 390 125C431 186 465 296 465 371C465 438 442 482 406 482C364 482 311 456 259 409C218 374 198 348 162 289L186 408C189 425 191 440 191 452C191 471 183 482 169 482C148 482 110 461 36 408L8 388L15 368L47 389C75 407 86 412 95 412C105 412 112 403 112 389C112 381 110 361 108 351L50 8C40 -52 21 -143 1 -233L-7 -270L0 -276C21 -269 41 -264 73 -259L115 3C136 -4 158 -11 176 -11ZM143 165C165 293 272 424 355 424C381 424 393 402 393 356C393 275 353 156 300 80C280 51 248 36 207 36C176 36 151 43 125 59Z" stroke="rgb(0, 0, 0)" stroke-width="8" fill="rgb(0, 0, 0)" style="transform:matrix(0.029376000000000003,0,0,-0.029376000000000003,0,0);"></path></g><g style="transform:matrix(1,0,0,1,619.703125,86.001);"><path d="M51 726L32 700C87 636 187 526 187 266C187 -10 83 -131 32 -194L51 -215C104 -165 273 -23 273 265C273 542 108 675 51 726Z" stroke="rgb(0, 0, 0)" stroke-width="8" fill="rgb(0, 0, 0)" style="transform:matrix(0.029376000000000003,0,0,-0.029376000000000003,0,0);"></path></g></g></g><g style="transform:matrix(0.9999588160075348,-0.009075587518675944,0.009075587518675944,0.9999588160075348,-4.043064331251799,5.511317620746297);"><g><text x="588.140625" y="439.234375" style="white-space:pre;stroke:none;fill:rgb(0, 0, 0);font-size:15px;font-family:Arial, Helvetica, sans-serif;font-weight:400;font-style:normal;dominant-baseline:text-before-edge;text-decoration:none solid rgb(0, 0, 0);">Price</text></g></g><g><g><g style="transform:matrix(1,0,0,1,629.78125,453);"><path d="M176 -11C232 -11 347 62 390 125C431 186 465 296 465 371C465 438 442 482 406 482C364 482 311 456 259 409C218 374 198 348 162 289L186 408C189 425 191 440 191 452C191 471 183 482 169 482C148 482 110 461 36 408L8 388L15 368L47 389C75 407 86 412 95 412C105 412 112 403 112 389C112 381 110 361 108 351L50 8C40 -52 21 -143 1 -233L-7 -270L0 -276C21 -269 41 -264 73 -259L115 3C136 -4 158 -11 176 -11ZM143 165C165 293 272 424 355 424C381 424 393 402 393 356C393 275 353 156 300 80C280 51 248 36 207 36C176 36 151 43 125 59Z" stroke="rgb(0, 0, 0)" stroke-width="8" fill="rgb(0, 0, 0)" style="transform:matrix(0.017,0,0,-0.017,0,0);"></path></g></g></g><g><g><g style="transform:matrix(1,0,0,1,157.78125,20);"><path d="M385 458C342 475 313 482 284 482C209 482 121 394 103 374C63 327 24 181 24 78C24 19 36 -11 60 -11C82 -11 101 -3 133 19C180 51 259 121 308 209L232 -205C227 -229 217 -249 205 -262L214 -276C245 -268 276 -262 300 -259C304 -205 310 -150 319 -100L405 356C416 417 422 443 432 474L418 480ZM118 59C104 59 96 80 96 113C96 209 139 359 181 409C193 424 222 433 254 433C282 433 303 427 351 406L330 311C301 174 160 59 118 59Z" stroke="rgb(0, 0, 0)" stroke-width="8" fill="rgb(0, 0, 0)" style="transform:matrix(0.017,0,0,-0.017,0,0);"></path></g></g></g><g style="transform:matrix(-0.015009267966723572,0.9998873545930577,-0.9998873545930577,-0.015009267966723572,328.27877141543877,156.61202446241765);"><g><g style="transform:matrix(1,0,0,1,64.6484375,247);"><path d="M-33 6L-28 -4C79 0 185 0 292 0C393 0 494 -1 594 -4L602 6C560 116 534 238 504 354C475 466 442 580 424 697L399 697C336 587 53 127 -33 6ZM482 37L50 37C148 215 249 389 356 564L363 564C408 391 449 215 482 37ZM1004 -3C1076 -3 1125 8 1177 34C1333 114 1429 265 1429 431C1429 529 1399 599 1338 642C1292 675 1207 693 1112 692L908 689L898 689C889 689 886 689 785 692L782 664L835 662C859 661 870 653 870 635C870 621 866 589 861 559L774 55C769 31 744 29 721 23L716 -3L809 0L864 0C899 0 970 -3 1004 -3ZM1072 655C1254 655 1337 579 1337 415C1337 225 1237 41 1017 41C973 41 924 46 856 56C856 68 857 75 860 93L956 650C979 650 1037 655 1072 655Z" stroke="rgb(0, 0, 0)" stroke-width="8" fill="rgb(0, 0, 0)" style="transform:matrix(0.017,0,0,-0.017,0,0);"></path></g><g style="transform:matrix(1,0,0,1,89.5546875,247);"><path d="M146 266C146 526 243 632 301 700L282 726C225 675 60 542 60 266C60 159 85 58 133 -32C168 -99 200 -138 282 -215L301 -194C255 -137 146 -15 146 266Z" stroke="rgb(0, 0, 0)" stroke-width="8" fill="rgb(0, 0, 0)" style="transform:matrix(0.017,0,0,-0.017,0,0);"></path></g><g style="transform:matrix(1,0,0,1,95.2109375,247);"><path d="M176 -11C232 -11 347 62 390 125C431 186 465 296 465 371C465 438 442 482 406 482C364 482 311 456 259 409C218 374 198 348 162 289L186 408C189 425 191 440 191 452C191 471 183 482 169 482C148 482 110 461 36 408L8 388L15 368L47 389C75 407 86 412 95 412C105 412 112 403 112 389C112 381 110 361 108 351L50 8C40 -52 21 -143 1 -233L-7 -270L0 -276C21 -269 41 -264 73 -259L115 3C136 -4 158 -11 176 -11ZM143 165C165 293 272 424 355 424C381 424 393 402 393 356C393 275 353 156 300 80C280 51 248 36 207 36C176 36 151 43 125 59Z" stroke="rgb(0, 0, 0)" stroke-width="8" fill="rgb(0, 0, 0)" style="transform:matrix(0.017,0,0,-0.017,0,0);"></path></g><g style="transform:matrix(1,0,0,1,103.6953125,247);"><path d="M51 726L32 700C87 636 187 526 187 266C187 -10 83 -131 32 -194L51 -215C104 -165 273 -23 273 265C273 542 108 675 51 726Z" stroke="rgb(0, 0, 0)" stroke-width="8" fill="rgb(0, 0, 0)" style="transform:matrix(0.017,0,0,-0.017,0,0);"></path></g></g></g><g><g><g style="transform:matrix(1,0,0,1,306.3984375,497);"><path d="M176 -11C232 -11 347 62 390 125C431 186 465 296 465 371C465 438 442 482 406 482C364 482 311 456 259 409C218 374 198 348 162 289L186 408C189 425 191 440 191 452C191 471 183 482 169 482C148 482 110 461 36 408L8 388L15 368L47 389C75 407 86 412 95 412C105 412 112 403 112 389C112 381 110 361 108 351L50 8C40 -52 21 -143 1 -233L-7 -270L0 -276C21 -269 41 -264 73 -259L115 3C136 -4 158 -11 176 -11ZM143 165C165 293 272 424 355 424C381 424 393 402 393 356C393 275 353 156 300 80C280 51 248 36 207 36C176 36 151 43 125 59ZM603 470C660 543 698 610 732 696L719 709C683 697 673 694 622 679C616 599 592 533 544 456L559 446Z" stroke="rgb(0, 0, 0)" stroke-width="8" fill="rgb(0, 0, 0)" style="transform:matrix(0.017,0,0,-0.017,0,0);"></path></g></g></g><g><g><g style="transform:matrix(1,0,0,1,224.78125,497);"><path d="M176 -11C232 -11 347 62 390 125C431 186 465 296 465 371C465 438 442 482 406 482C364 482 311 456 259 409C218 374 198 348 162 289L186 408C189 425 191 440 191 452C191 471 183 482 169 482C148 482 110 461 36 408L8 388L15 368L47 389C75 407 86 412 95 412C105 412 112 403 112 389C112 381 110 361 108 351L50 8C40 -52 21 -143 1 -233L-7 -270L0 -276C21 -269 41 -264 73 -259L115 3C136 -4 158 -11 176 -11ZM143 165C165 293 272 424 355 424C381 424 393 402 393 356C393 275 353 156 300 80C280 51 248 36 207 36C176 36 151 43 125 59Z" stroke="rgb(0, 0, 0)" stroke-width="8" fill="rgb(0, 0, 0)" style="transform:matrix(0.017,0,0,-0.017,0,0);"></path></g></g></g><g><g><g style="transform:matrix(1,0,0,1,55.7109375,279);"><path d="M385 458C342 475 313 482 284 482C209 482 121 394 103 374C63 327 24 181 24 78C24 19 36 -11 60 -11C82 -11 101 -3 133 19C180 51 259 121 308 209L232 -205C227 -229 217 -249 205 -262L214 -276C245 -268 276 -262 300 -259C304 -205 310 -150 319 -100L405 356C416 417 422 443 432 474L418 480ZM118 59C104 59 96 80 96 113C96 209 139 359 181 409C193 424 222 433 254 433C282 433 303 427 351 406L330 311C301 174 160 59 118 59ZM566 470C623 543 661 610 695 696L682 709C646 697 636 694 585 679C579 599 555 533 507 456L522 446Z" stroke="rgb(0, 0, 0)" stroke-width="8" fill="rgb(0, 0, 0)" style="transform:matrix(0.017,0,0,-0.017,0,0);"></path></g></g></g><g><g><g style="transform:matrix(1,0,0,1,53.78125,215);"><path d="M385 458C342 475 313 482 284 482C209 482 121 394 103 374C63 327 24 181 24 78C24 19 36 -11 60 -11C82 -11 101 -3 133 19C180 51 259 121 308 209L232 -205C227 -229 217 -249 205 -262L214 -276C245 -268 276 -262 300 -259C304 -205 310 -150 319 -100L405 356C416 417 422 443 432 474L418 480ZM118 59C104 59 96 80 96 113C96 209 139 359 181 409C193 424 222 433 254 433C282 433 303 427 351 406L330 311C301 174 160 59 118 59Z" stroke="rgb(0, 0, 0)" stroke-width="8" fill="rgb(0, 0, 0)" style="transform:matrix(0.017,0,0,-0.017,0,0);"></path></g></g></g><g style="transform:matrix(0.9999950652018582,-0.003141587485880501,0.003141587485880501,0.9999950652018582,-1.4406513257226834,0.853635281020729);"><g><g style="transform:matrix(1,0,0,1,260.90625,466);"><path d="M-33 6L-28 -4C79 0 185 0 292 0C393 0 494 -1 594 -4L602 6C560 116 534 238 504 354C475 466 442 580 424 697L399 697C336 587 53 127 -33 6ZM482 37L50 37C148 215 249 389 356 564L363 564C408 391 449 215 482 37ZM864 -11C920 -11 1035 62 1078 125C1119 186 1153 296 1153 371C1153 438 1130 482 1094 482C1052 482 999 456 947 409C906 374 886 348 850 289L874 408C877 425 879 440 879 452C879 471 871 482 857 482C836 482 798 461 724 408L696 388L703 368L735 389C763 407 774 412 783 412C793 412 800 403 800 389C800 381 798 361 796 351L738 8C728 -52 709 -143 689 -233L681 -270L688 -276C709 -269 729 -264 761 -259L803 3C824 -4 846 -11 864 -11ZM831 165C853 293 960 424 1043 424C1069 424 1081 402 1081 356C1081 275 1041 156 988 80C968 51 936 36 895 36C864 36 839 43 813 59Z" stroke="rgb(0, 0, 0)" stroke-width="8" fill="rgb(0, 0, 0)" style="transform:matrix(0.017,0,0,-0.017,0,0);"></path></g></g></g></svg>
</svg>
