<svg xmlns="http://www.w3.org/2000/svg" width="567" height="248" style="
        width:567px;
        height:248px;
        background: #FFF;
        fill: none;
">
        <svg xmlns="http://www.w3.org/2000/svg"/>
        <svg xmlns="http://www.w3.org/2000/svg" class="role-diagram-draw-area"><g class="shapes-region" style="stroke: black; fill: none;"><g class="arrow-line"><path class="connection real" stroke-dasharray="" d="  M63.5,57.5 L127.65,57.5" style="stroke: rgb(0, 0, 0); stroke-width: 1; fill: none;"/><g stroke="#000" transform="matrix(1,0,0,1,130,57.5)" style="stroke: rgb(0, 0, 0); stroke-width: 1;"><circle cx="0" cy="0" r="3.35"/></g><g stroke="#000" fill="#000" transform="matrix(1,0,0,1,63.5,57.5)" style="stroke: rgb(0, 0, 0); fill: rgb(0, 0, 0); stroke-width: 1;"><circle cx="0" cy="0" r="3.35"/></g></g><g class="arrow-line"><path class="connection real" stroke-dasharray="" d="  M49.5,179.5 L119.24,199.36" style="stroke: rgb(0, 0, 0); stroke-width: 1; fill: none;"/><g stroke="#000" transform="matrix(0.9617891098046345,0.2737913589966064,-0.2737913589966064,0.9617891098046345,121.5,200)" style="stroke: rgb(0, 0, 0); stroke-width: 1;"><circle cx="0" cy="0" r="3.35"/></g></g><g class="arrow-line"><path class="connection real" stroke-dasharray="" d="  M49.5,179.5 L120.31,151.85" style="stroke: rgb(0, 0, 0); stroke-width: 1; fill: none;"/><g stroke="#000" transform="matrix(0.9315009019805125,-0.3637390130429943,0.3637390130429943,0.9315009019805125,122.5,151)" style="stroke: rgb(0, 0, 0); stroke-width: 1;"><circle cx="0" cy="0" r="3.35"/></g><g stroke="#000" fill="#000" transform="matrix(1,0,0,1,49.5,179.5)" style="stroke: rgb(0, 0, 0); fill: rgb(0, 0, 0); stroke-width: 1;"><circle cx="0" cy="0" r="3.35"/></g></g><g class="arrow-line"><path class="connection real" stroke-dasharray="" d="  M317.5,121.5 L386.94,159.86" style="stroke: rgb(0, 0, 0); stroke-width: 1; fill: none;"/><g stroke="#000" transform="matrix(0.8752957762910015,0.4835879485751615,-0.4835879485751615,0.8752957762910015,389,161)" style="stroke: rgb(0, 0, 0); stroke-width: 1;"><circle cx="0" cy="0" r="3.35"/></g></g><g class="arrow-line"><path class="connection real" stroke-dasharray="" d="  M317.5,121.5 L384,80.24" style="stroke: rgb(0, 0, 0); stroke-width: 1; fill: none;"/><g stroke="#000" transform="matrix(0.8497086989392982,-0.5272524319022958,0.5272524319022958,0.8497086989392982,386,79)" style="stroke: rgb(0, 0, 0); stroke-width: 1;"><circle cx="0" cy="0" r="3.35"/></g><g stroke="#000" fill="#000" transform="matrix(1,0,0,1,317.5,121.5)" style="stroke: rgb(0, 0, 0); fill: rgb(0, 0, 0); stroke-width: 1;"><circle cx="0" cy="0" r="3.35"/></g></g><g class="arrow-line"><path class="connection real" stroke-dasharray="" d="  M386,79 L456.15,79" style="stroke: rgb(0, 0, 0); stroke-width: 1; fill: none;"/><g stroke="#000" transform="matrix(1,0,0,1,458.5,79)" style="stroke: rgb(0, 0, 0); stroke-width: 1;"><circle cx="0" cy="0" r="3.35"/></g><g stroke="#000" fill="#000" transform="matrix(1,0,0,1,386,79)" style="stroke: rgb(0, 0, 0); fill: rgb(0, 0, 0); stroke-width: 1;"><circle cx="0" cy="0" r="3.35"/></g></g><g class="arrow-line"><path class="connection real" stroke-dasharray="" d="  M389.5,161.5 L459.24,181.36" style="stroke: rgb(0, 0, 0); stroke-width: 1; fill: none;"/><g stroke="#000" transform="matrix(0.9617891098046345,0.2737913589966064,-0.2737913589966064,0.9617891098046345,461.5,182)" style="stroke: rgb(0, 0, 0); stroke-width: 1;"><circle cx="0" cy="0" r="3.35"/></g></g><g class="arrow-line"><path class="connection real" stroke-dasharray="" d="  M389.5,161.5 L460.31,133.85" style="stroke: rgb(0, 0, 0); stroke-width: 1; fill: none;"/><g stroke="#000" transform="matrix(0.9315009019805125,-0.3637390130429943,0.3637390130429943,0.9315009019805125,462.5,133)" style="stroke: rgb(0, 0, 0); stroke-width: 1;"><circle cx="0" cy="0" r="3.35"/></g><g stroke="#000" fill="#000" transform="matrix(1,0,0,1,389.5,161.5)" style="stroke: rgb(0, 0, 0); fill: rgb(0, 0, 0); stroke-width: 1;"><circle cx="0" cy="0" r="3.35"/></g></g><g/></g><g/><g/><!-- react-empty: 2780 --></svg>
        <svg xmlns="http://www.w3.org/2000/svg" width="565" height="246" style="width:565px;height:246px;font-family:Asana-Math, Asana;background:#FFF;"><g style="transform:matrix(0.9999743970151198,-0.007155788862700651,0.007155788862700651,0.9999743970151198,-0.31214079356152524,0.7596401507809958);"><g><g style="transform:matrix(1,0,0,1,100.78125,48.9);"><path d="M418 -3L418 27L366 30C311 33 301 44 301 96L301 700L60 598L67 548L217 614L217 96C217 44 206 33 152 30L96 27L96 -3C250 0 250 0 261 0C292 0 402 -3 418 -3Z" stroke="rgb(0, 0, 0)" stroke-width="8" fill="rgb(0, 0, 0)" style="transform:matrix(0.0119,0,0,-0.0119,0,0);"></path></g></g></g><g><g><g style="transform:matrix(1,0,0,1,141.3984375,62);"><path d="M260 373L260 633C306 629 333 620 358 604C377 591 381 579 381 542L381 500L413 500C413 554 417 593 426 626C379 653 340 663 260 669C261 700 262 712 264 731L219 731L223 666C172 657 148 649 118 629C61 592 30 532 30 458C30 328 116 309 223 297L223 18C158 25 116 40 88 67C76 79 74 84 74 108L74 172L42 172C39 93 36 63 30 24C95 -2 161 -17 223 -18C221 -82 221 -95 219 -116L264 -116L260 -16C315 -5 341 5 374 27C437 68 471 132 471 207C471 341 375 361 260 373ZM260 292C358 277 392 246 392 173C392 92 340 32 260 18ZM223 379C137 390 105 421 105 494C105 541 121 580 151 604C171 620 187 626 223 630ZM1166 -3L1166 27L1114 30C1059 33 1049 44 1049 96L1049 700L808 598L815 548L965 614L965 96C965 44 954 33 900 30L844 27L844 -3C998 0 998 0 1009 0C1040 0 1150 -3 1166 -3Z" stroke="rgb(0, 0, 0)" stroke-width="8" fill="rgb(0, 0, 0)" style="transform:matrix(0.017,0,0,-0.017,0,0);"></path></g></g></g><g><g><g style="transform:matrix(1,0,0,1,36.609375,36);"><path d="M567 55C567 39 552 30 524 28L480 25L480 -3C582 0 582 0 602 0C622 0 622 0 724 -3L724 25L698 28C651 35 650 35 642 80L555 705L509 705L136 112C100 56 82 40 48 32L28 27L28 -3C120 0 120 0 140 0C159 0 161 0 247 -3L247 25L195 28C179 29 164 38 164 47C164 55 171 69 190 102L292 277L538 277L563 89L563 86C563 84 567 69 567 55ZM496 601L533 313L317 313Z" stroke="rgb(0, 0, 0)" stroke-width="8" fill="rgb(0, 0, 0)" style="transform:matrix(0.017,0,0,-0.017,0,0);"></path></g></g></g><g style="transform:matrix(0.9999743970151198,-0.007155788862700651,0.007155788862700651,0.9999743970151198,-1.0639594778729418,0.6335242646647998);"><g><g style="transform:matrix(1,0,0,1,77.609375,153.9);"><path d="M263 689C108 689 29 566 29 324C29 207 50 106 85 57C120 8 176 -20 238 -20C389 -20 465 110 465 366C465 585 400 689 263 689ZM245 654C342 654 381 556 381 316C381 103 343 15 251 15C154 15 113 116 113 360C113 571 150 654 245 654ZM623 111C593 111 566 83 566 53C566 23 593 -5 622 -5C654 -5 682 22 682 53C682 83 654 111 623 111ZM1011 689C856 689 777 566 777 324C777 207 798 106 833 57C868 8 924 -20 986 -20C1137 -20 1213 110 1213 366C1213 585 1148 689 1011 689ZM993 654C1090 654 1129 556 1129 316C1129 103 1091 15 999 15C902 15 861 116 861 360C861 571 898 654 993 654ZM1665 -3L1665 27L1613 30C1558 33 1548 44 1548 96L1548 700L1307 598L1314 548L1464 614L1464 96C1464 44 1453 33 1399 30L1343 27L1343 -3C1497 0 1497 0 1508 0C1539 0 1649 -3 1665 -3Z" stroke="rgb(0, 0, 0)" stroke-width="8" fill="rgb(0, 0, 0)" style="transform:matrix(0.0119,0,0,-0.0119,0,0);"></path></g></g></g><g style="transform:matrix(0.9999588160075348,0.009075587518675376,-0.009075587518675376,0.9999588160075348,1.863996080687997,-0.7629822206320398);"><g><g style="transform:matrix(1,0,0,1,74.609375,209.9);"><path d="M263 689C108 689 29 566 29 324C29 207 50 106 85 57C120 8 176 -20 238 -20C389 -20 465 110 465 366C465 585 400 689 263 689ZM245 654C342 654 381 556 381 316C381 103 343 15 251 15C154 15 113 116 113 360C113 571 150 654 245 654ZM623 111C593 111 566 83 566 53C566 23 593 -5 622 -5C654 -5 682 22 682 53C682 83 654 111 623 111ZM844 -20C955 16 1003 39 1057 85C1154 168 1205 283 1205 417C1205 586 1124 689 992 689C864 689 768 589 768 455C768 340 843 256 947 256C981 256 1020 267 1038 282L1108 340C1100 172 991 49 810 5L810 -3ZM988 656C1033 656 1066 637 1088 597C1106 565 1118 516 1118 471C1118 379 1065 317 988 317C908 317 854 388 854 492C854 593 906 656 988 656ZM1343 -20C1454 16 1502 39 1556 85C1653 168 1704 283 1704 417C1704 586 1623 689 1491 689C1363 689 1267 589 1267 455C1267 340 1342 256 1446 256C1480 256 1519 267 1537 282L1607 340C1599 172 1490 49 1309 5L1309 -3ZM1487 656C1532 656 1565 637 1587 597C1605 565 1617 516 1617 471C1617 379 1564 317 1487 317C1407 317 1353 388 1353 492C1353 593 1405 656 1487 656Z" stroke="rgb(0, 0, 0)" stroke-width="8" fill="rgb(0, 0, 0)" style="transform:matrix(0.0119,0,0,-0.0119,0,0);"></path></g></g></g><g><g><g style="transform:matrix(1,0,0,1,130.7109375,157);"><path d="M555 243L555 299L51 299L51 243Z" stroke="rgb(0, 0, 0)" stroke-width="8" fill="rgb(0, 0, 0)" style="transform:matrix(0.017,0,0,-0.017,0,0);"></path></g><g style="transform:matrix(1,0,0,1,141.0078125,157);"><path d="M260 373L260 633C306 629 333 620 358 604C377 591 381 579 381 542L381 500L413 500C413 554 417 593 426 626C379 653 340 663 260 669C261 700 262 712 264 731L219 731L223 666C172 657 148 649 118 629C61 592 30 532 30 458C30 328 116 309 223 297L223 18C158 25 116 40 88 67C76 79 74 84 74 108L74 172L42 172C39 93 36 63 30 24C95 -2 161 -17 223 -18C221 -82 221 -95 219 -116L264 -116L260 -16C315 -5 341 5 374 27C437 68 471 132 471 207C471 341 375 361 260 373ZM260 292C358 277 392 246 392 173C392 92 340 32 260 18ZM223 379C137 390 105 421 105 494C105 541 121 580 151 604C171 620 187 626 223 630ZM1207 253C1207 366 1126 446 1012 446C964 446 928 443 875 396L875 605L1180 604L1180 689L823 690L823 322L843 316C890 363 917 377 966 377C1062 377 1122 309 1122 201C1122 90 1058 25 949 25C895 25 845 43 831 69L785 151L761 137C784 80 796 48 810 4C838 -11 878 -20 921 -20C1049 -20 1207 89 1207 253Z" stroke="rgb(0, 0, 0)" stroke-width="8" fill="rgb(0, 0, 0)" style="transform:matrix(0.017,0,0,-0.017,0,0);"></path></g><g style="transform:matrix(1,0,0,1,162.2109375,157);"><path d="M204 123C177 114 159 108 106 93C99 17 74 -48 16 -144L30 -155L71 -136C152 -31 190 32 218 109Z" stroke="rgb(0, 0, 0)" stroke-width="8" fill="rgb(0, 0, 0)" style="transform:matrix(0.017,0,0,-0.017,0,0);"></path></g><g style="transform:matrix(1,0,0,1,169.8359375,157);"><path d="M263 689C108 689 29 566 29 324C29 207 50 106 85 57C120 8 176 -20 238 -20C389 -20 465 110 465 366C465 585 400 689 263 689ZM245 654C342 654 381 556 381 316C381 103 343 15 251 15C154 15 113 116 113 360C113 571 150 654 245 654ZM762 689C607 689 528 566 528 324C528 207 549 106 584 57C619 8 675 -20 737 -20C888 -20 964 110 964 366C964 585 899 689 762 689ZM744 654C841 654 880 556 880 316C880 103 842 15 750 15C653 15 612 116 612 360C612 571 649 654 744 654ZM1261 689C1106 689 1027 566 1027 324C1027 207 1048 106 1083 57C1118 8 1174 -20 1236 -20C1387 -20 1463 110 1463 366C1463 585 1398 689 1261 689ZM1243 654C1340 654 1379 556 1379 316C1379 103 1341 15 1249 15C1152 15 1111 116 1111 360C1111 571 1148 654 1243 654Z" stroke="rgb(0, 0, 0)" stroke-width="8" fill="rgb(0, 0, 0)" style="transform:matrix(0.017,0,0,-0.017,0,0);"></path></g></g></g><g><g><g style="transform:matrix(1,0,0,1,142.3984375,206);"><path d="M260 373L260 633C306 629 333 620 358 604C377 591 381 579 381 542L381 500L413 500C413 554 417 593 426 626C379 653 340 663 260 669C261 700 262 712 264 731L219 731L223 666C172 657 148 649 118 629C61 592 30 532 30 458C30 328 116 309 223 297L223 18C158 25 116 40 88 67C76 79 74 84 74 108L74 172L42 172C39 93 36 63 30 24C95 -2 161 -17 223 -18C221 -82 221 -95 219 -116L264 -116L260 -16C315 -5 341 5 374 27C437 68 471 132 471 207C471 341 375 361 260 373ZM260 292C358 277 392 246 392 173C392 92 340 32 260 18ZM223 379C137 390 105 421 105 494C105 541 121 580 151 604C171 620 187 626 223 630ZM1011 689C856 689 777 566 777 324C777 207 798 106 833 57C868 8 924 -20 986 -20C1137 -20 1213 110 1213 366C1213 585 1148 689 1011 689ZM993 654C1090 654 1129 556 1129 316C1129 103 1091 15 999 15C902 15 861 116 861 360C861 571 898 654 993 654Z" stroke="rgb(0, 0, 0)" stroke-width="8" fill="rgb(0, 0, 0)" style="transform:matrix(0.017,0,0,-0.017,0,0);"></path></g></g></g><g><g><g style="transform:matrix(1,0,0,1,31.78125,143);"><path d="M543 227C543 337 459 353 377 365C434 385 459 397 490 425C536 464 559 511 559 562C559 644 501 692 401 692C399 692 389 692 374 691L311 690C299 689 263 689 251 689C232 689 201 690 152 691L100 692L97 664L150 662C174 661 185 653 185 635C185 621 181 589 176 559L89 55C85 37 73 30 31 23L26 -3L63 -2C90 0 105 0 117 0C128 0 154 -1 180 -2L217 -3L237 -4C256 -5 269 -6 277 -6C392 -6 543 87 543 227ZM166 41L217 340L302 340C405 340 455 298 455 211C455 108 382 34 282 34C228 34 207 38 166 41ZM352 655C433 655 473 619 473 544C473 439 399 376 275 376L223 376L272 650C288 650 329 655 352 655Z" stroke="rgb(0, 0, 0)" stroke-width="8" fill="rgb(0, 0, 0)" style="transform:matrix(0.017,0,0,-0.017,0,0);"></path></g></g></g><g style="transform:matrix(0.9999743970151198,-0.007155788862700651,0.007155788862700651,0.9999743970151198,-0.5921508227436902,2.499520963812458);"><g><g style="transform:matrix(1,0,0,1,343.78125,88.9);"><path d="M385 458C342 475 313 482 284 482C209 482 121 394 103 374C63 327 24 181 24 78C24 19 36 -11 60 -11C82 -11 101 -3 133 19C180 51 259 121 308 209L232 -205C227 -229 217 -249 205 -262L214 -276C245 -268 276 -262 300 -259C304 -205 310 -150 319 -100L405 356C416 417 422 443 432 474L418 480ZM118 59C104 59 96 80 96 113C96 209 139 359 181 409C193 424 222 433 254 433C282 433 303 427 351 406L330 311C301 174 160 59 118 59Z" stroke="rgb(0, 0, 0)" stroke-width="8" fill="rgb(0, 0, 0)" style="transform:matrix(0.0119,0,0,-0.0119,0,0);"></path></g></g></g><g style="transform:matrix(0.9999588160075348,0.009075587518675376,-0.009075587518675376,0.9999588160075348,1.4118489552765254,-3.1247353591033686);"><g><g style="transform:matrix(1,0,0,1,333.296875,158.9);"><path d="M418 -3L418 27L366 30C311 33 301 44 301 96L301 700L60 598L67 548L217 614L217 96C217 44 206 33 152 30L96 27L96 -3C250 0 250 0 261 0C292 0 402 -3 418 -3Z" stroke="rgb(0, 0, 0)" stroke-width="8" fill="rgb(0, 0, 0)" style="transform:matrix(0.0119,0,0,-0.0119,0,0);"></path></g><g style="transform:matrix(1,0,0,1,341.625,158.9);"><path d="M555 243L555 299L51 299L51 243Z" stroke="rgb(0, 0, 0)" stroke-width="8" fill="rgb(0, 0, 0)" style="transform:matrix(0.0119,0,0,-0.0119,0,0);"></path></g><g style="transform:matrix(1,0,0,1,351.203125,158.9);"><path d="M385 458C342 475 313 482 284 482C209 482 121 394 103 374C63 327 24 181 24 78C24 19 36 -11 60 -11C82 -11 101 -3 133 19C180 51 259 121 308 209L232 -205C227 -229 217 -249 205 -262L214 -276C245 -268 276 -262 300 -259C304 -205 310 -150 319 -100L405 356C416 417 422 443 432 474L418 480ZM118 59C104 59 96 80 96 113C96 209 139 359 181 409C193 424 222 433 254 433C282 433 303 427 351 406L330 311C301 174 160 59 118 59Z" stroke="rgb(0, 0, 0)" stroke-width="8" fill="rgb(0, 0, 0)" style="transform:matrix(0.0119,0,0,-0.0119,0,0);"></path></g></g></g><g><g><g style="transform:matrix(1,0,0,1,267.328125,36);"><path d="M45 284C45 90 152 -18 343 -18C439 -18 510 5 600 67L610 103L600 110C506 53 454 35 376 35C219 35 133 131 133 309C133 447 190 653 418 653C489 653 541 639 597 603L597 519L624 519C629 576 637 619 651 665C575 694 518 706 456 706C276 706 45 578 45 284Z" stroke="rgb(0, 0, 0)" stroke-width="8" fill="rgb(0, 0, 0)" style="transform:matrix(0.017,0,0,-0.017,0,0);"></path></g><g style="transform:matrix(1,0,0,1,284.109375,36);"><path d="M604 347L604 406L65 406L65 347ZM604 134L604 193L65 193L65 134Z" stroke="rgb(0, 0, 0)" stroke-width="8" fill="rgb(0, 0, 0)" style="transform:matrix(0.017,0,0,-0.017,0,0);"></path></g><g style="transform:matrix(1,0,0,1,300.5625,36);"><path d="M385 458C342 475 313 482 284 482C209 482 121 394 103 374C63 327 24 181 24 78C24 19 36 -11 60 -11C82 -11 101 -3 133 19C180 51 259 121 308 209L232 -205C227 -229 217 -249 205 -262L214 -276C245 -268 276 -262 300 -259C304 -205 310 -150 319 -100L405 356C416 417 422 443 432 474L418 480ZM118 59C104 59 96 80 96 113C96 209 139 359 181 409C193 424 222 433 254 433C282 433 303 427 351 406L330 311C301 174 160 59 118 59ZM1278 55C1278 39 1263 30 1235 28L1191 25L1191 -3C1293 0 1293 0 1313 0C1333 0 1333 0 1435 -3L1435 25L1409 28C1362 35 1361 35 1353 80L1266 705L1220 705L847 112C811 56 793 40 759 32L739 27L739 -3C831 0 831 0 851 0C870 0 872 0 958 -3L958 25L906 28C890 29 875 38 875 47C875 55 882 69 901 102L1003 277L1249 277L1274 89L1274 86C1274 84 1278 69 1278 55ZM1207 601L1244 313L1028 313Z" stroke="rgb(0, 0, 0)" stroke-width="8" fill="rgb(0, 0, 0)" style="transform:matrix(0.017,0,0,-0.017,0,0);"></path></g><g style="transform:matrix(1,0,0,1,328.8125,36);"><path d="M604 241L604 300L364 300L364 538L305 538L305 300L65 300L65 241L305 241L305 0L364 0L364 241Z" stroke="rgb(0, 0, 0)" stroke-width="8" fill="rgb(0, 0, 0)" style="transform:matrix(0.017,0,0,-0.017,0,0);"></path></g><g style="transform:matrix(1,0,0,1,343.5625,36);"><path d="M146 266C146 526 243 632 301 700L282 726C225 675 60 542 60 266C60 159 85 58 133 -32C168 -99 200 -138 282 -215L301 -194C255 -137 146 -15 146 266Z" stroke="rgb(0, 0, 0)" stroke-width="8" fill="rgb(0, 0, 0)" style="transform:matrix(0.017,0,0,-0.017,0,0);"></path></g><g style="transform:matrix(1,0,0,1,349.21875,36);"><path d="M418 -3L418 27L366 30C311 33 301 44 301 96L301 700L60 598L67 548L217 614L217 96C217 44 206 33 152 30L96 27L96 -3C250 0 250 0 261 0C292 0 402 -3 418 -3Z" stroke="rgb(0, 0, 0)" stroke-width="8" fill="rgb(0, 0, 0)" style="transform:matrix(0.017,0,0,-0.017,0,0);"></path></g><g style="transform:matrix(1,0,0,1,361.09375,36);"><path d="M555 243L555 299L51 299L51 243Z" stroke="rgb(0, 0, 0)" stroke-width="8" fill="rgb(0, 0, 0)" style="transform:matrix(0.017,0,0,-0.017,0,0);"></path></g><g style="transform:matrix(1,0,0,1,374.78125,36);"><path d="M385 458C342 475 313 482 284 482C209 482 121 394 103 374C63 327 24 181 24 78C24 19 36 -11 60 -11C82 -11 101 -3 133 19C180 51 259 121 308 209L232 -205C227 -229 217 -249 205 -262L214 -276C245 -268 276 -262 300 -259C304 -205 310 -150 319 -100L405 356C416 417 422 443 432 474L418 480ZM118 59C104 59 96 80 96 113C96 209 139 359 181 409C193 424 222 433 254 433C282 433 303 427 351 406L330 311C301 174 160 59 118 59Z" stroke="rgb(0, 0, 0)" stroke-width="8" fill="rgb(0, 0, 0)" style="transform:matrix(0.017,0,0,-0.017,0,0);"></path></g><g style="transform:matrix(1,0,0,1,382.640625,36);"><path d="M51 726L32 700C87 636 187 526 187 266C187 -10 83 -131 32 -194L51 -215C104 -165 273 -23 273 265C273 542 108 675 51 726Z" stroke="rgb(0, 0, 0)" stroke-width="8" fill="rgb(0, 0, 0)" style="transform:matrix(0.017,0,0,-0.017,0,0);"></path></g><g style="transform:matrix(1,0,0,1,388.296875,36);"><path d="M543 227C543 337 459 353 377 365C434 385 459 397 490 425C536 464 559 511 559 562C559 644 501 692 401 692C399 692 389 692 374 691L311 690C299 689 263 689 251 689C232 689 201 690 152 691L100 692L97 664L150 662C174 661 185 653 185 635C185 621 181 589 176 559L89 55C85 37 73 30 31 23L26 -3L63 -2C90 0 105 0 117 0C128 0 154 -1 180 -2L217 -3L237 -4C256 -5 269 -6 277 -6C392 -6 543 87 543 227ZM166 41L217 340L302 340C405 340 455 298 455 211C455 108 382 34 282 34C228 34 207 38 166 41ZM352 655C433 655 473 619 473 544C473 439 399 376 275 376L223 376L272 650C288 650 329 655 352 655Z" stroke="rgb(0, 0, 0)" stroke-width="8" fill="rgb(0, 0, 0)" style="transform:matrix(0.017,0,0,-0.017,0,0);"></path></g></g></g><g style="transform:matrix(0.9999743970151198,-0.007155788862700651,0.007155788862700651,0.9999743970151198,-0.41841485721818117,3.0570580234659843);"><g><g style="transform:matrix(1,0,0,1,421.78125,64.9);"><path d="M418 -3L418 27L366 30C311 33 301 44 301 96L301 700L60 598L67 548L217 614L217 96C217 44 206 33 152 30L96 27L96 -3C250 0 250 0 261 0C292 0 402 -3 418 -3Z" stroke="rgb(0, 0, 0)" stroke-width="8" fill="rgb(0, 0, 0)" style="transform:matrix(0.0119,0,0,-0.0119,0,0);"></path></g></g></g><g><g><g style="transform:matrix(1,0,0,1,471.3984375,84);"><path d="M260 373L260 633C306 629 333 620 358 604C377 591 381 579 381 542L381 500L413 500C413 554 417 593 426 626C379 653 340 663 260 669C261 700 262 712 264 731L219 731L223 666C172 657 148 649 118 629C61 592 30 532 30 458C30 328 116 309 223 297L223 18C158 25 116 40 88 67C76 79 74 84 74 108L74 172L42 172C39 93 36 63 30 24C95 -2 161 -17 223 -18C221 -82 221 -95 219 -116L264 -116L260 -16C315 -5 341 5 374 27C437 68 471 132 471 207C471 341 375 361 260 373ZM260 292C358 277 392 246 392 173C392 92 340 32 260 18ZM223 379C137 390 105 421 105 494C105 541 121 580 151 604C171 620 187 626 223 630ZM1166 -3L1166 27L1114 30C1059 33 1049 44 1049 96L1049 700L808 598L815 548L965 614L965 96C965 44 954 33 900 30L844 27L844 -3C998 0 998 0 1009 0C1040 0 1150 -3 1166 -3Z" stroke="rgb(0, 0, 0)" stroke-width="8" fill="rgb(0, 0, 0)" style="transform:matrix(0.017,0,0,-0.017,0,0);"></path></g></g></g><g style="transform:matrix(0.9999743970151198,-0.007155788862700651,0.007155788862700651,0.9999743970151198,-0.9264502634850942,3.0660316242551886);"><g><g style="transform:matrix(1,0,0,1,417.609375,135.9);"><path d="M263 689C108 689 29 566 29 324C29 207 50 106 85 57C120 8 176 -20 238 -20C389 -20 465 110 465 366C465 585 400 689 263 689ZM245 654C342 654 381 556 381 316C381 103 343 15 251 15C154 15 113 116 113 360C113 571 150 654 245 654ZM623 111C593 111 566 83 566 53C566 23 593 -5 622 -5C654 -5 682 22 682 53C682 83 654 111 623 111ZM1011 689C856 689 777 566 777 324C777 207 798 106 833 57C868 8 924 -20 986 -20C1137 -20 1213 110 1213 366C1213 585 1148 689 1011 689ZM993 654C1090 654 1129 556 1129 316C1129 103 1091 15 999 15C902 15 861 116 861 360C861 571 898 654 993 654ZM1665 -3L1665 27L1613 30C1558 33 1548 44 1548 96L1548 700L1307 598L1314 548L1464 614L1464 96C1464 44 1453 33 1399 30L1343 27L1343 -3C1497 0 1497 0 1508 0C1539 0 1649 -3 1665 -3Z" stroke="rgb(0, 0, 0)" stroke-width="8" fill="rgb(0, 0, 0)" style="transform:matrix(0.0119,0,0,-0.0119,0,0);"></path></g></g></g><g style="transform:matrix(0.9999588160075348,0.009075587518675376,-0.009075587518675376,0.9999588160075348,1.7146380627900157,-3.849423288846026);"><g><g style="transform:matrix(1,0,0,1,414.609375,191.9);"><path d="M263 689C108 689 29 566 29 324C29 207 50 106 85 57C120 8 176 -20 238 -20C389 -20 465 110 465 366C465 585 400 689 263 689ZM245 654C342 654 381 556 381 316C381 103 343 15 251 15C154 15 113 116 113 360C113 571 150 654 245 654ZM623 111C593 111 566 83 566 53C566 23 593 -5 622 -5C654 -5 682 22 682 53C682 83 654 111 623 111ZM844 -20C955 16 1003 39 1057 85C1154 168 1205 283 1205 417C1205 586 1124 689 992 689C864 689 768 589 768 455C768 340 843 256 947 256C981 256 1020 267 1038 282L1108 340C1100 172 991 49 810 5L810 -3ZM988 656C1033 656 1066 637 1088 597C1106 565 1118 516 1118 471C1118 379 1065 317 988 317C908 317 854 388 854 492C854 593 906 656 988 656ZM1343 -20C1454 16 1502 39 1556 85C1653 168 1704 283 1704 417C1704 586 1623 689 1491 689C1363 689 1267 589 1267 455C1267 340 1342 256 1446 256C1480 256 1519 267 1537 282L1607 340C1599 172 1490 49 1309 5L1309 -3ZM1487 656C1532 656 1565 637 1587 597C1605 565 1617 516 1617 471C1617 379 1564 317 1487 317C1407 317 1353 388 1353 492C1353 593 1405 656 1487 656Z" stroke="rgb(0, 0, 0)" stroke-width="8" fill="rgb(0, 0, 0)" style="transform:matrix(0.0119,0,0,-0.0119,0,0);"></path></g></g></g><g><g><g style="transform:matrix(1,0,0,1,470.7109375,139);"><path d="M555 243L555 299L51 299L51 243Z" stroke="rgb(0, 0, 0)" stroke-width="8" fill="rgb(0, 0, 0)" style="transform:matrix(0.017,0,0,-0.017,0,0);"></path></g><g style="transform:matrix(1,0,0,1,481.0078125,139);"><path d="M260 373L260 633C306 629 333 620 358 604C377 591 381 579 381 542L381 500L413 500C413 554 417 593 426 626C379 653 340 663 260 669C261 700 262 712 264 731L219 731L223 666C172 657 148 649 118 629C61 592 30 532 30 458C30 328 116 309 223 297L223 18C158 25 116 40 88 67C76 79 74 84 74 108L74 172L42 172C39 93 36 63 30 24C95 -2 161 -17 223 -18C221 -82 221 -95 219 -116L264 -116L260 -16C315 -5 341 5 374 27C437 68 471 132 471 207C471 341 375 361 260 373ZM260 292C358 277 392 246 392 173C392 92 340 32 260 18ZM223 379C137 390 105 421 105 494C105 541 121 580 151 604C171 620 187 626 223 630ZM1207 253C1207 366 1126 446 1012 446C964 446 928 443 875 396L875 605L1180 604L1180 689L823 690L823 322L843 316C890 363 917 377 966 377C1062 377 1122 309 1122 201C1122 90 1058 25 949 25C895 25 845 43 831 69L785 151L761 137C784 80 796 48 810 4C838 -11 878 -20 921 -20C1049 -20 1207 89 1207 253Z" stroke="rgb(0, 0, 0)" stroke-width="8" fill="rgb(0, 0, 0)" style="transform:matrix(0.017,0,0,-0.017,0,0);"></path></g><g style="transform:matrix(1,0,0,1,502.2109375,139);"><path d="M204 123C177 114 159 108 106 93C99 17 74 -48 16 -144L30 -155L71 -136C152 -31 190 32 218 109Z" stroke="rgb(0, 0, 0)" stroke-width="8" fill="rgb(0, 0, 0)" style="transform:matrix(0.017,0,0,-0.017,0,0);"></path></g><g style="transform:matrix(1,0,0,1,509.8359375,139);"><path d="M263 689C108 689 29 566 29 324C29 207 50 106 85 57C120 8 176 -20 238 -20C389 -20 465 110 465 366C465 585 400 689 263 689ZM245 654C342 654 381 556 381 316C381 103 343 15 251 15C154 15 113 116 113 360C113 571 150 654 245 654ZM762 689C607 689 528 566 528 324C528 207 549 106 584 57C619 8 675 -20 737 -20C888 -20 964 110 964 366C964 585 899 689 762 689ZM744 654C841 654 880 556 880 316C880 103 842 15 750 15C653 15 612 116 612 360C612 571 649 654 744 654ZM1261 689C1106 689 1027 566 1027 324C1027 207 1048 106 1083 57C1118 8 1174 -20 1236 -20C1387 -20 1463 110 1463 366C1463 585 1398 689 1261 689ZM1243 654C1340 654 1379 556 1379 316C1379 103 1341 15 1249 15C1152 15 1111 116 1111 360C1111 571 1148 654 1243 654Z" stroke="rgb(0, 0, 0)" stroke-width="8" fill="rgb(0, 0, 0)" style="transform:matrix(0.017,0,0,-0.017,0,0);"></path></g></g></g><g><g><g style="transform:matrix(1,0,0,1,482.3984375,188);"><path d="M260 373L260 633C306 629 333 620 358 604C377 591 381 579 381 542L381 500L413 500C413 554 417 593 426 626C379 653 340 663 260 669C261 700 262 712 264 731L219 731L223 666C172 657 148 649 118 629C61 592 30 532 30 458C30 328 116 309 223 297L223 18C158 25 116 40 88 67C76 79 74 84 74 108L74 172L42 172C39 93 36 63 30 24C95 -2 161 -17 223 -18C221 -82 221 -95 219 -116L264 -116L260 -16C315 -5 341 5 374 27C437 68 471 132 471 207C471 341 375 361 260 373ZM260 292C358 277 392 246 392 173C392 92 340 32 260 18ZM223 379C137 390 105 421 105 494C105 541 121 580 151 604C171 620 187 626 223 630ZM1011 689C856 689 777 566 777 324C777 207 798 106 833 57C868 8 924 -20 986 -20C1137 -20 1213 110 1213 366C1213 585 1148 689 1011 689ZM993 654C1090 654 1129 556 1129 316C1129 103 1091 15 999 15C902 15 861 116 861 360C861 571 898 654 993 654Z" stroke="rgb(0, 0, 0)" stroke-width="8" fill="rgb(0, 0, 0)" style="transform:matrix(0.017,0,0,-0.017,0,0);"></path></g></g></g></svg>
</svg>
